<?xml version="1.0" encoding="UTF-8" standalone="no"?>
<!-- Created with Inkscape (http://www.inkscape.org/) -->

<svg
   width="1595.002mm"
   height="235.98546mm"
   viewBox="0 0 1595.002 235.98546"
   version="1.1"
   id="svg1"
   sodipodi:docname="vertical_pmcp.svg"
   inkscape:version="1.3 (0e150ed6c4, 2023-07-21)"
   xmlns:inkscape="http://www.inkscape.org/namespaces/inkscape"
   xmlns:sodipodi="http://sodipodi.sourceforge.net/DTD/sodipodi-0.dtd"
   xmlns="http://www.w3.org/2000/svg"
   xmlns:svg="http://www.w3.org/2000/svg">
  <sodipodi:namedview
     id="namedview1"
     pagecolor="#ffffff"
     bordercolor="#000000"
     borderopacity="0.25"
     inkscape:showpageshadow="2"
     inkscape:pageopacity="0.0"
     inkscape:pagecheckerboard="0"
     inkscape:deskcolor="#d1d1d1"
     inkscape:document-units="mm"
     inkscape:zoom="0.61858946"
     inkscape:cx="5274.0957"
     inkscape:cy="375.8551"
     inkscape:window-width="1280"
     inkscape:window-height="729"
     inkscape:window-x="-8"
     inkscape:window-y="-8"
     inkscape:window-maximized="1"
     inkscape:current-layer="layer1" />
  <defs
     id="defs1" />
  <g
     inkscape:label="Layer 1"
     inkscape:groupmode="layer"
     id="layer1"
     transform="translate(704.99163,-261.35545)">
 <path
       id="path11"
       style="fill:#00ffff;fill-opacity:0.533333;stroke:#000000;stroke-width:1"
       d="m 758.22035,315.70303 c -0.1229,0.0316 -0.24557,0.0652 -0.36845,0.0972 -0.8805,0.21054 -1.7799,0.31437 -2.67374,0.45165 -2.06452,0.3479 -4.11709,0.76622 -6.18877,1.07228 -3.43659,0.5245 -6.85206,1.19594 -10.31824,1.51361 -4.41132,0.42861 -8.83288,0.71892 -13.2674,0.7307 -4.32278,0.0463 -8.64509,0.10686 -12.9682,0.0842 -1.31946,0.0214 -2.64033,0.0757 -3.961,0.11473 l -0.76895,0.0165 c -1.27522,0.0301 -2.55023,0.0415 -3.82302,-0.0181 l 0.94671,25.81755 c -0.0246,3.78677 0.12856,7.56946 0.2744,11.35228 0.19249,4.12652 0.46006,8.2488 0.66921,12.37444 0.28123,3.99921 0.38592,8.00706 0.44391,12.01477 0.15964,6.92079 -0.20588,13.85992 0.0837,20.77754 l 0.27185,10.22522 v 0 l 5.0431,-0.15762 c 2.89307,-0.0366 5.64189,-0.079 8.35364,-0.24054 2.64856,-0.15778 5.26175,-0.42926 7.93942,-0.92011 3.24209,-0.60695 6.43362,-1.37692 9.47074,-2.79518 7.1469,-3.3643 14.71402,-6.71452 20.01222,-12.78526 1.7678,-2.16235 3.5099,-4.47393 3.46387,-7.40524 0.97289,-7.00993 2.01394,-14.34115 0.0315,-21.26795 -1.19581,-3.92207 -5.21353,-5.99832 -8.69869,-7.58041 -7.53903,-3.0722 -15.3499,-5.58775 -23.34793,-7.13859 -2.64591,-0.43144 -5.32605,-0.71227 -8.00675,-0.75137 -3.9687,-0.18675 -7.84299,0.96453 -11.27166,2.90783 -0.0949,-2.42745 -0.20854,-4.8541 -0.36277,-7.27914 -0.0709,-1.30006 -0.1407,-2.60042 -0.21135,-3.90054 1.18961,-0.16898 2.38939,-0.2809 3.57445,-0.39377 4.28758,-0.33122 8.58579,-0.50207 12.88397,-0.61857 4.46971,-0.11159 8.93811,-0.21912 13.40177,-0.48421 3.47122,-0.21299 6.93048,-0.57842 10.39988,-0.81545 2.05234,-0.11265 4.10484,-0.25498 6.16035,-0.29456 0.83611,-0.0118 1.67911,-0.01 2.49959,0.16847 0.0914,7.9e-4 0.17255,0.0599 0.23978,0.0956 z m -32.58096,58.38354 c 7.45115,0.24343 14.56414,2.89809 21.28966,5.93866 -7.81431,4.52384 -16.49175,7.86562 -25.57518,8.41189 -2.66693,0.29162 -5.3001,0.90282 -7.97781,1.01389 h -1.76062 -1.1591 l -0.17566,-4.5837 c -0.0981,-1.49657 -0.18905,-2.99416 -0.29405,-4.49035 -0.0767,-1.09228 0.88697,-1.88655 1.50494,-2.4522 1.67384,-1.53213 3.82524,-2.88252 6.05388,-3.63899 1.36142,-0.46211 2.93026,-0.64956 4.25769,-0.56808 1.28393,0.0788 2.5153,0.32573 3.83625,0.36888 z"
       sodipodi:nodetypes="ccccccccccccccccccscccccccccccccccccccsccccccsssss"
       inkscape:label="glyph_a" />
  </g>
</svg>
