<?xml version="1.0" encoding="UTF-8" standalone="no"?>
<!-- Created with Inkscape (http://www.inkscape.org/) -->

<svg
   width="80mm"
   height="235.985mm"
   viewBox="322 0 80.000003 235.985"
   version="1.1"
   id="svg1"
   sodipodi:docname="d.svg"
   inkscape:version="1.3 (0e150ed6c4, 2023-07-21)"
   xmlns:inkscape="http://www.inkscape.org/namespaces/inkscape"
   xmlns:sodipodi="http://sodipodi.sourceforge.net/DTD/sodipodi-0.dtd"
   xmlns="http://www.w3.org/2000/svg"
   xmlns:svg="http://www.w3.org/2000/svg">
  <sodipodi:namedview
     id="namedview1"
     pagecolor="#ffffff"
     bordercolor="#000000"
     borderopacity="0.25"
     inkscape:showpageshadow="2"
     inkscape:pageopacity="0.0"
     inkscape:pagecheckerboard="0"
     inkscape:deskcolor="#d1d1d1"
     inkscape:document-units="mm"
     inkscape:zoom="0.2402239"
     inkscape:cx="-491.2084"
     inkscape:cy="693.10338"
     inkscape:window-width="1280"
     inkscape:window-height="729"
     inkscape:window-x="-8"
     inkscape:window-y="-8"
     inkscape:window-maximized="1"
     inkscape:current-layer="layer1" />
  <defs
     id="defs1" />
  <g
     inkscape:label="Layer 1"
     inkscape:groupmode="layer"
     id="layer1"
     transform="translate(704.99163,-261.35545)">
    <path
       id="path25"
       style="fill:#00ffff;fill-opacity:0.533333;stroke:#000000;stroke-width:1"
       d="m -365.93274,322.60856 c -0.0655,0.48821 -0.13213,0.97622 -0.19995,1.46404 -2.17894,15.67268 -5.54875,31.15335 -8.2568,46.73643 -1.45267,10.57216 -1.67989,21.40094 -0.16155,31.96801 0.63986,4.20519 4.99437,8.1547 9.34053,6.26945 6.40359,-2.4774 9.92315,-8.91637 13.68064,-14.24315 3.74558,-5.90032 6.61433,-12.32423 8.73367,-18.97632 0.0442,10.74475 -0.62485,21.56339 0.7137,32.25126 0.26686,5.24751 7.59888,5.60505 9.93735,1.57447 8.20241,-8.69713 12.77939,-20.09353 15.26925,-31.63973 0.63249,-2.2586 1.50347,-7.84895 1.22478,-2.65747 0.0803,10.54321 -0.18058,24.78676 -0.40091,35.32727 0.14681,3.78886 -0.0631,-1.50285 2.26733,0.22223 3.32826,1.26955 1.89703,-0.93072 2.17396,-3.73568 0.29569,-8.53952 0.0665,-20.79996 0.13805,-29.32937 1.04055,-11.63753 1.67257,-23.31069 1.44967,-34.9987 l -0.0414,-2.34952 c 0.0401,-1.93151 0.0376,-3.86305 -0.0269,-5.79059 -0.0628,-1.87576 -0.18427,-3.74773 -0.38228,-5.6122 -0.24975,-2.35177 -0.62124,-4.6916 -1.15022,-7.01206 -0.17655,-2.48739 -2.91758,-10.36508 -2.22068,-3.93933 -1.09771,11.18464 -3.31705,22.24858 -5.10498,33.34784 -2.11072,10.48169 -4.6537,21.28593 -11.29058,29.94042 -1.7546,2.01006 -5.88326,8.80361 -7.96355,4.86366 -1.52918,-6.46837 -0.28667,-13.19936 -0.23228,-19.76985 0.17978,-4.70484 0.45113,-9.39613 1.85512,-13.91529 1.85261,-6.65929 0.99464,-13.67837 1.14835,-20.50927 -0.17534,-4.92757 0.0309,-9.99247 -0.22909,-14.83782 -4.77414,-0.35399 -3.86203,4.20954 -4.48435,7.5908 -0.79343,6.06795 -0.87262,12.24228 -2.80152,18.10924 -3.192,14.17793 -7.88422,28.88425 -18.48223,39.34842 -1.825,2.19417 -7.37099,4.86346 -8.13294,0.70521 2.61253,-14.89998 5.66723,-29.73024 7.86345,-44.69919 0.65964,-4.95889 0.72845,-11.42953 0.58071,-16.6942 -0.096,-3.42143 -0.28348,-6.33351 -0.45967,-7.99029 -3.34512,5.04055 -4.26501,8.31271 -4.35465,8.98128 z m 55.8917,18.99729 c 0.0107,2.90628 -0.0256,2.63296 0,0 z m -5.63532,54.41063 c 0.32652,1.06442 0.0648,0.21153 0,0 z"
       sodipodi:nodetypes="sscccccccccccccccssccccccccccccccscscccc"
       inkscape:label="glyph_d"
       transform="translate(1.4583331e-6)" />
  </g>
</svg>
