<?xml version="1.0" encoding="UTF-8" standalone="no"?>
<!-- Created with Inkscape (http://www.inkscape.org/) -->

<svg
   width="70mm"
   height="235.985mm"
   viewBox="1327 0 70.000002 235.985"
   version="1.1"
   id="svg1"
   sodipodi:docname="e.svg"
   inkscape:version="1.3 (0e150ed6c4, 2023-07-21)"
   xmlns:inkscape="http://www.inkscape.org/namespaces/inkscape"
   xmlns:sodipodi="http://sodipodi.sourceforge.net/DTD/sodipodi-0.dtd"
   xmlns="http://www.w3.org/2000/svg"
   xmlns:svg="http://www.w3.org/2000/svg">
  <sodipodi:namedview
     id="namedview1"
     pagecolor="#ffffff"
     bordercolor="#000000"
     borderopacity="0.25"
     inkscape:showpageshadow="2"
     inkscape:pageopacity="0.0"
     inkscape:pagecheckerboard="0"
     inkscape:deskcolor="#d1d1d1"
     inkscape:document-units="mm"
     inkscape:zoom="0.4374088"
     inkscape:cx="-114.30954"
     inkscape:cy="328.06839"
     inkscape:window-width="1280"
     inkscape:window-height="729"
     inkscape:window-x="-8"
     inkscape:window-y="-8"
     inkscape:window-maximized="1"
     inkscape:current-layer="layer1" />
  <defs
     id="defs1" />
  <g
     inkscape:label="Layer 1"
     inkscape:groupmode="layer"
     id="layer1"
     transform="translate(704.99163,-261.35545)">
    <path
       id="path10"
       style="fill:#00ffff;fill-opacity:0.533333;stroke:#000000;stroke-width:1"
       d="m 635.68623,317.12311 c -1.00428,3.02124 -0.69872,6.39755 -1.22806,9.55619 -1.43707,11.43419 -3.1622,22.86893 -3.14383,34.42363 -0.11598,12.57693 -0.49514,25.2766 1.68234,37.71644 1.10676,4.74432 3.01041,10.23767 7.7828,12.37551 3.92141,0.87194 7.39817,-2.02972 10.42051,-4.13654 7.34714,-6.02397 13.09081,-14.03805 15.95496,-23.1353 2.96381,-9.09348 5.34179,-18.37739 8.6968,-27.34446 -0.37371,17.22816 0.5052,34.44172 1.18009,51.64959 -0.86609,3.87868 4.86938,3.206 3.65496,-0.29912 -0.0824,-8.79163 1.43941,-17.63063 -0.007,-26.37721 -0.23779,-8.94834 -1.74721,-17.87809 -0.83303,-26.84088 0.10344,-5.94787 0.8331,-11.83562 1.77838,-17.69889 0.68966,-6.44602 -0.59771,-12.86746 -1.18958,-19.26833 -1.22013,0.46532 -3.95319,-0.43704 -3.86068,1.21489 -1.46529,9.86219 -5.21947,19.181 -7.89798,28.74477 -3.20779,10.56401 -5.59634,22.01738 -13.44503,30.29001 -3.2787,3.77493 -7.04278,7.59529 -11.98499,8.99506 -4.54635,-0.75995 -5.64963,-6.53264 -6.75139,-10.31707 -0.9994,-4.62691 -1.4676,-9.36761 -0.63544,-14.05761 1.27705,-10.27278 2.98744,-20.49849 4.01087,-30.79899 0.11322,-3.85234 -0.0225,-7.89214 -0.85408,-11.59346 -1.11029,-1.03274 -2.22058,-2.06549 -3.33087,-3.09823 z"
       inkscape:label="glyph_e" />
  </g>
</svg>
