<?xml version="1.0" encoding="UTF-8" standalone="no"?>
<!-- Created with Inkscape (http://www.inkscape.org/) -->

<svg
   width="80mm"
   height="235.985mm"
   viewBox="1247 0 80.000003 235.985"
   version="1.1"
   id="svg1"
   sodipodi:docname="i.svg"
   inkscape:version="1.3 (0e150ed6c4, 2023-07-21)"
   xmlns:inkscape="http://www.inkscape.org/namespaces/inkscape"
   xmlns:sodipodi="http://sodipodi.sourceforge.net/DTD/sodipodi-0.dtd"
   xmlns="http://www.w3.org/2000/svg"
   xmlns:svg="http://www.w3.org/2000/svg">
  <sodipodi:namedview
     id="namedview1"
     pagecolor="#ffffff"
     bordercolor="#000000"
     borderopacity="0.25"
     inkscape:showpageshadow="2"
     inkscape:pageopacity="0.0"
     inkscape:pagecheckerboard="0"
     inkscape:deskcolor="#d1d1d1"
     inkscape:document-units="mm"
     inkscape:zoom="0.48044781"
     inkscape:cx="-10.406958"
     inkscape:cy="548.44667"
     inkscape:window-width="1280"
     inkscape:window-height="729"
     inkscape:window-x="-8"
     inkscape:window-y="-8"
     inkscape:window-maximized="1"
     inkscape:current-layer="layer1" />
  <defs
     id="defs1" />
  <g
     inkscape:label="Layer 1"
     inkscape:groupmode="layer"
     id="layer1"
     transform="translate(704.99163,-261.35545)">
    <path
       id="path9"
       style="fill:#00ffff;fill-opacity:0.533333;stroke:#000000;stroke-width:1"
       d="m 556.12157,311.93996 c -1.15652,8.01484 -2.31303,16.02969 -3.46955,24.04453 2.99372,13.98578 5.57426,28.08762 6.64132,42.36723 1.00249,10.83754 1.59318,21.7151 2.20599,32.57651 -0.60346,4.1418 5.54956,-0.0592 3.90715,-2.83474 0.33347,-16.06121 1.35498,-32.2662 5.34414,-47.88529 1.72476,-6.85988 6.20082,-13.65208 13.34895,-15.61919 4.72237,-1.79373 10.66849,-1.43258 14.07229,2.70693 6.43208,7.49351 7.60213,17.83617 8.6762,27.27686 0.94583,6.0978 -0.88405,12.11701 -0.64643,18.21926 -0.2853,6.72237 -0.84709,13.78412 1.92102,20.1148 2.66494,-0.0117 1.65749,-2.92817 1.97832,-4.63764 -0.12915,-5.23523 1.19157,-10.40145 0.79908,-15.65205 -0.15512,-18.81821 1.36256,-38.06267 -3.93822,-56.37678 -2.14076,-6.61652 -5.74889,-14.17793 -13.15332,-15.99092 -7.7874,-1.12504 -16.28749,1.87519 -21.34713,7.97316 -5.28705,6.55081 -6.24021,15.22991 -7.66688,23.23254 -0.67921,3.75565 -1.19904,10.48301 -1.56241,12.44479 -1.06578,-12.62422 -2.66728,-25.19657 -5.01223,-37.64917 -0.78718,-4.75571 -1.74599,-9.49641 -2.09829,-14.31083 z"
       inkscape:label="glyph_i" />
  </g>
</svg>
