<?xml version="1.0" encoding="UTF-8" standalone="no"?>
<!-- Created with Inkscape (http://www.inkscape.org/) -->

<svg
   width="75mm"
   height="235.985mm"
   viewBox="242 0 75.000001 235.985"
   version="1.1"
   id="svg1"
   sodipodi:docname="j.svg"
   inkscape:version="1.3 (0e150ed6c4, 2023-07-21)"
   xmlns:inkscape="http://www.inkscape.org/namespaces/inkscape"
   xmlns:sodipodi="http://sodipodi.sourceforge.net/DTD/sodipodi-0.dtd"
   xmlns="http://www.w3.org/2000/svg"
   xmlns:svg="http://www.w3.org/2000/svg">
  <sodipodi:namedview
     id="namedview1"
     pagecolor="#ffffff"
     bordercolor="#000000"
     borderopacity="0.25"
     inkscape:showpageshadow="2"
     inkscape:pageopacity="0.0"
     inkscape:pagecheckerboard="0"
     inkscape:deskcolor="#d1d1d1"
     inkscape:document-units="mm"
     inkscape:zoom="0.8748176"
     inkscape:cx="143.45848"
     inkscape:cy="402.94114"
     inkscape:window-width="1280"
     inkscape:window-height="729"
     inkscape:window-x="-8"
     inkscape:window-y="-8"
     inkscape:window-maximized="1"
     inkscape:current-layer="layer1" />
  <defs
     id="defs1" />
  <g
     inkscape:label="Layer 1"
     inkscape:groupmode="layer"
     id="layer1"
     transform="translate(704.99163,-261.35545)">
    <path
       id="path26"
       style="fill:#00ffff;fill-opacity:0.533333;stroke:#000000;stroke-width:1"
       d="m -448.88271,313.57397 c -0.67757,19.54043 -3.43196,39.00916 -2.57247,58.59413 0.0176,12.17346 -0.22403,25.76964 7.76061,35.80566 6.00143,5.49584 15.26689,2.23088 20.88413,-2.18346 8.93204,-7.47149 12.07815,-19.31493 15.12003,-30.07445 0.61974,-2.30553 1.83765,-10.59052 1.76764,-4.03254 1.17135,23.33386 1.78175,46.7096 2.21009,70.0539 0.1883,2.673 0.80132,5.34784 0.84316,5.41836 0.57673,5.29798 1.15347,10.59595 1.7302,15.89393 3.03481,-9.55963 3.08052,-32.45485 1.1971,-43.96255 -1.16635,-31.19189 -1.69952,-62.41838 -4.04468,-93.55227 -0.59496,-2.68975 0.63169,-11.24213 -0.70199,-10.06957 -0.9484,0.75764 -1.62944,1.62278 -2.11599,2.5635 -0.96431,1.86445 -1.16465,4.0258 -1.1683,6.23565 0.0656,6.96279 0.0215,6.07663 -0.65981,14.1449 -1.19801,13.72351 -4.10349,27.46733 -11.353,39.27698 -4.02921,5.77237 -11.45407,10.84647 -18.69636,8.56129 -6.1229,-3.40444 -7.38956,-11.13591 -8.57002,-17.43717 -0.77955,-8.90131 1.0807,-17.75608 1.56946,-26.62535 1.06033,-6.52012 -1.07205,-12.91187 -1.77487,-19.36145 -0.47498,-3.08316 -0.94978,-6.16636 -1.42488,-9.24949 z"
       sodipodi:nodetypes="scccccccccccssscccccss"
       inkscape:label="glyph_j"
       transform="translate(1.4583331e-6)" />
  </g>
</svg>
