<?xml version="1.0" encoding="UTF-8" standalone="no"?>
<!-- Created with Inkscape (http://www.inkscape.org/) -->

<svg
   width="1595.002mm"
   height="235.98546mm"
   viewBox="0 0 1595.002 235.98546"
   version="1.1"
   id="svg1"
   sodipodi:docname="vertical_pmcp.svg"
   inkscape:version="1.3 (0e150ed6c4, 2023-07-21)"
   xmlns:inkscape="http://www.inkscape.org/namespaces/inkscape"
   xmlns:sodipodi="http://sodipodi.sourceforge.net/DTD/sodipodi-0.dtd"
   xmlns="http://www.w3.org/2000/svg"
   xmlns:svg="http://www.w3.org/2000/svg">
  <sodipodi:namedview
     id="namedview1"
     pagecolor="#ffffff"
     bordercolor="#000000"
     borderopacity="0.25"
     inkscape:showpageshadow="2"
     inkscape:pageopacity="0.0"
     inkscape:pagecheckerboard="0"
     inkscape:deskcolor="#d1d1d1"
     inkscape:document-units="mm"
     inkscape:zoom="0.61858946"
     inkscape:cx="5274.0957"
     inkscape:cy="375.8551"
     inkscape:window-width="1280"
     inkscape:window-height="729"
     inkscape:window-x="-8"
     inkscape:window-y="-8"
     inkscape:window-maximized="1"
     inkscape:current-layer="layer1" />
  <defs
     id="defs1" />
  <g
     inkscape:label="Layer 1"
     inkscape:groupmode="layer"
     id="layer1"
     transform="translate(704.99163,-261.35545)">
<path
       id="path24"
       style="fill:#00ffff;fill-opacity:0.533333;stroke:#000000;stroke-width:1"
       d="m -258.83385,319.0217 c -4.53486,0.12089 -9.12058,0.71392 -13.49698,1.92266 -5.77736,2.13981 -9.00745,7.89733 -11.78081,13.03038 -4.08418,8.34381 -4.18643,17.76914 -4.16975,26.84705 9.7e-4,12.4784 -0.69903,25.46074 4.17156,37.24159 2.94928,6.23651 8.26434,12.07364 15.42818,13.03812 7.03393,1.50206 14.15519,-0.25784 21.2271,-0.44997 6.0831,-0.59722 12.16047,-1.54788 17.9941,-3.40524 -0.4091,-8.28339 -0.81821,-16.56678 -1.22731,-24.85017 -4.77792,2.72467 -10.48559,3.14465 -15.84297,4.0132 -6.19863,0.30378 -12.39591,1.63408 -18.60648,0.9974 -3.90672,-0.42812 -7.82923,-1.63896 -10.60818,-4.56563 -4.7561,-4.77556 -7.23554,-11.56672 -7.78102,-18.15846 1.25566,-6.49426 4.30472,-12.71571 8.85064,-17.52354 3.89049,-3.38528 9.35201,-3.46547 14.21868,-3.93032 6.21331,-0.35376 12.2288,1.84009 17.78388,4.39098 0.13779,1.69069 -5.50818,3.29248 -7.68559,4.27115 -7.51506,2.14086 -15.36084,0.38125 -22.99251,0.14945 0.0501,8.15592 0.10025,16.31184 0.15038,24.46776 5.73954,-1.1122 11.6266,0.24152 17.43197,-0.198 6.50848,-0.18778 12.80938,-2.68164 18.11375,-6.35844 4.80782,-3.8444 4.76487,-10.38819 5.29754,-15.96826 0.43343,-7.55073 0.27049,-15.26549 -1.57862,-22.62516 -1.34801,-4.61334 -5.519,-7.66019 -10.02999,-8.78003 -4.90268,-1.38646 -9.66963,-3.66003 -14.86757,-3.55652 z"
       inkscape:label="glyph_k"
       transform="translate(1.4583331e-6)" />
  </g>
</svg>
