<?xml version="1.0" encoding="UTF-8" standalone="no"?>
<!-- Created with Inkscape (http://www.inkscape.org/) -->

<svg
   width="1595.002mm"
   height="235.98546mm"
   viewBox="0 0 1595.002 235.98546"
   version="1.1"
   id="svg1"
   sodipodi:docname="vertical_pmcp.svg"
   inkscape:version="1.3 (0e150ed6c4, 2023-07-21)"
   xmlns:inkscape="http://www.inkscape.org/namespaces/inkscape"
   xmlns:sodipodi="http://sodipodi.sourceforge.net/DTD/sodipodi-0.dtd"
   xmlns="http://www.w3.org/2000/svg"
   xmlns:svg="http://www.w3.org/2000/svg">
  <sodipodi:namedview
     id="namedview1"
     pagecolor="#ffffff"
     bordercolor="#000000"
     borderopacity="0.25"
     inkscape:showpageshadow="2"
     inkscape:pageopacity="0.0"
     inkscape:pagecheckerboard="0"
     inkscape:deskcolor="#d1d1d1"
     inkscape:document-units="mm"
     inkscape:zoom="0.61858946"
     inkscape:cx="5274.0957"
     inkscape:cy="375.8551"
     inkscape:window-width="1280"
     inkscape:window-height="729"
     inkscape:window-x="-8"
     inkscape:window-y="-8"
     inkscape:window-maximized="1"
     inkscape:current-layer="layer1" />
  <defs
     id="defs1" />
  <g
     inkscape:label="Layer 1"
     inkscape:groupmode="layer"
     id="layer1"
     transform="translate(704.99163,-261.35545)">
   <path
       id="path7"
       style="fill:#00ffff;fill-opacity:0.533333;stroke:#000000;stroke-width:1"
       inkscape:label="glyph_l"
       d="m 434.84215,319.35966 c -3.86873,0.0347 -7.68418,0.63433 -10.75076,3.144 -1.83344,2.12843 -4.3495,4.82759 -3.84679,7.82174 l 2.87682,22.76864 c 0.80987,-4.48311 3.63396,-9.09282 8.42895,-9.96219 6.09025,-1.18644 12.62555,-0.67306 18.40662,1.59164 1.3617,0.60327 2.59848,1.46488 3.63131,2.51302 -1.67332,3.16457 -3.98275,5.9906 -6.78305,8.184 -1.44177,1.01588 -3.14952,1.9468 -4.92993,2.49029 -1.59635,-0.40068 -3.25842,-0.83946 -4.74042,-0.91697 -3.3974,-0.074 -3.12787,0.61382 -3.42049,3.74877 -0.6163,6.48187 -1.96701,12.88814 -4.13963,19.03198 0.006,3.44855 5.52988,2.03854 8.0424,2.89233 1.79094,-0.0849 3.50331,-0.45484 5.13457,-1.03198 0.99117,0.18981 1.96891,0.40313 2.90318,0.58033 1.57831,0.36182 3.14991,1.01087 4.58784,1.88619 -4.64082,3.96326 -11.13876,6.01884 -16.98863,3.7021 -4.63406,-1.90333 -8.71482,-5.49267 -10.6779,-10.15391 -0.5421,-2.15771 0.3095,0.0749 -0.34779,1.4578 l -3.42769,22.02449 c 2.0769,2.11381 3.68978,4.9189 6.35982,6.55981 5.63164,4.39316 13.47843,5.9711 20.19153,3.24786 5.84897,-2.36268 11.02392,-6.84078 13.78882,-12.54342 1.32225,-3.52896 1.87957,-7.2988 1.22525,-11.0355 -0.28523,-7.75061 0.30464,-14.41541 -4.12533,-20.85299 3.61065,-8.10942 4.35169,-17.4851 4.02249,-26.186 -0.12292,-4.66686 0.35487,-9.68308 -2.36574,-13.78676 -3.43976,-5.34673 -10.33521,-6.44516 -16.18455,-6.91792 -2.20953,-0.0957 -4.54965,-0.27819 -6.8709,-0.25735 z m -11.7209,33.73438 c -9e-5,5.2e-4 -4.2e-4,10e-4 -5.1e-4,0.002 h 5.1e-4 z"
       sodipodi:nodetypes="sccccccccsscccccccccccccccccscccc" />
  </g>
</svg>
