<?xml version="1.0" encoding="UTF-8" standalone="no"?>
<!-- Created with Inkscape (http://www.inkscape.org/) -->

<svg
   width="1595.002mm"
   height="235.98546mm"
   viewBox="0 0 1595.002 235.98546"
   version="1.1"
   id="svg1"
   sodipodi:docname="vertical_pmcp.svg"
   inkscape:version="1.3 (0e150ed6c4, 2023-07-21)"
   xmlns:inkscape="http://www.inkscape.org/namespaces/inkscape"
   xmlns:sodipodi="http://sodipodi.sourceforge.net/DTD/sodipodi-0.dtd"
   xmlns="http://www.w3.org/2000/svg"
   xmlns:svg="http://www.w3.org/2000/svg">
  <sodipodi:namedview
     id="namedview1"
     pagecolor="#ffffff"
     bordercolor="#000000"
     borderopacity="0.25"
     inkscape:showpageshadow="2"
     inkscape:pageopacity="0.0"
     inkscape:pagecheckerboard="0"
     inkscape:deskcolor="#d1d1d1"
     inkscape:document-units="mm"
     inkscape:zoom="0.61858946"
     inkscape:cx="5274.0957"
     inkscape:cy="375.8551"
     inkscape:window-width="1280"
     inkscape:window-height="729"
     inkscape:window-x="-8"
     inkscape:window-y="-8"
     inkscape:window-maximized="1"
     inkscape:current-layer="layer1" />
  <defs
     id="defs1" />
  <g
     inkscape:label="Layer 1"
     inkscape:groupmode="layer"
     id="layer1"
     transform="translate(704.99163,-261.35545)">
<path
       id="path15"
       style="fill:#00ffff;fill-opacity:0.533333;stroke:#000000;stroke-width:1"
       d="m 106.51077,261.86653 c -6.908004,0.0858 -14.229024,4.55753 -16.044494,11.45666 0.180666,7.31675 -0.758262,14.64564 -0.416784,21.93908 0.225038,2.92334 0.670602,4.70948 2.071834,1.11847 3.312737,-6.0796 9.088204,-12.38683 16.725224,-11.20401 4.51909,0.0359 6.29446,2.88408 3.34855,6.49576 -8.29636,17.70874 -9.50233,15.22132 -19.557109,33.53035 -1.278656,2.32834 -2.918418,4.55024 -4.197077,6.88628 -5.775238,9.82675 -10.620634,20.78694 -10.03087,32.44056 0.493304,10.15644 -0.771078,20.51107 2.112212,30.4145 1.562053,5.11096 4.159363,10.22951 8.176115,13.8207 5.361505,3.97288 12.472939,3.44484 18.785619,3.28977 7.3957,-1.11926 13.44282,-7.95509 13.41452,-15.49802 0.0445,-13.63211 1.73339,-27.81497 -3.41234,-40.8208 -3.32368,-8.8395 -7.89945,-17.15351 -13.04194,-25.0585 6.25518,-10.86144 13.37573,-21.63855 16.27395,-33.99069 -0.0844,-8.90306 0.47026,-17.84513 -0.0968,-26.72302 -1.23412,-6.20213 -8.65333,-8.17306 -14.11057,-8.09709 z m -10.493928,82.93396 c 4.883158,8.9958 11.848008,16.79597 15.751188,26.36362 1.03444,3.87514 5.23657,8.74834 2.68369,12.36223 -3.58361,4.91242 -10.0957,5.62966 -15.650503,4.54401 -5.600216,-0.29711 -10.190543,-4.22082 -12.38194,-9.2291 -3.795281,-5.33849 -2.357852,-11.58523 0.566591,-16.98651 2.558043,-5.91538 5.680157,-11.55583 9.030974,-17.05425 z"
       sodipodi:nodetypes="scccccsccccccccccssccccccc"
       inkscape:label="glyph_m"
       transform="translate(1.4583331e-6)" />
  </g>
</svg>
