<?xml version="1.0" encoding="UTF-8" standalone="no"?>
<!-- Created with Inkscape (http://www.inkscape.org/) -->

<svg
   width="1595.002mm"
   height="235.98546mm"
   viewBox="0 0 1595.002 235.98546"
   version="1.1"
   id="svg1"
   sodipodi:docname="vertical_pmcp.svg"
   inkscape:version="1.3 (0e150ed6c4, 2023-07-21)"
   xmlns:inkscape="http://www.inkscape.org/namespaces/inkscape"
   xmlns:sodipodi="http://sodipodi.sourceforge.net/DTD/sodipodi-0.dtd"
   xmlns="http://www.w3.org/2000/svg"
   xmlns:svg="http://www.w3.org/2000/svg">
  <sodipodi:namedview
     id="namedview1"
     pagecolor="#ffffff"
     bordercolor="#000000"
     borderopacity="0.25"
     inkscape:showpageshadow="2"
     inkscape:pageopacity="0.0"
     inkscape:pagecheckerboard="0"
     inkscape:deskcolor="#d1d1d1"
     inkscape:document-units="mm"
     inkscape:zoom="0.61858946"
     inkscape:cx="5274.0957"
     inkscape:cy="375.8551"
     inkscape:window-width="1280"
     inkscape:window-height="729"
     inkscape:window-x="-8"
     inkscape:window-y="-8"
     inkscape:window-maximized="1"
     inkscape:current-layer="layer1" />
  <defs
     id="defs1" />
  <g
     inkscape:label="Layer 1"
     inkscape:groupmode="layer"
     id="layer1"
     transform="translate(704.99163,-261.35545)">
    <path
       id="path27"
       style="fill:#00ffff;fill-opacity:0.533333;stroke:#000000;stroke-width:1"
       d="m -525.20141,317.8334 c -0.63782,4.02677 -2.34494,-1.54943 -2.98275,2.47734 -0.52921,3.34109 0.4386,10.3178 -0.0906,13.65888 0.037,-1.88779 0.0612,-8.63959 -0.154,-3.46469 -0.55314,25.00063 -4.22165,49.8852 -3.15206,74.92427 0.10991,2.85619 -0.20025,9.69789 4.51522,6.06022 1.62907,-6.82761 2.85963,-11.83021 5.12671,-18.50876 1.423,-3.8998 1.89277,-9.20961 6.49156,-10.73392 2.80167,-0.5774 9.12597,-4.53259 7.50142,0.87493 -0.16604,8.20849 -0.41109,16.58618 1.48039,24.62722 1.31963,4.18563 3.80867,5.75447 9.15569,5.13409 7.37001,-1.34108 12.08019,-3.45503 16.82026,-8.65505 8.40575,-9.15546 12.53783,-21.30814 14.6924,-33.33833 1.44814,-10.31096 0.63799,-20.75921 0.45767,-31.11944 -0.79698,-7.46632 -4.69622,-14.24314 -10.07329,-19.37953 -2.87797,-4.4788 -9.19054,-5.23593 -13.345,-2.09602 -4.30222,2.9793 -8.45489,6.52181 -10.40712,11.52798 -2.71369,4.57201 -3.94583,9.82992 -4.56303,15.05128 -0.99866,3.69524 2.42439,10.65963 -3.35273,10.61383 -4.69494,1.79061 -10.15952,1.99273 -14.20303,5.18758 -3.31564,3.97693 -3.47592,9.57049 -5.11465,14.32286 1.24596,-17.51751 1.97294,-35.08454 1.44542,-52.64517 0.0281,-3.49591 -0.36092,-1.02595 -0.24847,-4.51957 z m 42.15179,23.04433 c 4.24604,0.58427 6.7548,4.83132 9.3511,7.8633 2.45101,3.34123 4.48607,7.32978 2.36836,11.36569 -3.13338,12.18377 -10.65243,22.98752 -20.31676,30.91909 -2.70788,2.32062 -7.71488,3.60327 -9.41457,-0.58062 -3.13481,-3.96545 -0.9202,-8.72557 -0.0783,-13.07267 1.51545,-5.19147 0.60035,-10.71403 2.07987,-15.91905 0.59778,-4.82588 3.14161,-9.14519 5.5861,-13.24199 2.96713,-2.86051 6.06319,-6.82631 10.42422,-7.33375 z m -20.73517,11.73675 c 0.50267,1.84114 -0.0182,3.27255 0,0 z m 3.82736,14.06735 c 0.006,1.62374 -0.006,3.04709 -0.009,0.56938 z"
       sodipodi:nodetypes="cscccccccccccccccccccccscccccccssccccc"
       inkscape:label="glyph_n"
       transform="translate(1.4583331e-6)" />
    
  </g>
</svg>
