<?xml version="1.0" encoding="UTF-8" standalone="no"?>
<!-- Created with Inkscape (http://www.inkscape.org/) -->

<svg
   width="65mm"
   height="235.985mm"
   viewBox="1179 0 65.000002 235.985"
   version="1.1"
   id="svg1"
   sodipodi:docname="t.svg"
   inkscape:version="1.3 (0e150ed6c4, 2023-07-21)"
   xmlns:inkscape="http://www.inkscape.org/namespaces/inkscape"
   xmlns:sodipodi="http://sodipodi.sourceforge.net/DTD/sodipodi-0.dtd"
   xmlns="http://www.w3.org/2000/svg"
   xmlns:svg="http://www.w3.org/2000/svg">
  <sodipodi:namedview
     id="namedview1"
     pagecolor="#ffffff"
     bordercolor="#000000"
     borderopacity="0.25"
     inkscape:showpageshadow="2"
     inkscape:pageopacity="0.0"
     inkscape:pagecheckerboard="0"
     inkscape:deskcolor="#d1d1d1"
     inkscape:document-units="mm"
     inkscape:zoom="0.2187044"
     inkscape:cx="587.55105"
     inkscape:cy="240.05004"
     inkscape:window-width="1280"
     inkscape:window-height="729"
     inkscape:window-x="-8"
     inkscape:window-y="-8"
     inkscape:window-maximized="1"
     inkscape:current-layer="layer1" />
  <defs
     id="defs1" />
  <g
     inkscape:label="Layer 1"
     inkscape:groupmode="layer"
     id="layer1"
     transform="translate(704.99163,-261.35545)">
    <path
       id="path8"
       style="fill:#00ffff;fill-opacity:0.533333;stroke:#000000;stroke-width:1"
       d="m 489.53391,315.20798 c -1.07278,8.22898 -2.49606,16.45652 -3.35014,24.68641 1.34086,10.91126 0.99027,21.93326 1.55586,32.89306 0.13631,6.54868 -1.38027,12.99773 -0.99215,19.54709 -0.002,6.18788 -0.0264,12.37617 0.0654,18.56359 3.78725,0.15901 6.50223,-3.26658 7.82722,-6.45934 6.61993,-14.02574 13.0574,-28.14287 20.17775,-41.92646 2.44134,-4.89763 4.93482,-9.77132 7.60813,-14.54716 -0.11642,15.06473 -0.33672,30.16244 0.97489,45.18712 -0.38295,4.88444 -0.13917,9.85556 0.12493,14.68611 0.73868,1.81811 4.96525,5.16271 3.98971,0.93537 -0.35922,-1.9881 -0.0344,-8.11424 -0.0365,-7.03721 0.94459,-17.30923 -1.45525,-34.58081 -1.18351,-51.88266 0.27032,-3.89857 0.0365,-7.8158 0.404,-11.7078 0.0651,-1.89059 0.59517,-6.15826 0.93842,-9.00451 0.33666,-3.20186 0.42274,-6.50894 -0.51747,-9.62346 -3.7469,-3.64693 -6.4695,3.0157 -7.7058,5.8739 -5.41092,11.37791 -10.39364,22.96065 -16.25831,34.1196 -3.55496,7.04956 -6.78273,14.28401 -10.6466,21.1658 -2.32805,1.3668 -0.48726,-4.42798 -1.0705,-5.84457 -0.17558,-18.9578 -0.55766,-37.92416 -1.58503,-56.85496 -0.0884,-0.9253 -0.19326,-1.84917 -0.32024,-2.76992 z m 37.90001,87.81944 c -0.0103,1.44883 -0.013,6.95647 0.005,5.70831 8.6e-4,-1.90277 -0.001,-3.80554 -0.005,-5.70831 z"
       sodipodi:nodetypes="sccccccccccccccccccccssccc"
       inkscape:label="glyph_t" />
  </g>
</svg>
