<?xml version="1.0" encoding="UTF-8" standalone="no"?>
<!-- Created with Inkscape (http://www.inkscape.org/) -->

<svg
   width="1595.002mm"
   height="235.98546mm"
   viewBox="0 0 1595.002 235.98546"
   version="1.1"
   id="svg1"
   sodipodi:docname="vertical_pmcp.svg"
   inkscape:version="1.3 (0e150ed6c4, 2023-07-21)"
   xmlns:inkscape="http://www.inkscape.org/namespaces/inkscape"
   xmlns:sodipodi="http://sodipodi.sourceforge.net/DTD/sodipodi-0.dtd"
   xmlns="http://www.w3.org/2000/svg"
   xmlns:svg="http://www.w3.org/2000/svg">
  <sodipodi:namedview
     id="namedview1"
     pagecolor="#ffffff"
     bordercolor="#000000"
     borderopacity="0.25"
     inkscape:showpageshadow="2"
     inkscape:pageopacity="0.0"
     inkscape:pagecheckerboard="0"
     inkscape:deskcolor="#d1d1d1"
     inkscape:document-units="mm"
     inkscape:zoom="0.61858946"
     inkscape:cx="5274.0957"
     inkscape:cy="375.8551"
     inkscape:window-width="1280"
     inkscape:window-height="729"
     inkscape:window-x="-8"
     inkscape:window-y="-8"
     inkscape:window-maximized="1"
     inkscape:current-layer="layer1" />
  <defs
     id="defs1" />
  <g
     inkscape:label="Layer 1"
     inkscape:groupmode="layer"
     id="layer1"
     transform="translate(704.99163,-261.35545)">
  <path
       id="path6"
       style="fill:#00ffff;fill-opacity:0.533333;stroke:#000000;stroke-width:1"
       d="M 356.11983 320.06143 C 353.61935 320.04412 351.1203 320.17356 348.6376 320.5105 C 345.69105 320.94219 342.74498 321.46633 339.90325 322.37653 C 337.95164 323.04283 336.01255 323.76812 334.38782 325.08128 C 333.13143 326.1402 332.01732 327.33772 330.85057 328.49037 L 333.16102 352.89818 C 333.90038 351.43017 335.0066 350.21073 336.16291 349.06224 C 337.48387 347.73242 339.1392 346.87087 340.8143 346.07844 C 343.40449 344.85578 346.20457 344.22319 349.00915 343.72613 C 352.15551 343.19865 355.33479 343.16428 358.51038 343.32874 C 361.54814 343.46438 364.53163 344.03034 367.45454 344.84234 C 370.58287 345.64558 373.41299 347.15037 376.10052 348.90153 C 378.89425 350.65435 381.15905 352.93507 383.10164 355.57244 C 384.34918 357.39584 385.23162 359.395 385.89992 361.47234 C 386.03942 361.90595 386.1503 362.34896 386.27251 362.78854 C 385.75329 365.01394 385.10157 367.20926 384.35428 369.37211 C 383.11687 372.8669 381.45041 376.16783 379.39748 379.24851 C 377.91063 381.4283 376.16141 383.38225 374.13682 385.06831 C 372.47479 386.38679 370.57572 387.29231 368.59142 388.00302 C 366.88103 388.54334 365.10362 388.82745 363.32662 389.03965 C 361.58396 389.27461 359.83677 389.17943 358.09283 389.04223 C 356.41862 388.84392 354.74904 388.6144 353.07144 388.44433 C 351.65206 388.27914 350.22136 388.23728 348.79366 388.21231 C 347.74764 388.14341 346.71098 388.01257 345.67757 387.84644 C 344.97701 387.72378 344.27346 387.67335 343.58261 387.50382 C 343.11197 387.41072 342.64309 387.2941 342.16409 387.25474 C 341.89374 387.21034 341.61951 387.22976 341.34812 387.19996 C 341.26802 387.19096 341.18973 387.17309 341.11144 387.15449 C 341.10644 387.1537 341.10239 387.15242 341.09749 387.15242 L 341.16467 412.14315 C 341.22391 412.12166 341.2852 412.0995 341.35019 412.09509 C 341.56332 412.06859 341.77747 412.08412 341.99149 412.07132 C 342.38021 412.09092 342.76984 412.09122 343.15421 412.16692 C 343.89138 412.25582 344.63379 412.25393 345.37268 412.32763 C 346.5026 412.43171 347.63944 412.4457 348.77299 412.48369 C 350.13687 412.4829 351.50017 412.48291 352.86318 412.5457 C 354.5528 412.66566 356.22861 412.91265 357.91765 413.04128 C 359.81136 413.16967 361.71439 413.23152 363.60568 413.02423 C 365.56998 412.79859 367.51454 412.43142 369.40687 411.84807 C 371.64665 411.05557 373.78237 410.0385 375.69951 408.61571 C 378.0792 406.86514 380.05989 404.72448 381.65935 402.23057 C 383.83385 398.99547 385.71736 395.57224 387.13551 391.93404 C 388.68226 387.76664 389.87427 383.46704 390.57819 379.07333 C 391.85281 369.33564 391.11365 360.97086 391.03191 350.20842 C 391.02391 349.08512 390.75049 346.98107 390.55804 345.86709 C 390.43759 345.16986 390.27463 344.48082 390.13274 343.78763 C 389.07858 339.82003 387.7537 335.89081 385.20126 332.6064 C 382.9328 329.80599 380.50359 327.70778 377.39191 325.86934 C 374.44707 324.08915 371.40545 322.42878 368.05812 321.53472 C 364.96269 320.75239 361.81385 320.26442 358.61993 320.12551 C 357.78672 320.08941 356.95332 320.0672 356.11983 320.06143 z M 341.16467 412.14315 C 341.16351 412.14357 341.16221 412.14376 341.16105 412.14418 C 341.16205 412.14518 341.16367 412.14597 341.16467 412.14676 L 341.16467 412.14315 z "
       inkscape:label="glyph_u" />
  </g>
</svg>
