<?xml version="1.0" encoding="UTF-8" standalone="no"?>
<!-- Created with Inkscape (http://www.inkscape.org/) -->

<svg
   width="75mm"
   height="235.985mm"
   viewBox="1028 0 75.000002 235.985"
   version="1.1"
   id="svg1"
   sodipodi:docname="u.svg"
   inkscape:version="1.3 (0e150ed6c4, 2023-07-21)"
   xmlns:inkscape="http://www.inkscape.org/namespaces/inkscape"
   xmlns:sodipodi="http://sodipodi.sourceforge.net/DTD/sodipodi-0.dtd"
   xmlns="http://www.w3.org/2000/svg"
   xmlns:svg="http://www.w3.org/2000/svg">
  <sodipodi:namedview
     id="namedview1"
     pagecolor="#ffffff"
     bordercolor="#000000"
     borderopacity="0.25"
     inkscape:showpageshadow="2"
     inkscape:pageopacity="0.0"
     inkscape:pagecheckerboard="0"
     inkscape:deskcolor="#d1d1d1"
     inkscape:document-units="mm"
     inkscape:zoom="0.30929473"
     inkscape:cx="379.89655"
     inkscape:cy="502.75671"
     inkscape:window-width="1280"
     inkscape:window-height="729"
     inkscape:window-x="-8"
     inkscape:window-y="-8"
     inkscape:window-maximized="1"
     inkscape:current-layer="layer1" />
  <defs
     id="defs1" />
  <g
     inkscape:label="Layer 1"
     inkscape:groupmode="layer"
     id="layer1"
     transform="translate(704.99163,-261.35545)">
    <path
       id="path6"
       style="fill:#00ffff;fill-opacity:0.533333;stroke:#000000;stroke-width:1"
       d="m 356.11983,320.06143 c -2.50048,-0.0173 -4.99953,0.11213 -7.48223,0.44907 -2.94655,0.43169 -5.89262,0.95583 -8.73435,1.86603 -1.95161,0.6663 -3.8907,1.39159 -5.51543,2.70475 -1.25639,1.05892 -2.3705,2.25644 -3.53725,3.40909 l 2.31045,24.40781 c 0.73936,-1.46801 1.84558,-2.68745 3.00189,-3.83594 1.32096,-1.32982 2.97629,-2.19137 4.65139,-2.9838 2.59019,-1.22266 5.39027,-1.85525 8.19485,-2.35231 3.14636,-0.52748 6.32564,-0.56185 9.50123,-0.39739 3.03776,0.13564 6.02125,0.7016 8.94416,1.5136 3.12833,0.80324 5.95845,2.30803 8.64598,4.05919 2.79373,1.75282 5.05853,4.03354 7.00112,6.67091 1.24754,1.8234 2.12998,3.82256 2.79828,5.8999 0.1395,0.43361 0.25038,0.87662 0.37259,1.3162 -0.51922,2.2254 -1.17094,4.42072 -1.91823,6.58357 -1.23741,3.49479 -2.90387,6.79572 -4.9568,9.8764 -1.48685,2.17979 -3.23607,4.13374 -5.26066,5.8198 -1.66203,1.31848 -3.5611,2.224 -5.5454,2.93471 -1.71039,0.54032 -3.4878,0.82443 -5.2648,1.03663 -1.74266,0.23496 -3.48985,0.13978 -5.23379,0.003 -1.67421,-0.19831 -3.34379,-0.42783 -5.02139,-0.5979 -1.41938,-0.16519 -2.85008,-0.20705 -4.27778,-0.23202 -1.04602,-0.0689 -2.08268,-0.19974 -3.11609,-0.36587 -0.70056,-0.12266 -1.40411,-0.17309 -2.09496,-0.34262 -0.47064,-0.0931 -0.93952,-0.20972 -1.41852,-0.24908 -0.27035,-0.0444 -0.54458,-0.025 -0.81597,-0.0548 -0.0801,-0.009 -0.15839,-0.0269 -0.23668,-0.0455 -0.005,-7.9e-4 -0.009,-0.002 -0.014,-0.002 l 0.0672,24.99073 c 0.0592,-0.0215 0.12053,-0.0437 0.18552,-0.0481 0.21313,-0.0265 0.42728,-0.011 0.6413,-0.0238 0.38872,0.0196 0.77835,0.0199 1.16272,0.0956 0.73717,0.0889 1.47958,0.087 2.21847,0.16071 1.12992,0.10408 2.26676,0.11807 3.40031,0.15606 1.36388,-7.9e-4 2.72718,-7.8e-4 4.09019,0.062 1.68962,0.11996 3.36543,0.36695 5.05447,0.49558 1.89371,0.12839 3.79674,0.19024 5.68803,-0.017 1.9643,-0.22564 3.90886,-0.59281 5.80119,-1.17616 2.23978,-0.7925 4.3755,-1.80957 6.29264,-3.23236 2.37969,-1.75057 4.36038,-3.89123 5.95984,-6.38514 2.1745,-3.2351 4.05801,-6.65833 5.47616,-10.29653 1.54675,-4.1674 2.73876,-8.467 3.44268,-12.86071 1.27462,-9.73769 0.53546,-18.10247 0.45372,-28.86491 -0.008,-1.1233 -0.28142,-3.22735 -0.47387,-4.34133 -0.12045,-0.69723 -0.28341,-1.38627 -0.4253,-2.07946 -1.05416,-3.9676 -2.37904,-7.89682 -4.93148,-11.18123 -2.26846,-2.80041 -4.69767,-4.89862 -7.80935,-6.73706 -2.94484,-1.78019 -5.98646,-3.44056 -9.33379,-4.33462 -3.09543,-0.78233 -6.24427,-1.2703 -9.43819,-1.40921 -0.83321,-0.0361 -1.66661,-0.0583 -2.5001,-0.0641 z m -14.95516,92.08172 c -10e-4,4.2e-4 -0.002,6.1e-4 -0.004,0.001 0.001,10e-4 0.003,0.002 0.004,0.003 z"
       inkscape:label="glyph_u" />
  </g>
</svg>
