<?xml version="1.0" encoding="UTF-8" standalone="no"?>
<!-- Created with Inkscape (http://www.inkscape.org/) -->

<svg
   width="45mm"
   height="235.985mm"
   viewBox="904 0 45.000001 235.985"
   version="1.1"
   id="svg1"
   sodipodi:docname="w.svg"
   inkscape:version="1.3 (0e150ed6c4, 2023-07-21)"
   xmlns:inkscape="http://www.inkscape.org/namespaces/inkscape"
   xmlns:sodipodi="http://sodipodi.sourceforge.net/DTD/sodipodi-0.dtd"
   xmlns="http://www.w3.org/2000/svg"
   xmlns:svg="http://www.w3.org/2000/svg">
  <sodipodi:namedview
     id="namedview1"
     pagecolor="#ffffff"
     bordercolor="#000000"
     borderopacity="0.25"
     inkscape:showpageshadow="2"
     inkscape:pageopacity="0.0"
     inkscape:pagecheckerboard="0"
     inkscape:deskcolor="#d1d1d1"
     inkscape:document-units="mm"
     inkscape:zoom="0.4374088"
     inkscape:cx="156.60407"
     inkscape:cy="426.37459"
     inkscape:window-width="1280"
     inkscape:window-height="729"
     inkscape:window-x="-8"
     inkscape:window-y="-8"
     inkscape:window-maximized="1"
     inkscape:current-layer="layer1" />
  <defs
     id="defs1" />
  <g
     inkscape:label="Layer 1"
     inkscape:groupmode="layer"
     id="layer1"
     transform="translate(704.99163,-261.35545)">
    <path
       id="path2"
       style="fill:#00ffff;fill-opacity:0.533333;stroke:#000000;stroke-width:1"
       d="m 208.94277,319.42012 c -2.19672,0.33075 -5.85151,1.23771 -6.66662,2.17703 0.22977,6.57927 0.45955,13.15854 0.68932,19.7378 0.0551,1.57686 0.11014,3.15371 0.16521,4.73056 1.95809,-1.2281 0.63847,3.15819 0.97086,4.47053 -0.26425,9.64161 -0.53109,19.39931 1.63287,28.86934 1.44052,5.87308 1.61652,12.01354 3.43532,17.79019 1.68494,4.84791 4.06708,10.11256 9.17579,12.12227 3.66455,2.11669 8.37087,3.07836 12.1991,0.78466 3.37281,-1.90566 5.85967,-5.09581 7.96563,-8.27628 2.19913,-4.47524 3.11046,-9.47394 2.82294,-14.44084 -0.0224,-11.05784 0.0524,-22.12123 -0.0749,-33.17531 -0.47993,-6.52055 -1.51782,-13.08627 -3.69689,-19.2728 -1.9207,-3.4925 -3.04277,-7.70451 -6.27739,-10.2648 -4.346,-3.16719 -9.84498,-3.99798 -14.98978,-5.07405 -2.43977,-0.31088 -4.90253,-0.0716 -7.35142,-0.1783 z m -5.81205,26.6454 c -0.24918,-0.0514 0.0161,0.0734 0,0 z m 11.52281,-1.91099 c 4.3352,0.10993 8.55459,1.62055 12.5194,3.25503 3.66301,1.9089 4.86039,6.14755 6.68595,9.55021 1.93637,5.04467 2.71849,10.42412 3.38448,15.75789 -0.86827,5.17293 -3.69369,9.96469 -7.86646,13.13964 -3.98912,2.48796 -9.13358,0.33423 -12.34114,-2.49049 -4.01003,-4.48035 -5.1348,-10.66772 -6.0821,-16.41872 l -1.78607,-10.0933 c 0.14206,-2.85366 2.91437,-5.02376 2.57128,-7.76499 -0.17169,-1.64328 -0.34339,-3.28656 -0.51508,-4.92984 1.14329,0.006 2.28662,0.023 3.42974,-0.005 z"
       sodipodi:nodetypes="scsccccccccccccsscccccccccccccc"
       inkscape:label="glyph_w"
       transform="translate(1.4583331e-6)" />
  </g>
</svg>
