<?xml version="1.0" encoding="UTF-8" standalone="no"?>
<!-- Created with Inkscape (http://www.inkscape.org/) -->

<svg
   width="67mm"
   height="235.985mm"
   viewBox="488 0 67.000002 235.985"
   version="1.1"
   id="svg1"
   sodipodi:docname="z.svg"
   inkscape:version="1.3 (0e150ed6c4, 2023-07-21)"
   xmlns:inkscape="http://www.inkscape.org/namespaces/inkscape"
   xmlns:sodipodi="http://sodipodi.sourceforge.net/DTD/sodipodi-0.dtd"
   xmlns="http://www.w3.org/2000/svg"
   xmlns:svg="http://www.w3.org/2000/svg">
  <sodipodi:namedview
     id="namedview1"
     pagecolor="#ffffff"
     bordercolor="#000000"
     borderopacity="0.25"
     inkscape:showpageshadow="2"
     inkscape:pageopacity="0.0"
     inkscape:pagecheckerboard="0"
     inkscape:deskcolor="#d1d1d1"
     inkscape:document-units="mm"
     inkscape:zoom="0.4374088"
     inkscape:cx="3.4292863"
     inkscape:cy="501.81889"
     inkscape:window-width="1280"
     inkscape:window-height="729"
     inkscape:window-x="-8"
     inkscape:window-y="-8"
     inkscape:window-maximized="1"
     inkscape:current-layer="layer1" />
  <defs
     id="defs1" />
  <g
     inkscape:label="Layer 1"
     inkscape:groupmode="layer"
     id="layer1"
     transform="translate(704.99163,-261.35545)">
    <g
       id="g35"
       inkscape:label="glyph_z"
       transform="translate(1.4583331e-6)">
      <path
         id="path22"
         style="fill:#00ffff;fill-opacity:0.533333;stroke:#000000;stroke-width:1"
         d="m -202.86001,318.6088 c -1.12872,17.70102 -5.1018,35.0918 -5.99107,52.81802 -1.50988,13.58436 -0.71792,27.24692 -0.92372,40.87601 4.27827,1.07266 6.44505,-3.73275 9.06779,-6.15716 6.5871,-7.73006 11.26852,-16.82168 16.91815,-25.21686 5.76344,-8.80717 11.57934,-17.66002 15.62336,-27.42205 1.93355,-2.83056 0.69076,5.0932 1.14931,6.64593 0.0248,3.90423 -0.004,-2.96155 -0.0122,-4.1836 -0.0432,-1.72237 0.0533,-5.89054 0.0808,-1.83085 0.11255,14.96626 -0.71884,30.07383 2.11116,44.86392 l 1.08777,9.70605 c 0.0509,2.26057 2.1188,2.96899 3.79719,4.1951 -0.16122,-10.7568 1.30113,-21.62025 -0.76302,-32.27905 -1.03305,-8.84128 -2.77442,-17.62871 -2.62525,-26.57018 l -0.42127,-29.94019 -4.4093,-3.21307 c -1.23778,-3.92482 -3.48706,11.41711 -4.6432,12.71787 -4.01706,9.70384 -10.01397,18.35773 -15.36577,27.33903 -5.14003,8.01345 -9.64082,16.63532 -16.46347,23.39229 0.93118,-14.08546 3.37246,-28.00505 5.27668,-41.97677 -1.16489,-7.92117 -2.32753,-15.8448 -3.49374,-23.76444 z m 35.85311,43.65729 c 0.0139,2.90349 0.0199,9.58516 0.0332,10.19995 0.0121,-3.40001 5e-5,-6.80009 -0.0332,-10.19995 z"
         sodipodi:nodetypes="ccccccccccccccccccccccccc" />
      <path
         style="fill:#00ffff;fill-opacity:0.533333;stroke:#000000;stroke-width:1"
         id="path23"
         d="m -200.72167,431.64371 c 1.62505,3.95327 2.83408,8.22186 5.81672,11.42778 3.02913,3.20263 6.34626,6.32181 10.34367,8.27206 3.08837,1.57565 6.48269,-0.51325 8.58765,-2.77639 3.46822,-3.82789 5.87109,-8.46289 8.41079,-12.92333 1.00527,-2.03943 1.97494,-4.17859 2.92676,-6.19162 -1.28799,-8.1789 -2.57598,-16.35781 -3.86397,-24.53671 0.55199,2.30034 -1.06803,4.51369 -1.79663,6.64756 -1.93863,4.1001 -3.86848,8.2386 -6.36962,12.03311 -1.39639,1.84928 -3.17362,4.21515 -5.74543,4.10174 -4.00504,-1.32254 -7.1763,-4.43058 -9.79549,-7.6313 -2.87273,-3.68341 -4.33571,-8.19981 -5.50524,-12.65912 -1.00307,8.07874 -2.00614,16.15748 -3.00921,24.23622 z" />
    </g>
  </g>
</svg>
