<?xml version="1.0" encoding="UTF-8" standalone="no"?>
<!-- Created with Inkscape (http://www.inkscape.org/) -->

<svg
   width="1595.002mm"
   height="235.98546mm"
   viewBox="0 0 1595.002 235.98546"
   version="1.1"
   id="svg1"
   sodipodi:docname="vertical_pmcp.svg"
   inkscape:version="1.3 (0e150ed6c4, 2023-07-21)"
   xmlns:inkscape="http://www.inkscape.org/namespaces/inkscape"
   xmlns:sodipodi="http://sodipodi.sourceforge.net/DTD/sodipodi-0.dtd"
   xmlns="http://www.w3.org/2000/svg"
   xmlns:svg="http://www.w3.org/2000/svg">
  <sodipodi:namedview
     id="namedview1"
     pagecolor="#ffffff"
     bordercolor="#000000"
     borderopacity="0.25"
     inkscape:showpageshadow="2"
     inkscape:pageopacity="0.0"
     inkscape:pagecheckerboard="0"
     inkscape:deskcolor="#d1d1d1"
     inkscape:document-units="mm"
     inkscape:zoom="1.7496352"
     inkscape:cx="1456.8751"
     inkscape:cy="322.06714"
     inkscape:window-width="1280"
     inkscape:window-height="729"
     inkscape:window-x="-8"
     inkscape:window-y="-8"
     inkscape:window-maximized="1"
     inkscape:current-layer="layer1" />
  <defs
     id="defs1" />
  <g
     inkscape:label="Layer 1"
     inkscape:groupmode="layer"
     id="layer1"
     transform="translate(704.99163,-261.35545)">
    <rect
       style="fill:#00ff00;fill-opacity:0.533333;stroke:none;stroke-width:2.19713"
       id="rect2"
       width="52.019836"
       height="1592.8048"
       x="265.81357"
       y="-888.91174"
       ry="4.1590033"
       transform="rotate(90)"
       inkscape:label="ascend" />
    <rect
       style="fill:#00ff00;fill-opacity:0.533333;stroke:none;stroke-width:2.27531"
       id="rect3"
       width="83.576187"
       height="1504.2527"
       x="412.62708"
       y="-800.40753"
       ry="4.3117614"
       transform="rotate(90)"
       inkscape:label="descend" />
    <g
       id="g35"
       inkscape:label="glyph_z"
       transform="translate(1.4583331e-6)">
      <path
         id="path22"
         style="fill:#00ffff;fill-opacity:0.533333;stroke:#000000;stroke-width:1"
         d="m -202.86001,318.6088 c -1.12872,17.70102 -5.1018,35.0918 -5.99107,52.81802 -1.50988,13.58436 -0.71792,27.24692 -0.92372,40.87601 4.27827,1.07266 6.44505,-3.73275 9.06779,-6.15716 6.5871,-7.73006 11.26852,-16.82168 16.91815,-25.21686 5.76344,-8.80717 11.57934,-17.66002 15.62336,-27.42205 1.93355,-2.83056 0.69076,5.0932 1.14931,6.64593 0.0248,3.90423 -0.004,-2.96155 -0.0122,-4.1836 -0.0432,-1.72237 0.0533,-5.89054 0.0808,-1.83085 0.11255,14.96626 -0.71884,30.07383 2.11116,44.86392 l 1.08777,9.70605 c 0.0509,2.26057 2.1188,2.96899 3.79719,4.1951 -0.16122,-10.7568 1.30113,-21.62025 -0.76302,-32.27905 -1.03305,-8.84128 -2.77442,-17.62871 -2.62525,-26.57018 l -0.42127,-29.94019 -4.4093,-3.21307 c -1.23778,-3.92482 -3.48706,11.41711 -4.6432,12.71787 -4.01706,9.70384 -10.01397,18.35773 -15.36577,27.33903 -5.14003,8.01345 -9.64082,16.63532 -16.46347,23.39229 0.93118,-14.08546 3.37246,-28.00505 5.27668,-41.97677 -1.16489,-7.92117 -2.32753,-15.8448 -3.49374,-23.76444 z m 35.85311,43.65729 c 0.0139,2.90349 0.0199,9.58516 0.0332,10.19995 0.0121,-3.40001 5e-5,-6.80009 -0.0332,-10.19995 z"
         sodipodi:nodetypes="ccccccccccccccccccccccccc" />
      <path
         style="fill:#00ffff;fill-opacity:0.533333;stroke:#000000;stroke-width:1"
         id="path23"
         d="m -200.72167,431.64371 c 1.62505,3.95327 2.83408,8.22186 5.81672,11.42778 3.02913,3.20263 6.34626,6.32181 10.34367,8.27206 3.08837,1.57565 6.48269,-0.51325 8.58765,-2.77639 3.46822,-3.82789 5.87109,-8.46289 8.41079,-12.92333 1.00527,-2.03943 1.97494,-4.17859 2.92676,-6.19162 -1.28799,-8.1789 -2.57598,-16.35781 -3.86397,-24.53671 0.55199,2.30034 -1.06803,4.51369 -1.79663,6.64756 -1.93863,4.1001 -3.86848,8.2386 -6.36962,12.03311 -1.39639,1.84928 -3.17362,4.21515 -5.74543,4.10174 -4.00504,-1.32254 -7.1763,-4.43058 -9.79549,-7.6313 -2.87273,-3.68341 -4.33571,-8.19981 -5.50524,-12.65912 -1.00307,8.07874 -2.00614,16.15748 -3.00921,24.23622 z" />
    </g>
    <path
       id="path14"
       style="fill:#00ffff;fill-opacity:0.533333;stroke:#000000;stroke-width:1"
       d="m 172.56359,319.39273 c -6.03214,0.55477 -10.4995,5.21764 -15.37819,8.32222 -5.6183,5.18361 -10.64131,11.45914 -12.51726,19.02133 -1.28891,3.21246 -3.08374,10.42076 -3.77079,11.25832 -0.49361,-12.83156 -0.6861,-25.67574 -1.81544,-38.47422 l -3.57807,24.03574 c 1.76527,11.45492 1.42391,23.12416 1.73754,34.66187 -1.21175,11.08912 -0.5918,22.25716 -0.45493,33.38152 l 5.28826,1.02757 c 0.94502,0.66085 0.19633,-13.95364 0.30982,-16.25168 -0.4538,-5.16177 -0.0314,-10.26297 1.61005,-15.19685 2.291,-6.92935 3.99743,-14.19409 7.55392,-20.60969 3.36564,-5.4872 7.89427,-10.22263 13.53022,-13.38724 4.24278,-4.37761 11.33501,-4.60646 14.5717,1.03702 5.0643,7.79227 5.91897,17.60218 5.42551,26.67399 -0.54017,9.82999 -3.7244,19.40025 -9.38947,27.47053 -7.49317,11.37951 -17.75293,20.57772 -28.61244,28.64923 -3.04624,1.07331 -3.26548,3.78062 -2.69063,6.46991 0.53223,6.98471 1.06445,13.96943 1.59668,20.95414 3.35918,-3.89161 7.77702,-6.74508 11.25304,-10.62331 5.62123,-4.80435 10.95003,-9.9264 15.53809,-15.7451 8.05469,-9.02791 14.47718,-20.06227 15.51935,-32.33434 1.32011,-11.04799 0.37735,-22.21819 0.67484,-33.31995 -0.35005,-12.96834 1.29542,-26.88255 -5.00144,-38.78457 -2.2169,-4.26688 -6.31347,-8.2372 -11.40036,-8.23644 z"
       sodipodi:nodetypes="ccccccccccccccccccccccccc"
       inkscape:label="glyph_x"
       transform="translate(1.4583331e-6)" />
    <path
       id="path2"
       style="fill:#00ffff;fill-opacity:0.533333;stroke:#000000;stroke-width:1"
       d="m 208.94277,319.42012 c -2.19672,0.33075 -5.85151,1.23771 -6.66662,2.17703 0.22977,6.57927 0.45955,13.15854 0.68932,19.7378 0.0551,1.57686 0.11014,3.15371 0.16521,4.73056 1.95809,-1.2281 0.63847,3.15819 0.97086,4.47053 -0.26425,9.64161 -0.53109,19.39931 1.63287,28.86934 1.44052,5.87308 1.61652,12.01354 3.43532,17.79019 1.68494,4.84791 4.06708,10.11256 9.17579,12.12227 3.66455,2.11669 8.37087,3.07836 12.1991,0.78466 3.37281,-1.90566 5.85967,-5.09581 7.96563,-8.27628 2.19913,-4.47524 3.11046,-9.47394 2.82294,-14.44084 -0.0224,-11.05784 0.0524,-22.12123 -0.0749,-33.17531 -0.47993,-6.52055 -1.51782,-13.08627 -3.69689,-19.2728 -1.9207,-3.4925 -3.04277,-7.70451 -6.27739,-10.2648 -4.346,-3.16719 -9.84498,-3.99798 -14.98978,-5.07405 -2.43977,-0.31088 -4.90253,-0.0716 -7.35142,-0.1783 z m -5.81205,26.6454 c -0.24918,-0.0514 0.0161,0.0734 0,0 z m 11.52281,-1.91099 c 4.3352,0.10993 8.55459,1.62055 12.5194,3.25503 3.66301,1.9089 4.86039,6.14755 6.68595,9.55021 1.93637,5.04467 2.71849,10.42412 3.38448,15.75789 -0.86827,5.17293 -3.69369,9.96469 -7.86646,13.13964 -3.98912,2.48796 -9.13358,0.33423 -12.34114,-2.49049 -4.01003,-4.48035 -5.1348,-10.66772 -6.0821,-16.41872 l -1.78607,-10.0933 c 0.14206,-2.85366 2.91437,-5.02376 2.57128,-7.76499 -0.17169,-1.64328 -0.34339,-3.28656 -0.51508,-4.92984 1.14329,0.006 2.28662,0.023 3.42974,-0.005 z"
       sodipodi:nodetypes="scsccccccccccccsscccccccccccccc"
       inkscape:label="glyph_w"
       transform="translate(1.4583331e-6)" />
    <path
       id="path6"
       style="fill:#00ffff;fill-opacity:0.533333;stroke:#000000;stroke-width:1"
       d="M 356.11983 320.06143 C 353.61935 320.04412 351.1203 320.17356 348.6376 320.5105 C 345.69105 320.94219 342.74498 321.46633 339.90325 322.37653 C 337.95164 323.04283 336.01255 323.76812 334.38782 325.08128 C 333.13143 326.1402 332.01732 327.33772 330.85057 328.49037 L 333.16102 352.89818 C 333.90038 351.43017 335.0066 350.21073 336.16291 349.06224 C 337.48387 347.73242 339.1392 346.87087 340.8143 346.07844 C 343.40449 344.85578 346.20457 344.22319 349.00915 343.72613 C 352.15551 343.19865 355.33479 343.16428 358.51038 343.32874 C 361.54814 343.46438 364.53163 344.03034 367.45454 344.84234 C 370.58287 345.64558 373.41299 347.15037 376.10052 348.90153 C 378.89425 350.65435 381.15905 352.93507 383.10164 355.57244 C 384.34918 357.39584 385.23162 359.395 385.89992 361.47234 C 386.03942 361.90595 386.1503 362.34896 386.27251 362.78854 C 385.75329 365.01394 385.10157 367.20926 384.35428 369.37211 C 383.11687 372.8669 381.45041 376.16783 379.39748 379.24851 C 377.91063 381.4283 376.16141 383.38225 374.13682 385.06831 C 372.47479 386.38679 370.57572 387.29231 368.59142 388.00302 C 366.88103 388.54334 365.10362 388.82745 363.32662 389.03965 C 361.58396 389.27461 359.83677 389.17943 358.09283 389.04223 C 356.41862 388.84392 354.74904 388.6144 353.07144 388.44433 C 351.65206 388.27914 350.22136 388.23728 348.79366 388.21231 C 347.74764 388.14341 346.71098 388.01257 345.67757 387.84644 C 344.97701 387.72378 344.27346 387.67335 343.58261 387.50382 C 343.11197 387.41072 342.64309 387.2941 342.16409 387.25474 C 341.89374 387.21034 341.61951 387.22976 341.34812 387.19996 C 341.26802 387.19096 341.18973 387.17309 341.11144 387.15449 C 341.10644 387.1537 341.10239 387.15242 341.09749 387.15242 L 341.16467 412.14315 C 341.22391 412.12166 341.2852 412.0995 341.35019 412.09509 C 341.56332 412.06859 341.77747 412.08412 341.99149 412.07132 C 342.38021 412.09092 342.76984 412.09122 343.15421 412.16692 C 343.89138 412.25582 344.63379 412.25393 345.37268 412.32763 C 346.5026 412.43171 347.63944 412.4457 348.77299 412.48369 C 350.13687 412.4829 351.50017 412.48291 352.86318 412.5457 C 354.5528 412.66566 356.22861 412.91265 357.91765 413.04128 C 359.81136 413.16967 361.71439 413.23152 363.60568 413.02423 C 365.56998 412.79859 367.51454 412.43142 369.40687 411.84807 C 371.64665 411.05557 373.78237 410.0385 375.69951 408.61571 C 378.0792 406.86514 380.05989 404.72448 381.65935 402.23057 C 383.83385 398.99547 385.71736 395.57224 387.13551 391.93404 C 388.68226 387.76664 389.87427 383.46704 390.57819 379.07333 C 391.85281 369.33564 391.11365 360.97086 391.03191 350.20842 C 391.02391 349.08512 390.75049 346.98107 390.55804 345.86709 C 390.43759 345.16986 390.27463 344.48082 390.13274 343.78763 C 389.07858 339.82003 387.7537 335.89081 385.20126 332.6064 C 382.9328 329.80599 380.50359 327.70778 377.39191 325.86934 C 374.44707 324.08915 371.40545 322.42878 368.05812 321.53472 C 364.96269 320.75239 361.81385 320.26442 358.61993 320.12551 C 357.78672 320.08941 356.95332 320.0672 356.11983 320.06143 z M 341.16467 412.14315 C 341.16351 412.14357 341.16221 412.14376 341.16105 412.14418 C 341.16205 412.14518 341.16367 412.14597 341.16467 412.14676 L 341.16467 412.14315 z "
       inkscape:label="glyph_u" />
    <path
       id="path8"
       style="fill:#00ffff;fill-opacity:0.533333;stroke:#000000;stroke-width:1"
       d="m 489.53391,315.20798 c -1.07278,8.22898 -2.49606,16.45652 -3.35014,24.68641 1.34086,10.91126 0.99027,21.93326 1.55586,32.89306 0.13631,6.54868 -1.38027,12.99773 -0.99215,19.54709 -0.002,6.18788 -0.0264,12.37617 0.0654,18.56359 3.78725,0.15901 6.50223,-3.26658 7.82722,-6.45934 6.61993,-14.02574 13.0574,-28.14287 20.17775,-41.92646 2.44134,-4.89763 4.93482,-9.77132 7.60813,-14.54716 -0.11642,15.06473 -0.33672,30.16244 0.97489,45.18712 -0.38295,4.88444 -0.13917,9.85556 0.12493,14.68611 0.73868,1.81811 4.96525,5.16271 3.98971,0.93537 -0.35922,-1.9881 -0.0344,-8.11424 -0.0365,-7.03721 0.94459,-17.30923 -1.45525,-34.58081 -1.18351,-51.88266 0.27032,-3.89857 0.0365,-7.8158 0.404,-11.7078 0.0651,-1.89059 0.59517,-6.15826 0.93842,-9.00451 0.33666,-3.20186 0.42274,-6.50894 -0.51747,-9.62346 -3.7469,-3.64693 -6.4695,3.0157 -7.7058,5.8739 -5.41092,11.37791 -10.39364,22.96065 -16.25831,34.1196 -3.55496,7.04956 -6.78273,14.28401 -10.6466,21.1658 -2.32805,1.3668 -0.48726,-4.42798 -1.0705,-5.84457 -0.17558,-18.9578 -0.55766,-37.92416 -1.58503,-56.85496 -0.0884,-0.9253 -0.19326,-1.84917 -0.32024,-2.76992 z m 37.90001,87.81944 c -0.0103,1.44883 -0.013,6.95647 0.005,5.70831 8.6e-4,-1.90277 -0.001,-3.80554 -0.005,-5.70831 z"
       sodipodi:nodetypes="sccccccccccccccccccccssccc"
       inkscape:label="glyph_t" />
    <g
       id="g31"
       inkscape:label="glyph_p"
       transform="translate(1.4583331e-6)">
      <path
         style="fill:#00ffff;fill-opacity:0.533333;stroke:#000000;stroke-width:0.988521"
         id="path20"
         d="m -122.1137,341.45017 c 5.54298,3.37045 9.08874,8.98434 13.22026,13.77087 6.93738,8.68755 12.343829,18.4008 18.759767,27.44271 4.714253,7.39341 8.853336,15.12025 13.831956,22.35699 1.266841,3.04713 5.275908,6.41814 6.153093,7.41388 0.882186,1.46267 0.376058,-0.57756 0.756079,-2.051 0.773718,-7.12862 1.547437,-14.25725 2.321155,-21.38587 -2.240983,-1.23915 -0.645219,-0.82929 -3.156823,-2.36334 -5.942097,-7.28781 -10.658947,-15.48749 -15.752996,-23.3631 -7.972901,-10.988 -14.990871,-22.62482 -23.566731,-33.19511 -3.34014,-4.38572 -6.95802,-8.57715 -11.01078,-12.35364 -0.51833,7.90921 -1.03665,15.8184 -1.55498,23.72761 z" />
      <path
         style="fill:#00ffff;fill-opacity:0.533333;stroke:#000000;stroke-width:0.979297"
         id="path21"
         d="m -72.790699,317.22376 c -0.506231,6.40977 -3.98258,12.17533 -7.172775,17.68777 -7.763715,13.18483 -18.947048,24.00932 -28.523216,35.9317 -2.10476,2.65728 -2.89227,5.97287 -4.7979,8.75561 -1.65375,2.65477 -2.43098,6.58748 -4.02063,8.69533 -0.10824,-0.38069 0.61506,1.32452 0.39524,2.99135 0.1643,7.04912 0.32859,14.09823 0.49288,21.14734 1.29765,0.0651 3.83404,-3.037 4.40309,-5.96436 1.29501,-4.15417 4.24521,-7.61246 5.61567,-11.73352 3.01967,-5.12447 7.011662,-9.66524 10.495991,-14.50535 8.533708,-10.44465 16.678307,-21.25559 23.441223,-32.84809 1.146259,-2.38341 2.851836,-4.74191 3.152055,-7.35923 -1.160543,-7.59951 -2.321086,-15.19904 -3.481628,-22.79855 z" />
    </g>
    <g
       id="g32"
       inkscape:label="glyph_o"
       transform="translate(1.4583331e-6)">
      <path
         style="fill:#00ffff;fill-opacity:0.533333;stroke:#000000;stroke-width:1"
         id="path18"
         d="m -51.497205,351.42154 c 0.742849,-6.04456 6.909479,-9.53435 12.365607,-10.63972 7.511557,-1.25398 15.600667,0.76536 21.574983,5.49044 11.2395387,12.709 5.773369,19.701 -6.845252,30.4041 -5.844665,5.08427 -12.828772,9.20101 -20.642427,10.1077 -2.675351,1.50271 -7.731172,0.15626 -9.37811,1.54586 0.02934,8.09694 -0.05868,16.28757 0.044,24.32597 5.409652,-0.0842 10.664006,-1.64707 15.852534,-3.05809 7.178261,-2.27394 13.190048,-7.12168 18.774384,-12.01331 6.339789,-5.87545 9.602002,-14.24646 10.9038534,-22.63792 1.5353012,-9.7503 1.4316957,-19.69339 1.1154445,-29.53612 -0.3146622,-6.88112 -0.3821309,-14.67814 -5.6744579,-19.84737 -4.492707,-4.97844 -11.380125,-6.8698 -17.788405,-7.84669 -8.59519,-1.43972 -18.453996,1.47711 -23.328529,9.05554 -0.410013,1.52325 0.320003,3.26629 0.376087,4.87941 l 2.650289,19.7702 z"
         sodipodi:nodetypes="scccccccccccccccs" />
      <path
         style="fill:#00ffff;fill-opacity:0.533333;stroke:#000000;stroke-width:1"
         id="path19"
         d="m -42.444405,374.92058 c 2.45115,-0.38086 4.9598,-0.31794 7.43598,-0.32274 2.97768,0.0159 5.95554,-0.10501 8.92771,-0.27942 2.49504,-0.1144 4.987,-0.29704 7.48294,-0.39069 1.50977,-0.0668 3.01929,-0.0103 4.52795,0.0493 0.71985,0.0606 1.44695,0.0781 2.15921,0.20602 0.18471,0.0406 0.10049,0.0201 0.25307,0.0599 0,0 0.0159,-24.88321 0.0159,-24.88321 v 0 c -0.15695,0.0378 -0.0706,0.0183 -0.25948,0.057 -0.72959,0.12337 -1.47267,0.13997 -2.20763,0.21919 -1.56757,0.10933 -3.13073,0.27659 -4.69045,0.46665 -2.47216,0.32453 -4.94369,0.66898 -7.43236,0.84303 -2.91161,0.20633 -5.82996,0.34796 -8.74982,0.26626 -2.44645,-0.0613 -4.95165,-0.0691 -7.33068,-0.69431 z" />
    </g>
    <path
       id="path27"
       style="fill:#00ffff;fill-opacity:0.533333;stroke:#000000;stroke-width:1"
       d="m -525.20141,317.8334 c -0.63782,4.02677 -2.34494,-1.54943 -2.98275,2.47734 -0.52921,3.34109 0.4386,10.3178 -0.0906,13.65888 0.037,-1.88779 0.0612,-8.63959 -0.154,-3.46469 -0.55314,25.00063 -4.22165,49.8852 -3.15206,74.92427 0.10991,2.85619 -0.20025,9.69789 4.51522,6.06022 1.62907,-6.82761 2.85963,-11.83021 5.12671,-18.50876 1.423,-3.8998 1.89277,-9.20961 6.49156,-10.73392 2.80167,-0.5774 9.12597,-4.53259 7.50142,0.87493 -0.16604,8.20849 -0.41109,16.58618 1.48039,24.62722 1.31963,4.18563 3.80867,5.75447 9.15569,5.13409 7.37001,-1.34108 12.08019,-3.45503 16.82026,-8.65505 8.40575,-9.15546 12.53783,-21.30814 14.6924,-33.33833 1.44814,-10.31096 0.63799,-20.75921 0.45767,-31.11944 -0.79698,-7.46632 -4.69622,-14.24314 -10.07329,-19.37953 -2.87797,-4.4788 -9.19054,-5.23593 -13.345,-2.09602 -4.30222,2.9793 -8.45489,6.52181 -10.40712,11.52798 -2.71369,4.57201 -3.94583,9.82992 -4.56303,15.05128 -0.99866,3.69524 2.42439,10.65963 -3.35273,10.61383 -4.69494,1.79061 -10.15952,1.99273 -14.20303,5.18758 -3.31564,3.97693 -3.47592,9.57049 -5.11465,14.32286 1.24596,-17.51751 1.97294,-35.08454 1.44542,-52.64517 0.0281,-3.49591 -0.36092,-1.02595 -0.24847,-4.51957 z m 42.15179,23.04433 c 4.24604,0.58427 6.7548,4.83132 9.3511,7.8633 2.45101,3.34123 4.48607,7.32978 2.36836,11.36569 -3.13338,12.18377 -10.65243,22.98752 -20.31676,30.91909 -2.70788,2.32062 -7.71488,3.60327 -9.41457,-0.58062 -3.13481,-3.96545 -0.9202,-8.72557 -0.0783,-13.07267 1.51545,-5.19147 0.60035,-10.71403 2.07987,-15.91905 0.59778,-4.82588 3.14161,-9.14519 5.5861,-13.24199 2.96713,-2.86051 6.06319,-6.82631 10.42422,-7.33375 z m -20.73517,11.73675 c 0.50267,1.84114 -0.0182,3.27255 0,0 z m 3.82736,14.06735 c 0.006,1.62374 -0.006,3.04709 -0.009,0.56938 z"
       sodipodi:nodetypes="cscccccccccccccccccccccscccccccssccccc"
       inkscape:label="glyph_n"
       transform="translate(1.4583331e-6)" />
    <path
       id="path15"
       style="fill:#00ffff;fill-opacity:0.533333;stroke:#000000;stroke-width:1"
       d="m 106.51077,261.86653 c -6.908004,0.0858 -14.229024,4.55753 -16.044494,11.45666 0.180666,7.31675 -0.758262,14.64564 -0.416784,21.93908 0.225038,2.92334 0.670602,4.70948 2.071834,1.11847 3.312737,-6.0796 9.088204,-12.38683 16.725224,-11.20401 4.51909,0.0359 6.29446,2.88408 3.34855,6.49576 -8.29636,17.70874 -9.50233,15.22132 -19.557109,33.53035 -1.278656,2.32834 -2.918418,4.55024 -4.197077,6.88628 -5.775238,9.82675 -10.620634,20.78694 -10.03087,32.44056 0.493304,10.15644 -0.771078,20.51107 2.112212,30.4145 1.562053,5.11096 4.159363,10.22951 8.176115,13.8207 5.361505,3.97288 12.472939,3.44484 18.785619,3.28977 7.3957,-1.11926 13.44282,-7.95509 13.41452,-15.49802 0.0445,-13.63211 1.73339,-27.81497 -3.41234,-40.8208 -3.32368,-8.8395 -7.89945,-17.15351 -13.04194,-25.0585 6.25518,-10.86144 13.37573,-21.63855 16.27395,-33.99069 -0.0844,-8.90306 0.47026,-17.84513 -0.0968,-26.72302 -1.23412,-6.20213 -8.65333,-8.17306 -14.11057,-8.09709 z m -10.493928,82.93396 c 4.883158,8.9958 11.848008,16.79597 15.751188,26.36362 1.03444,3.87514 5.23657,8.74834 2.68369,12.36223 -3.58361,4.91242 -10.0957,5.62966 -15.650503,4.54401 -5.600216,-0.29711 -10.190543,-4.22082 -12.38194,-9.2291 -3.795281,-5.33849 -2.357852,-11.58523 0.566591,-16.98651 2.558043,-5.91538 5.680157,-11.55583 9.030974,-17.05425 z"
       sodipodi:nodetypes="scccccsccccccccccssccccccc"
       inkscape:label="glyph_m"
       transform="translate(1.4583331e-6)" />
    <path
       id="path7"
       style="fill:#00ffff;fill-opacity:0.533333;stroke:#000000;stroke-width:1"
       inkscape:label="glyph_l"
       d="m 434.84215,319.35966 c -3.86873,0.0347 -7.68418,0.63433 -10.75076,3.144 -1.83344,2.12843 -4.3495,4.82759 -3.84679,7.82174 l 2.87682,22.76864 c 0.80987,-4.48311 3.63396,-9.09282 8.42895,-9.96219 6.09025,-1.18644 12.62555,-0.67306 18.40662,1.59164 1.3617,0.60327 2.59848,1.46488 3.63131,2.51302 -1.67332,3.16457 -3.98275,5.9906 -6.78305,8.184 -1.44177,1.01588 -3.14952,1.9468 -4.92993,2.49029 -1.59635,-0.40068 -3.25842,-0.83946 -4.74042,-0.91697 -3.3974,-0.074 -3.12787,0.61382 -3.42049,3.74877 -0.6163,6.48187 -1.96701,12.88814 -4.13963,19.03198 0.006,3.44855 5.52988,2.03854 8.0424,2.89233 1.79094,-0.0849 3.50331,-0.45484 5.13457,-1.03198 0.99117,0.18981 1.96891,0.40313 2.90318,0.58033 1.57831,0.36182 3.14991,1.01087 4.58784,1.88619 -4.64082,3.96326 -11.13876,6.01884 -16.98863,3.7021 -4.63406,-1.90333 -8.71482,-5.49267 -10.6779,-10.15391 -0.5421,-2.15771 0.3095,0.0749 -0.34779,1.4578 l -3.42769,22.02449 c 2.0769,2.11381 3.68978,4.9189 6.35982,6.55981 5.63164,4.39316 13.47843,5.9711 20.19153,3.24786 5.84897,-2.36268 11.02392,-6.84078 13.78882,-12.54342 1.32225,-3.52896 1.87957,-7.2988 1.22525,-11.0355 -0.28523,-7.75061 0.30464,-14.41541 -4.12533,-20.85299 3.61065,-8.10942 4.35169,-17.4851 4.02249,-26.186 -0.12292,-4.66686 0.35487,-9.68308 -2.36574,-13.78676 -3.43976,-5.34673 -10.33521,-6.44516 -16.18455,-6.91792 -2.20953,-0.0957 -4.54965,-0.27819 -6.8709,-0.25735 z m -11.7209,33.73438 c -9e-5,5.2e-4 -4.2e-4,10e-4 -5.1e-4,0.002 h 5.1e-4 z"
       sodipodi:nodetypes="sccccccccsscccccccccccccccccscccc" />
    <path
       id="path24"
       style="fill:#00ffff;fill-opacity:0.533333;stroke:#000000;stroke-width:1"
       d="m -258.83385,319.0217 c -4.53486,0.12089 -9.12058,0.71392 -13.49698,1.92266 -5.77736,2.13981 -9.00745,7.89733 -11.78081,13.03038 -4.08418,8.34381 -4.18643,17.76914 -4.16975,26.84705 9.7e-4,12.4784 -0.69903,25.46074 4.17156,37.24159 2.94928,6.23651 8.26434,12.07364 15.42818,13.03812 7.03393,1.50206 14.15519,-0.25784 21.2271,-0.44997 6.0831,-0.59722 12.16047,-1.54788 17.9941,-3.40524 -0.4091,-8.28339 -0.81821,-16.56678 -1.22731,-24.85017 -4.77792,2.72467 -10.48559,3.14465 -15.84297,4.0132 -6.19863,0.30378 -12.39591,1.63408 -18.60648,0.9974 -3.90672,-0.42812 -7.82923,-1.63896 -10.60818,-4.56563 -4.7561,-4.77556 -7.23554,-11.56672 -7.78102,-18.15846 1.25566,-6.49426 4.30472,-12.71571 8.85064,-17.52354 3.89049,-3.38528 9.35201,-3.46547 14.21868,-3.93032 6.21331,-0.35376 12.2288,1.84009 17.78388,4.39098 0.13779,1.69069 -5.50818,3.29248 -7.68559,4.27115 -7.51506,2.14086 -15.36084,0.38125 -22.99251,0.14945 0.0501,8.15592 0.10025,16.31184 0.15038,24.46776 5.73954,-1.1122 11.6266,0.24152 17.43197,-0.198 6.50848,-0.18778 12.80938,-2.68164 18.11375,-6.35844 4.80782,-3.8444 4.76487,-10.38819 5.29754,-15.96826 0.43343,-7.55073 0.27049,-15.26549 -1.57862,-22.62516 -1.34801,-4.61334 -5.519,-7.66019 -10.02999,-8.78003 -4.90268,-1.38646 -9.66963,-3.66003 -14.86757,-3.55652 z"
       inkscape:label="glyph_k"
       transform="translate(1.4583331e-6)" />
    <path
       id="path26"
       style="fill:#00ffff;fill-opacity:0.533333;stroke:#000000;stroke-width:1"
       d="m -448.88271,313.57397 c -0.67757,19.54043 -3.43196,39.00916 -2.57247,58.59413 0.0176,12.17346 -0.22403,25.76964 7.76061,35.80566 6.00143,5.49584 15.26689,2.23088 20.88413,-2.18346 8.93204,-7.47149 12.07815,-19.31493 15.12003,-30.07445 0.61974,-2.30553 1.83765,-10.59052 1.76764,-4.03254 1.17135,23.33386 1.78175,46.7096 2.21009,70.0539 0.1883,2.673 0.80132,5.34784 0.84316,5.41836 0.57673,5.29798 1.15347,10.59595 1.7302,15.89393 3.03481,-9.55963 3.08052,-32.45485 1.1971,-43.96255 -1.16635,-31.19189 -1.69952,-62.41838 -4.04468,-93.55227 -0.59496,-2.68975 0.63169,-11.24213 -0.70199,-10.06957 -4.61737,3.68862 -2.89752,9.92539 -3.24932,15.02762 0.0918,-0.0545 0.0729,-7.4438 0.0774,-10.2901 -0.0255,-4.63097 -0.008,6.21389 -0.18056,8.66733 -0.67391,16.77081 -3.01053,34.26225 -11.94465,48.81618 -4.02921,5.77237 -11.45407,10.84647 -18.69636,8.56129 -6.1229,-3.40444 -7.38956,-11.13591 -8.57002,-17.43717 -0.77955,-8.90131 1.0807,-17.75608 1.56946,-26.62535 1.06033,-6.52012 -1.07205,-12.91187 -1.77487,-19.36145 -0.47498,-3.08316 -0.94978,-6.16636 -1.42488,-9.24949 z"
       sodipodi:nodetypes="scccccccccccccccccccss"
       inkscape:label="glyph_j"
       transform="translate(1.4583331e-6)" />
    <path
       id="path9"
       style="fill:#00ffff;fill-opacity:0.533333;stroke:#000000;stroke-width:1"
       d="m 556.12157,311.93996 c -1.15652,8.01484 -2.31303,16.02969 -3.46955,24.04453 2.99372,13.98578 5.57426,28.08762 6.64132,42.36723 1.00249,10.83754 1.59318,21.7151 2.20599,32.57651 -0.60346,4.1418 5.54956,-0.0592 3.90715,-2.83474 0.33347,-16.06121 1.35498,-32.2662 5.34414,-47.88529 1.72476,-6.85988 6.20082,-13.65208 13.34895,-15.61919 4.72237,-1.79373 10.66849,-1.43258 14.07229,2.70693 6.43208,7.49351 7.60213,17.83617 8.6762,27.27686 0.94583,6.0978 -0.88405,12.11701 -0.64643,18.21926 -0.2853,6.72237 -0.84709,13.78412 1.92102,20.1148 2.66494,-0.0117 1.65749,-2.92817 1.97832,-4.63764 -0.12915,-5.23523 1.19157,-10.40145 0.79908,-15.65205 -0.15512,-18.81821 1.36256,-38.06267 -3.93822,-56.37678 -2.14076,-6.61652 -5.74889,-14.17793 -13.15332,-15.99092 -7.7874,-1.12504 -16.28749,1.87519 -21.34713,7.97316 -5.28705,6.55081 -6.24021,15.22991 -7.66688,23.23254 -0.67921,3.75565 -1.19904,10.48301 -1.56241,12.44479 -1.06578,-12.62422 -2.66728,-25.19657 -5.01223,-37.64917 -0.78718,-4.75571 -1.74599,-9.49641 -2.09829,-14.31083 z"
       inkscape:label="glyph_i" />
    <path
       id="path10"
       style="fill:#00ffff;fill-opacity:0.533333;stroke:#000000;stroke-width:1"
       d="m 635.68623,317.12311 c -1.00428,3.02124 -0.69872,6.39755 -1.22806,9.55619 -1.43707,11.43419 -3.1622,22.86893 -3.14383,34.42363 -0.11598,12.57693 -0.49514,25.2766 1.68234,37.71644 1.10676,4.74432 3.01041,10.23767 7.7828,12.37551 3.92141,0.87194 7.39817,-2.02972 10.42051,-4.13654 7.34714,-6.02397 13.09081,-14.03805 15.95496,-23.1353 2.96381,-9.09348 5.34179,-18.37739 8.6968,-27.34446 -0.37371,17.22816 0.5052,34.44172 1.18009,51.64959 -0.86609,3.87868 4.86938,3.206 3.65496,-0.29912 -0.0824,-8.79163 1.43941,-17.63063 -0.007,-26.37721 -0.23779,-8.94834 -1.74721,-17.87809 -0.83303,-26.84088 0.10344,-5.94787 0.8331,-11.83562 1.77838,-17.69889 0.68966,-6.44602 -0.59771,-12.86746 -1.18958,-19.26833 -1.22013,0.46532 -3.95319,-0.43704 -3.86068,1.21489 -1.46529,9.86219 -5.21947,19.181 -7.89798,28.74477 -3.20779,10.56401 -5.59634,22.01738 -13.44503,30.29001 -3.2787,3.77493 -7.04278,7.59529 -11.98499,8.99506 -4.54635,-0.75995 -5.64963,-6.53264 -6.75139,-10.31707 -0.9994,-4.62691 -1.4676,-9.36761 -0.63544,-14.05761 1.27705,-10.27278 2.98744,-20.49849 4.01087,-30.79899 0.11322,-3.85234 -0.0225,-7.89214 -0.85408,-11.59346 -1.11029,-1.03274 -2.22058,-2.06549 -3.33087,-3.09823 z"
       inkscape:label="glyph_e" />
    <path
       id="path4"
       style="fill:#00ffff;fill-opacity:0.533333;stroke:#000000;stroke-width:0.989406"
       d="m 274.71136,317.95768 c -2.23012,0.51491 -6.1966,0.0513 -7.2473,1.86346 0.35836,7.92337 0.71671,15.84675 1.07507,23.77012 1.51853,-0.45071 0.4564,4.32205 0.88832,5.96139 0.38727,15.38269 2.09223,30.68133 3.40012,45.99909 0.30687,6.22977 0.7563,12.45706 0.9728,18.68839 1.30121,-0.54811 2.60243,-1.09623 3.90364,-1.64434 -0.1703,-0.7577 1.44477,2.62424 2.83616,0.43836 2.34853,-0.50493 6.15981,-1.58325 8.37189,-4.053 9.60113,-7.90937 18.46113,-17.73253 22.08632,-29.88695 2.60742,-9.73314 1.19813,-19.89181 0.89848,-29.80482 -0.94764,-8.57584 -6.9271,-15.48716 -13.03521,-21.11235 -6.77183,-5.70038 -15.10557,-10.17078 -24.15029,-10.21935 z m 1.49707,23.32416 c 11.68552,0.29778 21.91208,8.09413 28.21352,17.52429 2.8681,3.21507 0.6524,7.52665 -1.34671,10.54255 -5.15869,7.68005 -11.88842,14.84026 -20.59484,18.39389 -1.96947,-0.20699 -5.45169,0.4308 -4.64466,3.03044 -1.00735,-5.24315 -0.54286,-10.63622 -1.28007,-15.92888 -1.17462,-11.06674 -2.39172,-22.13629 -3.07317,-33.24693 0.89977,-0.17285 1.80723,-0.31658 2.72593,-0.31536 z"
       inkscape:label="glyph_c"
       transform="translate(1.4583331e-6)" />
    <path
       id="path16"
       style="fill:#00ffff;fill-opacity:0.533333;stroke:#000000;stroke-width:1"
       d="m 33.729171,264.18577 -3.199288,24.16286 c 2.612029,9.76744 2.805103,21.91132 -5.062637,29.43552 -6.897245,5.81405 -14.436929,11.80401 -17.4341812,20.69011 -2.8361682,8.01634 -1.7552864,16.70736 -2.2496663,25.05409 -0.1728371,11.57238 2.4708744,23.39052 8.5053505,33.32533 6.924458,8.32044 18.219539,11.88553 28.774736,11.51709 7.961762,-1.79824 16.101651,-6.41031 19.587573,-14.13732 2.959769,-7.68336 2.509244,-16.17321 2.624477,-24.27453 -0.146527,-8.68781 -1.420215,-17.51181 -5.770013,-25.17751 -4.004394,-8.28266 -9.50229,-15.73796 -15.54768,-22.62888 -1.547744,-1.5091 -4.577541,-9.91387 -4.774957,-4.23295 -1.040295,6.98337 -2.307654,14.01148 -3.206825,20.96705 3.220936,2.85599 4.892859,7.33684 8.231328,10.30663 6.388505,6.83883 11.415278,14.99015 14.635493,23.78122 -3.286095,6.35731 -10.300537,10.44534 -17.224837,11.41553 -9.721656,-0.0447 -20.609814,-3.72162 -25.69886,-12.55423 -1.883793,-4.71438 -5.721246,-10.3505 -3.018076,-15.32111 3.286282,-6.81374 9.509717,-11.28836 15.135837,-16.00643 4.823687,-4.20607 7.543234,-10.32732 7.6009,-16.71074 0.70036,-15.06763 0.314761,-30.18013 0.03163,-45.25773 -0.206357,-4.83307 -1.021001,-9.61276 -1.940301,-14.354 z m 5.843054,51.25165 c 1.009252,-2.34681 -1.153981,-0.8488 0,0 z"
       sodipodi:nodetypes="cccccccccccccccccccccsccc"
       inkscape:label="glyph_b"
       transform="translate(1.4583331e-6)" />
    <path
       id="path11"
       style="fill:#00ffff;fill-opacity:0.533333;stroke:#000000;stroke-width:1"
       d="m 758.22035,315.70303 c -0.1229,0.0316 -0.24557,0.0652 -0.36845,0.0972 -0.8805,0.21054 -1.7799,0.31437 -2.67374,0.45165 -2.06452,0.3479 -4.11709,0.76622 -6.18877,1.07228 -3.43659,0.5245 -6.85206,1.19594 -10.31824,1.51361 -4.41132,0.42861 -8.83288,0.71892 -13.2674,0.7307 -4.32278,0.0463 -8.64509,0.10686 -12.9682,0.0842 -1.31946,0.0214 -2.64033,0.0757 -3.961,0.11473 l -0.76895,0.0165 c -1.27522,0.0301 -2.55023,0.0415 -3.82302,-0.0181 l 0.94671,25.81755 c -0.0246,3.78677 0.12856,7.56946 0.2744,11.35228 0.19249,4.12652 0.46006,8.2488 0.66921,12.37444 0.28123,3.99921 0.38592,8.00706 0.44391,12.01477 0.008,6.50393 0.0137,13.00807 0.0372,19.51199 0.002,0.42222 0.031,0.84358 0.0465,1.26555 l 0.27185,10.22522 v 0 l 5.0431,-0.15762 c 2.89307,-0.0366 5.64189,-0.079 8.35364,-0.24054 2.64856,-0.15778 5.26175,-0.42926 7.93942,-0.92011 3.24209,-0.60695 6.43362,-1.37692 9.47074,-2.79518 7.1469,-3.3643 14.71402,-6.71452 20.01222,-12.78526 1.7678,-2.16235 3.5099,-4.47393 3.46387,-7.40524 0.97289,-7.00993 2.01394,-14.34115 0.0315,-21.26795 -1.19581,-3.92207 -5.21353,-5.99832 -8.69869,-7.58041 -7.53903,-3.0722 -15.3499,-5.58775 -23.34793,-7.13859 -2.64591,-0.43144 -5.32605,-0.71227 -8.00675,-0.75137 -3.9687,-0.18675 -7.84299,0.96453 -11.27166,2.90783 -0.0949,-2.42745 -0.20854,-4.8541 -0.36277,-7.27914 -0.0709,-1.30006 -0.1407,-2.60042 -0.21135,-3.90054 1.18961,-0.16898 2.38939,-0.2809 3.57445,-0.39377 4.28758,-0.33122 8.58579,-0.50207 12.88397,-0.61857 4.46971,-0.11159 8.93811,-0.21912 13.40177,-0.48421 3.47122,-0.21299 6.93048,-0.57842 10.39988,-0.81545 2.05234,-0.11265 4.10484,-0.25498 6.16035,-0.29456 0.83611,-0.0118 1.67911,-0.01 2.49959,0.16847 0.0914,7.9e-4 0.17255,0.0599 0.23978,0.0956 z m -34.66197,58.31634 c 0.70082,-10e-4 1.39666,0.0227 2.08101,0.0672 7.4499,0.27902 14.56414,2.89809 21.28966,5.93866 -7.81431,4.52384 -16.49175,7.86562 -25.57518,8.41189 -2.66693,0.29162 -5.3001,0.90282 -7.97781,1.01389 h -1.76062 -1.1591 l -0.17566,-4.5837 c -0.0981,-1.49657 -0.21617,-2.9925 -0.29405,-4.49035 -0.028,-0.53881 -0.0508,-1.07786 -0.0656,-1.61729 -0.11183,-5.5329 0,0 0.37207,0.43408 0.37417,-0.45899 0.77482,-0.88121 1.19847,-1.26899 3.20761,-2.93606 8.16897,-5.20467 12.06687,-3.90537 z"
       sodipodi:nodetypes="cccccccccccccccccccscccccccccccccccccccccccccccsccssc"
       inkscape:label="glyph_a" />
    <path
       id="path25"
       style="fill:#00ffff;fill-opacity:0.533333;stroke:#000000;stroke-width:1"
       d="m -365.93274,322.60856 c -0.0655,0.48821 -0.13213,0.97622 -0.19995,1.46404 -2.17894,15.67268 -5.54875,31.15335 -8.2568,46.73643 -1.45267,10.57216 -1.67989,21.40094 -0.16155,31.96801 0.63986,4.20519 4.99437,8.1547 9.34053,6.26945 6.40359,-2.4774 9.92315,-8.91637 13.68064,-14.24315 3.74558,-5.90032 6.61433,-12.32423 8.73367,-18.97632 0.0442,10.74475 -0.62485,21.56339 0.7137,32.25126 0.26686,5.24751 7.59888,5.60505 9.93735,1.57447 8.20241,-8.69713 12.77939,-20.09353 15.26925,-31.63973 0.63249,-2.2586 1.50347,-7.84895 1.22478,-2.65747 0.0803,10.54321 -0.18058,24.78676 -0.40091,35.32727 0.14681,3.78886 -0.0631,-1.50285 2.26733,0.22223 3.32826,1.26955 1.89703,-0.93072 2.17396,-3.73568 0.29569,-8.53952 0.0665,-20.79996 0.13805,-29.32937 1.04055,-11.63753 1.67257,-23.31069 1.44967,-34.9987 l -0.0414,-2.34952 c 0.0401,-1.93151 0.0376,-3.86305 -0.0269,-5.79059 -0.0628,-1.87576 -0.18427,-3.74773 -0.38228,-5.6122 -0.24975,-2.35177 -0.62124,-4.6916 -1.15022,-7.01206 -0.17655,-2.48739 -2.91758,-10.36508 -2.22068,-3.93933 -1.09771,11.18464 -3.31705,22.24858 -5.10498,33.34784 -2.11072,10.48169 -4.6537,21.28593 -11.29058,29.94042 -1.7546,2.01006 -5.88326,8.80361 -7.96355,4.86366 -1.52918,-6.46837 -0.28667,-13.19936 -0.23228,-19.76985 0.17978,-4.70484 0.45113,-9.39613 1.85512,-13.91529 1.85261,-6.65929 0.99464,-13.67837 1.14835,-20.50927 -0.17534,-4.92757 0.0309,-9.99247 -0.22909,-14.83782 -4.77414,-0.35399 -3.86203,4.20954 -4.48435,7.5908 -0.79343,6.06795 -0.87262,12.24228 -2.80152,18.10924 -3.192,14.17793 -7.88422,28.88425 -18.48223,39.34842 -1.825,2.19417 -7.37099,4.86346 -8.13294,0.70521 2.61253,-14.89998 5.66723,-29.73024 7.86345,-44.69919 0.65964,-4.95889 0.72845,-11.42953 0.58071,-16.6942 -0.096,-3.42143 -0.28348,-6.33351 -0.45967,-7.99029 -3.34512,5.04055 -4.26501,8.31271 -4.35465,8.98128 z m 55.8917,18.99729 c 0.0107,2.90628 -0.0256,2.63296 0,0 z m -5.63532,54.41063 c 0.32652,1.06442 0.0648,0.21153 0,0 z"
       sodipodi:nodetypes="sscccccccccccccccssccccccccccccccscscccc"
       inkscape:label="glyph_d"
       transform="translate(1.4583331e-6)" />
  </g>
</svg>
