<?xml version="1.0" encoding="UTF-8" standalone="no"?>
<!-- Created with Inkscape (http://www.inkscape.org/) -->

<svg
   width="1595.002mm"
   height="235.98546mm"
   viewBox="0 0 1595.002 235.98546"
   version="1.1"
   id="svg1"
   sodipodi:docname="vertical_pmcp.svg"
   inkscape:version="1.3 (0e150ed6c4, 2023-07-21)"
   xmlns:inkscape="http://www.inkscape.org/namespaces/inkscape"
   xmlns:sodipodi="http://sodipodi.sourceforge.net/DTD/sodipodi-0.dtd"
   xmlns="http://www.w3.org/2000/svg"
   xmlns:svg="http://www.w3.org/2000/svg">
  <sodipodi:namedview
     id="namedview1"
     pagecolor="#ffffff"
     bordercolor="#000000"
     borderopacity="0.25"
     inkscape:showpageshadow="2"
     inkscape:pageopacity="0.0"
     inkscape:pagecheckerboard="0"
     inkscape:deskcolor="#d1d1d1"
     inkscape:document-units="mm"
     inkscape:zoom="0.21870441"
     inkscape:cx="-233.19146"
     inkscape:cy="930.47966"
     inkscape:window-width="1280"
     inkscape:window-height="729"
     inkscape:window-x="-8"
     inkscape:window-y="-8"
     inkscape:window-maximized="1"
     inkscape:current-layer="layer1" />
  <defs
     id="defs1" />
  <g
     inkscape:label="Layer 1"
     inkscape:groupmode="layer"
     id="layer1"
     transform="translate(704.99163,-261.35545)">
    <path
       style="fill:#00ffff;fill-opacity:0.533333;stroke:#000000;stroke-width:1"
       id="path2"
       d="m 209.33865,326.12526 c -0.80047,1.63894 -1.67255,3.23723 -2.40125,4.9115 -0.80806,2.09239 -1.40057,4.26088 -1.92987,6.43812 -0.51562,2.10733 -0.73057,4.25883 -0.85624,6.41887 0.13456,9.75315 -0.85696,19.86272 0.53931,29.65513 0.3768,2.23462 0.78767,4.46338 1.19768,6.69211 0.49934,2.27283 0.88857,4.56228 1.27193,6.85663 0.35534,2.33102 0.66592,4.66417 1.13675,6.97624 0.4078,2.12946 1.23561,4.14676 2.05364,6.14493 0.79544,1.91837 1.73794,3.77813 3.02892,5.41026 1.05577,1.38385 2.4924,2.34631 3.98757,3.19313 1.29887,0.67293 2.61874,1.30191 3.98573,1.82367 1.06311,0.46926 2.20024,0.67489 3.34889,0.78498 1.13689,0.1198 2.26083,-0.0633 3.35809,-0.34836 1.4054,-0.33078 2.66527,-1.02602 3.8632,-1.80868 1.26374,-0.8747 2.29808,-2.01508 3.31037,-3.15873 0.86923,-0.98364 1.72817,-1.97075 2.49553,-3.03678 0.78673,-1.06459 1.29997,-2.27281 1.75813,-3.50457 0.50899,-1.54701 1.00315,-3.10321 1.39342,-4.68501 0.34254,-1.41965 0.41078,-2.87566 0.43803,-4.32898 0.0584,-9.6747 -0.0169,-19.34981 0.002,-29.02463 0.002,-1.49117 0.0117,-2.98232 0.0141,-4.47349 0.0586,-1.52583 -0.10718,-3.03942 -0.18303,-4.56071 -0.008,-1.62105 -0.38556,-3.20614 -0.60595,-4.80424 -0.30417,-1.57912 -0.4777,-3.17786 -0.78088,-4.75761 -0.3955,-1.64779 -0.71642,-3.31573 -1.1813,-4.94572 -0.44165,-1.36015 -0.83532,-2.74602 -1.43966,-4.04435 -0.70559,-1.31541 -1.38614,-2.64257 -2.02753,-3.99081 -0.46625,-1.13135 -1.11112,-2.149 -1.78737,-3.16163 -0.50959,-0.90963 -1.23326,-1.50661 -2.04506,-2.12405 -0.74474,-0.49921 -1.52,-0.9511 -2.25962,-1.45777 -0.72333,-0.50999 -1.58811,-0.70708 -2.39638,-1.02763 -0.71065,-0.23286 -1.44145,-0.40831 -2.13839,-0.68061 -0.7549,-0.25312 -1.52886,-0.43693 -2.29793,-0.64489 -0.91972,-0.21754 -1.84294,-0.42101 -2.75804,-0.65783 -0.86824,-0.19836 -1.7392,-0.37368 -2.61365,-0.5415 -0.70034,-0.0902 -1.40218,-0.16153 -2.10698,-0.20367 -0.49822,-0.0225 -0.99713,-0.0253 -1.49578,-0.0249 -0.47562,0.004 -0.95196,-0.0127 -1.42679,0.0171 -0.52751,0.0136 -1.05518,2e-4 -1.58269,-0.007 -0.42181,-0.021 -0.84218,-0.0318 -1.2648,-0.0239 -0.54291,-8e-4 -1.07879,0.10876 -1.61176,0.20119 -0.50786,0.10668 -0.96728,0.33681 -1.472,0.45306 -0.57753,0.13828 -1.10472,0.41596 -1.65142,0.639 -0.15426,0.0979 -0.32274,0.17406 -0.48766,0.23187 -0.30874,0.0157 -0.61298,0.0495 -0.91659,0.11735 -0.12129,0.0532 -0.64318,0.0414 -0.11968,0.0628 0.0116,0.007 0.0236,0.0143 0.0351,0.0214 -0.15217,0.0153 -0.30433,0.0305 -0.45646,0.0458 0,0 0.86894,24.88254 0.86894,24.88254 v 0 c -0.34883,-0.0205 -0.37949,-0.0233 -0.0923,-0.003 0.33285,-0.004 0.30681,-0.003 0.53698,-0.15106 0.26659,-0.13108 -0.0106,0.0131 -0.0183,-0.0946 -0.0122,-0.17081 0.51072,0.15055 0.51329,-0.0207 0.47186,-0.0714 0.93043,-0.15608 1.35729,-0.38512 0.34999,-0.25027 0.74456,-0.40422 1.10577,-0.62789 0.4368,-0.15886 0.97215,-0.1363 1.34391,-0.44252 0.33145,-0.11772 0.71701,-0.13728 1.06473,-0.16195 0.42263,0.008 0.84299,-0.003 1.26481,-0.0238 0.52794,-0.007 1.05603,-0.0203 1.58399,-0.007 0.47632,0.0293 0.95409,0.0122 1.43116,0.0132 0.47699,-0.002 0.95394,-0.009 1.43088,-0.0158 0.58993,-0.01 1.18432,-0.0174 1.76795,0.0825 0.80557,0.10587 1.6127,0.23352 2.4036,0.41981 0.89628,0.22364 1.79371,0.4457 2.67786,0.71412 0.73388,0.22393 1.45703,0.48095 2.18767,0.71428 0.69799,0.20502 1.38971,0.4338 2.07612,0.6741 0.66074,0.22266 1.27767,0.52087 1.83535,0.9457 0.67506,0.42328 1.35311,0.86958 1.92132,1.43056 0.54864,0.57047 0.88272,1.31848 1.35414,1.95278 0.57095,0.9567 1.02457,1.97366 1.55919,2.95119 0.66899,1.27754 1.34636,2.56184 1.80153,3.93437 0.403,1.323 0.8566,2.63182 1.17256,3.97996 0.36792,1.58211 0.77473,3.15794 0.98377,4.77176 0.22521,1.62857 0.47736,3.25255 0.71872,4.87851 0.23739,1.54298 0.35597,3.09418 0.39024,4.655 0.0712,1.58843 0.0469,3.17478 0.0366,4.76452 0.003,1.42226 0.0149,2.84448 0.0222,4.26673 0.0795,13.8574 -0.0128,-30.53823 0.006,-18.55649 -2.7e-4,1.41531 0.0352,2.83273 -0.0626,4.24586 -0.15067,1.57317 -0.51574,3.08676 -1.00772,4.58866 -0.35033,1.10999 -0.68186,2.23953 -1.23909,3.26719 -0.59794,1.13386 -1.25314,2.2455 -2.12128,3.19753 -0.86388,1.06788 -1.74168,2.1377 -2.7538,3.06945 -0.85191,0.73152 -1.8166,1.32108 -2.91318,1.60419 -0.83238,0.19079 -1.67605,0.35098 -2.53486,0.2629 -0.93191,-0.0903 -1.84028,-0.28175 -2.71559,-0.62406 -1.21247,-0.43997 -2.41178,-0.95015 -3.51494,-1.62216 -1.19559,-0.82234 -2.24433,-1.78884 -3.03465,-3.02027 -0.98686,-1.60013 -1.84662,-3.27096 -2.46139,-5.05296 -0.70632,-2.01072 -1.29282,-4.05528 -1.63392,-6.16297 -0.40669,-2.2712 -0.71729,-4.55758 -1.1007,-6.83275 -0.38206,-2.27524 -0.88955,-4.52382 -1.30603,-6.79273 -0.40105,-2.32204 -0.77767,-4.65056 -1.01317,-6.99614 -0.82555,-8.76749 -0.36592,-22.53876 -0.32114,17.48159 -0.0713,-2.10354 0.0427,-4.21936 0.43356,-6.29082 0.33587,-2.14197 0.83402,-4.24412 1.52954,-6.29933 0.50558,-1.4955 1.12949,-2.99103 2.08885,-4.25659 z" />
    <rect
       style="fill:#00ffff;fill-opacity:0.533333;stroke:#000000;stroke-width:2.19713"
       id="rect2"
       width="52.019836"
       height="1592.8048"
       x="266.87192"
       y="-888.91174"
       ry="4.1590033"
       transform="rotate(90)" />
    <rect
       style="fill:#00ffff;fill-opacity:0.533333;stroke:#000000;stroke-width:2.27531"
       id="rect3"
       width="83.576187"
       height="1504.2527"
       x="412.62708"
       y="-800.40753"
       ry="4.3117614"
       transform="rotate(90)" />
    <path
       style="fill:#00ffff;fill-opacity:0.533333;stroke:#000000;stroke-width:1"
       id="path4"
       d="m 269.16075,340.47334 c 0.1299,2.52569 0.21605,5.0524 0.27265,7.58106 0.14513,4.20003 0.36252,8.39686 0.54901,12.59514 0.22035,4.30542 0.60492,8.60021 0.95826,12.8962 0.39591,3.71974 0.60149,7.45503 0.94673,11.17895 0.35755,3.08866 0.63569,6.18495 0.88198,9.28418 0.26574,2.48345 0.47904,4.97035 0.58144,7.46609 0.0635,1.82925 0.0545,3.65981 0.0342,5.48971 -0.10957,1.02495 0.15931,2.01484 0.22405,3.03118 -0.0548,0.70531 0.24043,1.33357 0.29535,2.03127 0.0365,0.3719 0.008,0.74735 -0.0534,1.11508 -0.85705,8.90057 0.1635,-32.51698 -0.035,-23.72893 -0.003,0.23473 -0.005,0.46942 -0.004,0.70418 0.007,8.4946 0.11682,16.99039 0.003,25.48445 -0.003,0.22032 -0.006,0.44059 -0.0115,0.66086 -5.4e-4,0.0278 -0.002,0.0556 -0.003,0.0835 0,0 3.9087,-24.67871 3.9087,-24.67871 v 0 c -0.001,-0.015 -0.003,-0.0301 -0.003,-0.0452 -0.007,-0.17183 -0.008,-0.34371 -0.0115,-0.51562 -0.13902,-8.63836 -0.005,32.85924 0.004,23.55749 0.002,-0.23331 -2.7e-4,-0.46654 -0.002,-0.69983 -0.10454,-8.45828 1.09951,-16.99642 -0.041,-25.37644 -0.0744,-0.33491 -0.17557,-0.66285 -0.24809,-0.99816 -0.14096,-0.63538 -0.0806,-1.24986 -0.1777,-1.89008 -0.10852,-0.90398 -0.0435,-1.79658 -0.0672,-2.70496 -0.0461,-1.64271 -0.12131,-3.28456 -0.24773,-4.92325 -0.19191,-2.45754 -0.43468,-4.91064 -0.67923,-7.36342 -0.3221,-2.94553 -0.67138,-5.88853 -0.93701,-8.83978 -0.30626,-3.58689 -0.66577,-7.16799 -0.99484,-10.75274 -0.34918,-4.24454 -0.7449,-8.48711 -0.89628,-12.74495 -0.19666,-4.32372 -0.3886,-8.64872 -0.42645,-12.97741 -0.0392,-3.04393 -0.11428,-6.08929 0.0136,-9.13233 z" />
    <path
       style="fill:#00ffff;fill-opacity:0.533333;stroke:#000000;stroke-width:1"
       id="path5"
       d="m 270.656,343.59139 c 1.83573,-1.44864 4.15028,-1.91997 6.41112,-2.23583 3.36502,-0.33943 6.64924,0.50195 9.8301,1.50348 4.18365,1.34998 7.80627,3.75493 11.18783,6.50059 3.67654,2.96974 6.61405,6.61259 9.18694,10.54416 1.88612,3.20131 3.22534,6.73877 3.45686,10.47522 0.0465,0.75062 0.009,1.50409 0.0142,2.25613 -0.50933,-36.51182 0.92782,-22.24866 -0.82451,-14.59111 -0.61761,2.69889 -1.63556,5.18678 -2.74488,7.71087 -2.08821,4.42625 -5.17974,8.21779 -8.44439,11.81657 -2.28954,2.49521 -4.89031,4.67056 -7.62437,6.65795 -1.32901,0.95936 -2.74472,1.79553 -4.21198,2.52438 -0.60605,0.27326 -1.20669,0.56322 -1.83,0.79558 -0.15374,0.0574 -0.2996,0.18498 -0.46578,0.19323 -0.18388,0.0101 -0.3707,0.0145 -0.55534,0.004 -0.11392,-0.0102 -0.22203,-0.0444 -0.33319,-0.0425 -0.10149,-0.005 -0.19871,0.007 -0.3002,0.006 -0.11109,-0.0299 -0.21285,0.0138 -0.32491,0.0189 -0.47873,0.004 -0.92565,0.0725 -1.29163,0.34349 -0.19835,0.10561 -0.45539,0.27483 -0.71704,0.33362 -0.19738,0.17228 -0.41513,0.21831 -0.64918,0.34183 -0.0936,0.0808 -0.46333,0.12788 -0.52825,0.3034 0,0 0.78919,24.85658 0.78919,24.85658 v 0 c 0.13535,-0.0341 0.62371,-0.0697 0.69839,-0.22322 0.0146,-0.0301 -0.11285,-0.0379 -0.084,-0.055 0.0747,-0.0441 0.17072,-0.031 0.25608,-0.0465 0.30914,-0.14348 0.37509,-0.2272 0.76184,-0.35309 -0.0281,-0.0181 -0.11314,-0.0377 -0.0842,-0.0545 0.29106,-0.16943 0.57533,-0.11471 0.77944,-0.27918 0.12113,-0.0539 0.26149,-0.0689 0.37088,-0.14381 0.16154,-0.11063 -0.71593,-0.16738 -0.30135,-0.12248 0.11198,0.005 0.21376,0.0487 0.32471,0.0188 0.0964,-5.3e-4 0.18836,0.0109 0.28467,0.007 0.1051,-0.006 0.21886,-0.0232 0.32801,-0.0352 0.28177,-0.0101 0.56409,0.01 0.84579,-0.0169 0.47695,-0.0615 0.9444,-0.12852 1.376,-0.35948 0.62081,-0.42488 1.32384,-0.71485 1.93082,-1.1649 1.58514,-1.03135 3.04389,-2.24524 4.50515,-3.44189 2.79075,-2.39792 5.47109,-4.9209 7.94234,-7.65106 3.39915,-3.86507 6.6307,-7.89997 9.02209,-12.48519 1.04556,-2.08016 1.50593,-2.87508 2.35319,-5.03757 3.99829,-10.20495 2.36367,-21.0335 2.12671,-31.99051 -0.0835,-0.78819 -0.12436,-1.58207 -0.25058,-2.36454 -0.61368,-3.80464 -2.29559,-7.32312 -4.44159,-10.49017 -2.85565,-3.91465 -6.02934,-7.5947 -9.85821,-10.60013 -3.69358,-2.79925 -7.56248,-5.38242 -11.95814,-6.95661 -3.48777,-1.16941 -7.06621,-2.22921 -10.78677,-2.10434 -2.47195,0.17227 -4.87403,0.62434 -7.27659,1.21655 z" />
    <path
       style="fill:#00ffff;fill-opacity:0.533333;stroke:#000000;stroke-width:1"
       id="path6"
       d="m 333.16088,352.89823 c 0.73936,-1.46801 1.84566,-2.68758 3.00197,-3.83607 1.32096,-1.32982 2.97636,-2.1913 4.65146,-2.98373 2.59019,-1.22267 5.39024,-1.85516 8.19482,-2.35222 3.14636,-0.52748 6.32545,-0.56203 9.50104,-0.39757 3.03776,0.13564 6.02147,0.70196 8.94438,1.51396 3.12834,0.80324 5.95828,2.30783 8.64581,4.05899 2.79373,1.75282 5.05851,4.03365 7.00111,6.67102 2.18224,3.18955 3.24738,6.9158 4.00327,10.66023 0.0988,0.68846 0.21973,1.3741 0.29629,2.06538 0.0769,0.69411 0.12833,1.39119 0.16374,2.08864 0.0361,0.71032 0.0512,2.84434 0.0506,2.1331 -0.0275,-36.21638 0.33896,-23.61057 -0.32511,-15.75185 -0.41599,4.31901 -1.52317,8.51546 -2.93581,12.60402 -1.23741,3.49479 -2.90394,6.79583 -4.95687,9.87652 -1.48685,2.17979 -3.23623,4.13348 -5.26083,5.81954 -1.66203,1.31848 -3.56099,2.22436 -5.54529,2.93507 -1.71039,0.54032 -3.48808,0.82394 -5.26508,1.03614 -1.74267,0.23496 -3.4896,0.1402 -5.23354,0.003 -1.67422,-0.19831 -3.34367,-0.42775 -5.02128,-0.59782 -1.41938,-0.16519 -2.85035,-0.20752 -4.27805,-0.23249 -1.04602,-0.0689 -2.08236,-0.19972 -3.11577,-0.36585 -0.70056,-0.12266 -1.4043,-0.17289 -2.09515,-0.34242 -0.47064,-0.0931 -0.93939,-0.20962 -1.41839,-0.24898 -0.27035,-0.0444 -0.54464,-0.0252 -0.81603,-0.055 -0.0801,-0.009 -0.15865,-0.0267 -0.23694,-0.0453 -0.005,-7.9e-4 -0.009,-0.002 -0.0139,-0.002 0,0 0.0675,24.99444 0.0675,24.99444 v 0 c -0.001,-7.9e-4 -0.003,-0.002 -0.004,-0.003 0.0603,-0.0219 0.12332,-0.0442 0.18958,-0.0487 0.21313,-0.0265 0.42697,-0.0113 0.64099,-0.0241 0.38872,0.0196 0.7785,0.0202 1.16287,0.0959 0.73717,0.0889 1.47949,0.0868 2.21838,0.1605 1.12992,0.10408 2.26654,0.11799 3.40009,0.15598 1.36388,-7.9e-4 2.72758,-7.9e-4 4.09059,0.062 1.68962,0.11996 3.36534,0.36709 5.05438,0.49572 1.89371,0.12839 3.79684,0.18999 5.68813,-0.0173 1.96431,-0.22564 3.90888,-0.59269 5.80121,-1.17604 2.23978,-0.7925 4.37513,-1.80953 6.29227,-3.23232 2.37969,-1.75057 4.36035,-3.89125 5.95982,-6.38516 2.1745,-3.23511 4.05813,-6.65808 5.47628,-10.29628 1.54676,-4.16741 2.73888,-8.46698 3.4428,-12.8607 1.27462,-9.7377 0.53548,-18.10251 0.45374,-28.86496 -0.008,-1.12331 -0.28125,-3.22754 -0.4737,-4.34152 -0.12045,-0.69723 -0.28377,-1.38638 -0.42566,-2.07957 -1.05416,-3.9676 -2.37877,-7.89668 -4.93122,-11.1811 -2.26846,-2.80041 -4.69792,-4.89855 -7.8096,-6.73699 -2.94485,-1.78019 -5.98645,-3.44051 -9.33379,-4.33457 -3.09543,-0.78233 -6.24389,-1.27035 -9.43781,-1.40926 -3.33287,-0.1444 -6.67244,-0.0642 -9.98271,0.38505 -2.94655,0.43169 -5.89238,0.95553 -8.73412,1.86573 -1.95161,0.6663 -3.89105,1.39191 -5.51578,2.70507 -1.25639,1.05893 -2.37005,2.25622 -3.5368,3.40887 z" />
    <path
       style="fill:#00ffff;fill-opacity:0.533333;stroke:#000000;stroke-width:1"
       id="path7"
       d="m 423.12115,353.0954 c 0.41227,-1.97446 1.1398,-3.84221 2.14395,-5.58559 1.00229,-1.71049 2.48704,-2.83811 4.23167,-3.70519 2.68585,-1.12097 5.60372,-1.27895 8.47565,-1.28616 3.18008,0.0338 6.31842,0.48275 9.39445,1.26666 2.4415,0.5985 4.48546,1.86186 6.34666,3.50118 1.89612,1.84795 2.57528,4.33146 2.93333,6.87304 -0.0809,7.83703 0.46447,19.2069 -0.0989,-17.07499 -0.0104,-0.67236 -0.12287,1.34 -0.22281,2.00497 -0.26407,1.75691 -0.41622,2.10481 -0.88888,3.8041 -1.17133,3.62062 -3.16909,6.83972 -5.58911,9.74543 -1.81952,2.14046 -4.08103,3.67912 -6.6331,4.79493 -1.5485,0.64277 -3.19926,0.99683 -4.87566,0.98543 -0.8017,-0.0782 -1.75171,-0.11931 -2.42737,-0.61336 -0.33113,-0.22823 -0.7006,-0.37293 -1.06556,-0.53666 -0.0262,-0.0112 -0.10715,-0.0337 -0.0787,-0.0335 9.38107,0.0916 0.93028,4.99959 0.52641,24.60106 -0.002,0.0729 0.0991,-0.1079 0.15619,-0.15327 0.25386,-0.20167 0.29954,-0.18017 0.64193,-0.30171 1.81393,-0.35978 3.69422,-0.0854 5.51689,0.0814 2.76363,0.26451 5.39351,1.01385 7.90066,2.18248 2.55452,1.31731 4.46561,3.41251 5.91194,5.85516 0.55457,1.20049 0.85823,2.48198 0.92633,3.80242 0.0248,0.48171 -0.008,1.92937 -0.0108,1.44702 -0.13286,-21.76588 0.38988,-28.7074 -0.21644,-20.03267 -0.46283,3.3563 -2.43831,5.97352 -4.71905,8.34378 -2.15148,2.11771 -4.73156,3.6457 -7.50171,4.79461 -2.42375,0.90876 -4.96635,1.03672 -7.51248,0.76457 -2.17825,-0.27526 -4.16419,-1.15039 -6.034,-2.25917 -1.43729,-0.92872 -2.83447,-1.94811 -4.02828,-3.1794 -0.84794,-0.81212 -1.54258,-1.73498 -2.21816,-2.68714 -0.39414,-0.59176 -0.83823,-1.21943 -1.03938,-1.90753 -0.23345,-0.26857 -0.2373,-0.67799 -0.49048,-0.93761 -0.59214,-0.60719 -0.073,0.11177 -0.38894,-0.35052 -0.1882,-0.25554 0.15061,-0.43751 0.27597,-0.65977 0.0377,-0.0921 0.10072,-0.13469 0.17803,-0.1842 0,0 -3.8405,24.6769 -3.8405,24.6769 v 0 c 0.0796,0.0467 0.15529,0.092 0.21315,0.16796 0.26051,0.26961 0.60025,0.43182 0.86826,0.68538 0.17176,0.21134 0.2835,0.89907 0.58749,1.14338 0.48433,0.56438 0.92592,1.16501 1.45386,1.69465 0.81834,0.9049 1.72695,1.72373 2.68681,2.4764 1.4619,1.05283 2.96437,2.05337 4.58392,2.85124 2.21572,1.05129 4.53433,1.82348 6.98997,2.06598 2.92049,0.1984 5.80378,-0.0852 8.58569,-1.05352 3.12206,-1.16105 5.97169,-2.83819 8.43513,-5.10181 2.51202,-2.40008 4.99326,-4.93514 6.17185,-8.28435 2.50011,-9.37892 0.65678,-1.93741 0.40875,-26.09358 -0.02,-1.94745 -1.06253,-3.98602 -2.12908,-5.54832 -1.99398,-2.3964 -4.3108,-4.47604 -7.15782,-5.81827 -2.73629,-1.20092 -5.62157,-1.91006 -8.56298,-2.4212 -2.06376,-0.38722 -4.13597,-0.83998 -6.24029,-0.91091 -0.11006,0.005 -1.69927,0.0269 -1.71099,0.20778 -1.63382,25.20996 -9.38633,24.0695 0.0896,24.96618 0.34514,0.0372 0.66632,0.19444 1.00867,0.25059 1.11864,0.19746 2.24815,0.32975 3.38564,0.21403 1.99788,-0.19874 3.92999,-0.75159 5.76334,-1.57341 2.85622,-1.36773 5.49039,-3.14368 7.60773,-5.52705 2.60505,-3.03443 4.91031,-6.31505 6.4525,-10.02942 3.68976,-9.98056 1.82255,-18.74796 1.88965,-30.46369 0.004,-0.67183 -0.0321,-1.34461 -0.0994,-2.01308 -0.0619,-0.61435 -0.19171,-1.21994 -0.28756,-1.82991 -0.81104,-2.92992 -2.0024,-5.68447 -4.51529,-7.55715 -2.24997,-1.55682 -4.70753,-2.6595 -7.40938,-3.18296 -3.26254,-0.60573 -6.5635,-0.9442 -9.88133,-1.04643 -3.147,-0.051 -6.35439,-0.0824 -9.42074,0.72177 -2.18413,0.75511 -4.22843,1.74902 -5.65528,3.64414 -1.176,1.58704 -2.12977,3.28091 -2.8492,5.12497 z" />
    <path
       style="fill:#00ffff;fill-opacity:0.533333;stroke:#000000;stroke-width:1"
       id="path8"
       d="m 486.12037,339.41502 c 0.57815,2.82077 0.64622,5.74255 0.8042,8.6136 0.18671,5.22324 0.3572,10.44723 0.52203,15.67127 0.25077,5.70881 0.36406,11.42186 0.4159,17.13552 0.004,0.87947 0.009,1.75894 0.011,2.63842 0.004,1.5619 0.003,3.34774 4.8e-4,4.9132 -0.001,0.76542 -0.003,3.06168 -0.004,2.29625 -0.0322,-20.42469 0.117,-26.86541 -0.0651,-18.15774 -0.0501,2.71646 -0.15994,5.42826 -0.41268,8.13337 -0.13853,1.22066 -0.34184,2.43242 -0.50923,3.64918 -0.0556,0.37441 -0.0992,0.75038 -0.14771,1.1257 0.009,8.23819 0.0194,16.47637 0.0271,24.71455 0.001,1.3193 4.50342,0.27684 2.75288,0.27826 -0.81193,-0.0283 -0.1432,-0.0397 0.17941,-0.15442 0.86819,-0.22819 1.5524,-0.84123 2.1843,-1.45003 1.87233,-2.32205 3.12218,-5.06247 4.40791,-7.73249 2.24725,-4.7257 4.37722,-9.5056 6.55719,-14.26235 2.46614,-5.35543 5.18989,-10.58604 7.79722,-15.87288 2.20592,-4.62686 4.56095,-9.17933 6.88892,-13.74519 1.46395,-2.91478 2.90574,-5.84336 4.52804,-8.67441 0.6995,-1.14249 1.43042,-2.26613 2.17788,-3.37784 0.30199,-0.51132 0.76335,-0.86908 1.10143,-1.34311 0.0915,-0.16919 0.23021,-0.30074 0.36785,-0.4313 -0.0111,-0.0396 -0.22277,-0.002 -0.23891,-7.9e-4 -0.86635,-8.11406 -1.73269,-16.22813 -2.59903,-24.34219 -0.0188,15.76311 -8e-4,50.03844 0.0247,3.38626 2.6e-4,-0.49484 -5.3e-4,0.98976 -0.0115,1.48448 -0.013,0.58744 -0.0402,1.17449 -0.0604,1.76173 -0.61399,12.24684 -0.35337,24.52678 -0.35127,36.77905 0.1331,5.41479 0.23279,10.83011 0.36603,16.24485 0.14221,4.36025 0.38026,8.71616 0.5089,13.07686 0.17498,3.19871 0.25403,6.40116 0.27479,9.60424 0.007,1.58395 -0.0158,3.16773 -0.0374,4.75148 -0.37171,-40.45662 0.11583,-30.5759 -0.0256,-22.18687 -0.006,0.27932 -0.013,0.55872 -0.0129,0.83812 -0.0544,8.42819 0.47724,16.87096 -0.007,25.28581 -0.46578,8.27237 1.42314,-32.40538 -2.4e-4,-24.26766 0.004,8.24931 0.01,16.49862 0.0118,24.74793 3e-5,0.11364 -0.0118,0.45436 -0.0118,0.34072 0.0128,-24.30069 0.61515,-32.38513 0.008,-24.20585 7.9e-4,0.006 -0.0119,0.0779 -0.0123,0.0806 0,0 3.90994,24.68643 3.90994,24.68643 v 0 c -0.005,-0.0786 -0.0106,-0.1572 -0.0123,-0.23598 -0.0593,-1.54796 0.05,-64.26286 0.008,-0.77838 -0.34126,-8.32141 0.77057,-17.40683 -2.4e-4,-25.00142 -1.20207,-8.31217 0.0522,32.7484 -0.007,23.90317 2.7e-4,-0.32273 -0.007,-0.64547 -0.0111,-0.96818 -0.0984,-8.78858 0.25174,-17.5797 -0.0206,-26.36726 -0.0249,-1.34724 -0.0687,-2.69421 -0.13103,-4.04025 -0.13486,-2.94314 -0.30478,-5.88457 -0.42688,-8.8283 -0.19452,-4.13448 -0.47479,-8.265 -0.59018,-12.40308 -0.16664,-5.30566 -0.31299,-10.61267 -0.35864,-15.92091 -0.0122,37.16223 -0.31081,16.41086 0.40929,7.79795 0.92311,-9.2299 -0.22406,-16.84693 0.3319,-27.38299 0.40522,-7.67942 0.008,15.38021 0.0158,23.07031 2.7e-4,0.29881 0.0169,-1.02027 -0.004,-0.89643 -0.85777,-8.30621 4.86656,-27.90634 -2.91643,-24.88081 -0.20111,0.20675 -0.37559,0.43914 -0.59504,0.62814 -0.46131,0.52838 -0.69728,1.17802 -1.23593,1.66611 -0.96211,1.31922 -1.62425,2.81466 -2.38496,4.25334 -1.6174,3.21566 -2.96085,6.5599 -4.49151,9.81692 -2.24841,4.85487 -4.52088,9.69911 -6.79105,14.54371 -2.56043,5.25175 -5.30273,10.4105 -7.85889,15.66437 -2.14434,4.46845 -4.19069,8.98835 -6.57398,13.33757 -1.17796,2.10873 -2.34894,4.26394 -3.90885,6.11957 -0.2742,0.35312 -0.58672,0.64309 -0.92154,0.89743 -0.27263,0.0618 -0.01,-0.0103 0.0473,0.041 0.051,0.046 -0.94394,-0.0104 -1.02084,0.0438 -1.845,0.24689 2.55782,0.72866 2.61013,0.12545 0.007,8.11582 0.0144,16.23164 0.0216,24.34745 -0.0447,-0.48203 -0.071,-0.96587 -0.0667,-1.45016 0.01,-1.44704 0.12711,-2.88947 0.30654,-4.32524 0.36863,-3.06655 0.44632,-6.15363 0.45246,-9.24022 0.2093,-11.957 0.13477,-23.91919 -0.0453,-35.87637 -0.10796,-5.63312 -0.27679,-11.26425 -0.48839,-16.89445 -0.15392,-5.48691 -0.25211,-10.97545 -0.44591,-16.4611 -0.16175,-3.52277 -0.32268,-7.04726 -0.80317,-10.54442 z" />
    <path
       style="fill:#00ffff;fill-opacity:0.533333;stroke:#000000;stroke-width:1"
       id="path9"
       d="m 552.65193,335.98434 c 0.6829,3.16536 1.31535,6.34139 1.94698,9.5173 0.9856,5.11011 1.92281,10.23058 2.73401,15.37141 0.8263,5.49453 1.34892,11.02757 1.86822,16.55757 0.50069,4.91244 0.87049,9.8332 1.18989,14.75996 0.20837,3.67849 0.3856,7.35958 0.67768,11.03262 0.19112,2.4557 0.39939,4.90769 0.47406,7.37042 0.0317,1.23806 0.0136,2.47651 -0.0109,3.71447 -0.19232,9.15039 0.21212,-32.46594 -0.027,-22.92585 -0.006,0.23146 -0.007,0.46299 -0.01,0.69448 0.072,8.75046 4.11999,33.48253 3.84227,23.18386 -0.11457,-3.73224 0.0133,-7.46646 0.11524,-11.19748 0.1688,-5.66363 0.55351,-11.31723 0.99684,-16.96499 0.35452,-4.74229 0.94733,-9.46134 1.667,-14.16064 0.5621,-3.71839 1.32705,-7.3999 2.21456,-11.05289 0.67076,-3.00765 1.7488,-5.87017 3.18466,-8.58902 1.36547,-2.52943 3.29499,-4.5838 5.57159,-6.3032 2.24217,-1.57558 4.82214,-2.44599 7.45952,-3.08356 2.2513,-0.49044 4.53412,-0.47044 6.75639,0.11732 1.9561,0.58647 3.43695,1.88149 4.86865,3.26966 1.79221,1.95909 3.07804,4.29025 4.20896,6.67364 1.65121,3.66878 2.48593,7.59176 3.25067,11.51753 0.90119,4.74946 1.33804,9.5599 1.58541,14.38179 0.30493,9.18151 0.18845,30.7441 0.14174,-9.2039 -0.0526,2.9616 -0.16744,5.92152 -0.23406,8.8828 -0.0399,1.91949 -0.26896,3.82489 -0.52818,5.72455 -0.12667,0.90183 -0.2308,1.80654 -0.29886,2.71468 -0.51873,8.59006 0.0617,17.20995 -0.0349,25.81435 -0.004,0.2366 -0.008,0.47318 -0.008,0.70981 -0.0408,8.85699 0.20231,-32.56004 8e-4,-23.7849 0.0242,0.3675 -0.16174,0.52824 0.26442,0.6259 0.45141,0.15297 0.12027,0.17152 -0.121,0.35086 -0.23752,0.11485 -0.31071,0.24296 -0.35554,0.48767 0.10631,0.47498 0.33924,0.46904 0.75725,0.53841 0.0789,0.0136 0.15784,0.0272 0.23676,0.0408 0.0128,0.0117 0.0255,0.0234 0.0382,0.035 0,0 1.04743,24.86441 1.04743,24.86441 v 0 c 0.36026,-0.0774 0.14842,-0.0368 0.63759,-0.1101 0.50256,-0.11085 0.8961,-0.33879 1.1624,-0.74819 -0.0316,-0.23112 -0.0777,-0.31194 -0.3043,-0.37732 -0.068,-0.0788 -0.24445,-0.0419 -0.27906,-0.14002 -0.008,-0.0223 0.48308,-0.26488 0.48833,-0.28476 0.46485,-0.22294 0.30243,-0.28393 0.31592,-0.73107 -0.1495,-8.44451 0.0461,-16.89211 7.9e-4,-25.33762 -9e-5,-0.2168 -0.004,-0.4336 -0.0116,-0.65027 -0.21903,-8.95167 0.28721,32.86001 -0.0311,23.02328 -0.0299,-1.05049 -0.0354,-2.10213 0.0329,-3.1515 0.14812,-2.12005 0.45011,-4.22377 0.5917,-6.34459 0.15164,-3.21298 0.0673,-6.43361 0.17315,-9.64854 0.008,-11.76158 0.3199,-23.57532 -0.33282,-35.33591 -0.35821,-4.88309 -0.91429,-9.75168 -1.86622,-14.55856 -0.86568,-4.20373 -1.90334,-8.39849 -3.75563,-12.29326 -1.37176,-2.66171 -2.78925,-5.37601 -5.03184,-7.42102 -1.806,-1.51389 -3.77515,-2.7717 -6.10419,-3.31019 -2.59623,-0.46118 -5.22172,-0.34576 -7.80028,0.21842 -2.9191,0.66119 -5.76523,1.63279 -8.34544,3.1787 -2.62202,1.70321 -4.89034,3.80518 -6.56517,6.47427 -1.78812,2.7625 -3.11003,5.73684 -3.81362,8.96752 -0.95299,3.79838 -1.81784,7.62247 -2.35866,11.50456 -0.75963,4.93531 -1.36645,9.89511 -1.72927,14.8765 -0.4283,5.51794 -0.82469,11.03866 -1.14059,16.56429 -0.17358,3.0905 -0.34455,6.18181 -0.51241,9.27192 -0.33631,8.21316 4.01057,34.3184 3.84232,25.3465 -0.003,-0.24664 -0.003,-0.4933 -0.007,-0.73993 -0.0997,-8.61229 0.22937,-17.22923 -0.0216,-25.83881 -0.0369,-1.07447 -0.0974,-2.14807 -0.19771,-3.21867 -0.20501,-2.2206 -0.45695,-4.43671 -0.62762,-6.66049 -0.26481,-3.43015 -0.51572,-6.8613 -0.77267,-10.29205 -0.36968,-4.74827 -0.84397,-9.4864 -1.32979,-14.22408 -0.56069,-5.5028 -1.1402,-11.00671 -2.01678,-16.47009 -0.86493,-5.32155 -1.7983,-10.63175 -2.7046,-15.94637 -0.63927,-3.75653 -1.31614,-7.51605 -1.58602,-11.32186 z" />
    <path
       style="fill:#00ffff;fill-opacity:0.533333;stroke:#000000;stroke-width:1"
       id="path10"
       d="m 635.34164,337.70408 c 0.64521,-43.06077 0.42369,-25.03943 -0.45633,-15.37975 -0.38487,4.65297 -1.025,9.2783 -1.64306,13.90437 -0.69655,5.11542 -1.24608,10.24732 -1.60651,15.39706 -0.52322,11.88374 -0.61852,23.80879 -0.0253,35.69133 0.20151,3.42372 0.61965,6.83015 1.15442,10.21641 0.35334,2.29809 1.02607,4.53134 1.90521,6.6795 0.71539,1.67199 1.64755,3.22864 2.83157,4.6073 0.91383,1.01963 1.98635,1.90025 3.27757,2.3746 1.62737,0.57356 3.22121,0.0197 4.73758,-0.6097 2.18547,-0.97501 4.15722,-2.33439 6.03666,-3.80023 2.32799,-1.88212 4.32858,-4.12149 6.33861,-6.32856 2.41583,-2.56708 4.24236,-5.58455 5.94803,-8.64792 2.23879,-4.26674 3.70175,-8.87234 5.09449,-13.46728 1.39349,-4.82713 2.82021,-9.64249 4.38542,-14.41688 1.08068,-3.35122 2.28961,-6.65846 3.46777,-9.97598 0.73136,-2.07102 1.34198,-4.18154 2.03447,-6.26526 0.29906,-0.99758 0.64389,-1.99814 0.82049,-3.02662 0.16089,-0.4575 0.35238,-0.91694 0.59888,-1.3363 3.43479,-7.5813 0.21172,-22.66484 0.20989,-25.30562 0.14523,-1.54767 -3.06381,-0.22024 -3.88045,-0.20634 0.005,8.25571 0.007,16.51143 0.0148,24.76713 1.8e-4,0.20066 0.0155,0.40101 0.0238,0.6015 0.006,0.19005 0.019,0.76033 0.0194,0.57016 0.014,-7.61692 0.005,-15.23388 0.0216,-22.85079 10e-4,-0.45911 0.0164,0.91807 0.0246,1.37711 0.0574,4.56169 -0.16139,9.12232 -0.33556,13.67965 -0.23476,5.50062 -0.36066,11.00487 -0.43841,16.50969 -0.21118,12.04491 -0.18003,24.08415 0.34267,36.11504 0.18067,3.3464 0.43759,6.68799 0.56773,10.03697 0.0608,1.6426 0.0561,3.28627 0.0315,4.92945 -0.18629,10.14656 0.11709,-32.05162 -0.0338,-22.34493 -0.005,0.20241 -0.008,0.40479 -0.018,0.60702 0.004,0.0177 -0.005,0.0387 -0.008,0.0546 0.006,8.25862 0.0112,16.51725 0.0169,24.77588 -0.47489,8.65136 0.45417,-32.52275 -0.0121,-23.99955 5.93173,7.99127 -0.07,16.96374 0.006,25.4286 0.0366,9.04437 0.10174,-32.40853 0.002,-23.57584 -0.005,0.20866 -0.001,0.41739 -0.006,0.62606 -5.3e-4,0.0406 -0.003,0.0811 -0.005,0.12167 0,0 3.90488,24.6543 3.90488,24.6543 v 0 c -0.002,-0.0595 -0.004,-0.11895 -0.004,-0.17845 -0.004,-0.23242 -9.9e-4,-0.46486 -0.006,-0.69727 -0.0839,-8.50063 -0.0339,-17.00282 0.002,-25.50381 0.0666,-8.30898 -6.13977,-17.29246 0.006,23.75293 -0.10445,-8.36578 1.48703,-16.90875 -0.0119,-25.11139 0.0186,27.16642 0.44542,32.49036 0.009,24.28687 -0.008,-0.26195 -0.0104,-0.52399 -0.0134,-0.78603 -0.0556,-8.7441 0.26696,-17.49333 -0.035,-26.23274 -0.0547,-1.3955 -0.14733,-2.7894 -0.26849,-4.1807 -0.25782,-3.04373 -0.53253,-6.08662 -0.67599,-9.13865 -0.4553,-8.72301 -0.59369,-29.51026 -0.366,8.13704 0.0336,-5.50031 0.0887,-11.0021 0.36272,-16.49675 0.21028,-4.04258 0.4132,-8.08539 0.68204,-12.12453 0.27283,-11.84228 -0.0985,-57.14083 0.1031,-3.13266 -0.37801,-0.006 -3.99528,-1.28195 -3.8738,0.0183 -0.0131,-24.94372 -2.1837,-32.04616 0.14854,-23.76194 0.12509,0.50391 -0.0216,1.07332 -0.18415,1.55024 -0.50177,1.11641 -0.6116,2.3695 -0.86568,3.55714 -0.52921,2.34325 -1.21708,4.65128 -1.82536,6.97467 -1.1104,3.64628 -2.34744,7.25417 -3.37343,10.92676 -1.49409,4.88506 -3.022,9.75886 -4.37873,14.68492 -1.30443,4.30416 -2.68243,8.60398 -4.72916,12.6247 -1.5417,2.88684 -3.25681,5.69748 -5.45833,8.13682 -1.87559,2.11904 -3.72453,4.28316 -5.92983,6.07363 -1.67366,1.27653 -3.41128,2.49677 -5.36769,3.30563 -0.91632,0.31348 -1.86404,0.71454 -2.78039,0.20918 -0.82857,-0.56799 -1.58913,-1.19527 -2.15759,-2.04002 -0.90558,-1.33074 -1.61597,-2.77585 -2.1317,-4.30238 -0.66565,-1.98696 -1.20656,-4.00895 -1.50043,-6.08822 -0.49261,-3.17836 -0.84514,-6.37714 -0.99368,-9.5914 -0.33889,-7.75983 -0.0752,-19.44247 -0.17692,16.09021 -0.002,0.79091 -0.0151,-1.58176 -0.0158,-2.37267 -0.003,-2.73617 0.002,-2.15656 0.0957,-4.9161 0.25231,-5.13539 0.71269,-10.25301 1.44363,-15.34422 0.61074,-4.39396 1.31109,-8.77635 1.81846,-13.18398 1.28788,-10.68129 2.52713,-19.83864 0.93744,-31.54655 z" />
    <path
       style="fill:#00ffff;fill-opacity:0.533333;stroke:#000000;stroke-width:1"
       id="path11"
       d="m 704.28341,345.24968 c 2.61716,-1.06637 5.49077,-1.30614 8.27919,-1.57173 4.28758,-0.33122 8.58602,-0.50201 12.88422,-0.61851 4.46972,-0.11159 8.93816,-0.21918 13.40183,-0.48427 3.47124,-0.21299 6.9303,-0.57843 10.3997,-0.81546 2.05235,-0.11265 4.10451,-0.2548 6.16003,-0.29438 0.83611,-0.0118 1.67949,-0.01 2.49997,0.16847 0.0914,7.9e-4 0.17259,0.0597 0.23982,0.0954 0,0 0.0725,-24.96799 0.0725,-24.96799 v 0 c -0.1229,0.0316 -0.24527,0.0653 -0.36815,0.0973 -0.8805,0.21054 -1.78019,0.31414 -2.67403,0.45142 -2.06453,0.3479 -4.11674,0.76647 -6.18842,1.07253 -3.4366,0.5245 -6.85202,1.19568 -10.3182,1.51335 -4.41135,0.42861 -8.83285,0.71893 -13.26739,0.73071 -4.32279,0.0463 -8.64542,0.10717 -12.96855,0.0846 -2.84997,0.0463 -5.70655,0.24632 -8.5534,0.11296 z" />
    <path
       style="fill:#00ffff;fill-opacity:0.533333;stroke:#000000;stroke-width:1"
       id="path12"
       d="m 704.72994,339.09965 c 0.09,2.33591 0.0826,4.67523 0.0995,7.0127 -0.0246,3.78677 0.12863,7.56951 0.27447,11.35233 0.19249,4.12655 0.45988,8.24904 0.66903,12.37468 0.2947,4.19092 0.40098,8.39091 0.45684,12.59072 0.0295,3.79809 0.0278,7.59637 0.0122,11.39452 -0.003,-7.05926 -0.002,-14.11853 -0.008,-21.1778 -5.3e-4,-0.49629 -0.006,0.99257 -0.009,1.48885 -2e-5,0.002 -0.0178,2.65046 -0.0177,2.7052 0.0121,8.17499 0.0173,16.34999 0.0468,24.52493 0.002,0.42225 0.0309,0.84394 0.0464,1.26591 0.18371,2.1836 0.2713,4.37318 0.30503,6.56373 0.0142,1.15047 -0.002,2.30097 -0.0231,3.45124 -0.23331,9.02609 0.26194,-32.50556 -0.0246,-23.20972 -0.004,0.0825 -0.007,0.165 -0.0103,0.24752 -0.24458,8.40057 0.22796,16.81126 0.006,25.21266 -0.27196,8.54028 1.19499,-32.36739 -0.009,-24.09945 -5.3e-4,-0.002 -10e-4,-0.004 -0.002,-0.006 0,0 3.91009,24.6877 3.91009,24.6877 v 0 c -5.3e-4,-0.005 -0.001,-0.01 -0.002,-0.0145 -0.4902,-8.35978 0.43963,-16.75986 -0.009,-25.12204 -0.34408,-8.6662 0.20231,32.39621 0.006,23.98732 -0.005,-0.10841 -0.006,-0.21698 -0.008,-0.3255 -0.13608,-8.54403 0.30511,-17.09628 -0.0215,-25.63576 -0.0291,-0.99149 -0.0729,-1.98246 -0.13758,-2.97231 -0.13334,-2.03492 -0.30358,-4.06856 -0.35951,-6.10755 -0.22995,-8.53124 -0.0244,-1.31262 -0.042,20.74504 -2.7e-4,0.46945 -0.004,-0.93889 -0.007,-1.40834 -5.3e-4,-0.0976 -0.0156,-3.07107 -0.0156,-3.10531 -0.005,-8.15923 -0.005,-16.31846 -0.007,-24.47769 -0.0191,-3.67769 -0.0231,-7.35579 -0.11206,-11.03267 -0.10349,-4.19222 -0.27143,-8.38171 -0.53761,-12.56706 -0.22571,-4.14133 -0.46598,-8.28231 -0.62125,-12.42703 -0.1259,-3.93246 -0.18286,-7.86631 -0.12239,-11.80077 0.0182,-2.7563 0.0197,-5.51343 0.0995,-8.26879 z" />
    <path
       style="fill:#00ffff;fill-opacity:0.533333;stroke:#000000;stroke-width:1"
       id="path13"
       d="m 710.293,379.72309 c 1.3777,-1.78933 3.33933,-2.92608 5.35949,-3.84655 3.52726,-1.40818 7.30783,-1.40007 11.03703,-1.21426 5.11781,0.34141 10.018,1.77747 14.78889,3.57615 3.7533,1.51979 7.49786,3.0937 10.97539,5.1803 2.1371,1.41228 4.07681,2.84253 4.85777,5.37283 -0.009,0.28559 0.0116,0.57357 -0.0262,0.8568 -0.0389,0.29211 -0.19968,1.15515 -0.20297,0.86047 -0.0841,-7.55242 0.036,-15.10613 -0.0398,-22.65865 -0.004,-0.41741 -0.0776,0.83412 -0.1752,1.23997 -0.29705,1.23498 -0.63558,1.78103 -1.18692,2.94108 -1.81676,3.43394 -4.74406,5.89355 -7.91945,8.01387 -3.10272,1.97091 -6.45551,3.4953 -9.82317,4.94811 -2.60662,1.12068 -5.32093,1.96036 -8.06201,2.67919 -2.0726,0.54799 -4.20366,0.8221 -6.33056,1.05694 -1.46222,0.1486 -2.92191,0.31361 -4.37863,0.5099 -0.89348,0.12135 -1.77024,0.33281 -2.66079,0.47063 -0.50714,0.0517 -1.0127,0.0921 -1.51767,0.16136 -0.18105,0.0343 -0.36136,0.0854 -0.54635,0.0852 -0.20464,0.006 -0.41052,0.0157 -0.61544,0.006 -0.23456,5.3e-4 -0.47019,0.009 -0.70461,-0.002 -0.23614,0.002 -0.47318,0.0124 -0.70928,-5.3e-4 -0.17167,-0.0449 -0.32716,-0.0161 -0.49946,0.006 -0.19931,0.021 -0.10015,0.0166 -0.29748,0.0138 0,0 0,24.83609 0,24.83609 v 0 c 0.19737,-0.003 0.0982,-0.007 0.29751,0.0138 0.17226,0.0223 0.32772,0.0511 0.49935,0.006 0.2352,-0.0129 0.47135,-0.003 0.70657,-1.9e-4 0.23331,-0.0107 0.46784,-7.9e-4 0.70124,0.001 0.25679,-0.0106 0.51398,0.007 0.77091,-0.009 0.3507,-0.0334 0.70203,-0.0498 1.03921,-0.16415 0.44593,-0.19964 0.89289,-0.26184 1.37972,-0.34351 0.8736,-0.21877 1.71906,-0.5329 2.59343,-0.7501 1.42462,-0.32449 2.85022,-0.64354 4.28999,-0.89637 2.22465,-0.40264 4.44443,-0.84778 6.62448,-1.45146 2.8743,-0.85098 5.68027,-1.904 8.4001,-3.16852 3.44961,-1.63097 6.88489,-3.31502 10.15087,-5.29368 3.36836,-2.12307 6.63325,-4.43933 9.01486,-7.69322 0.30005,-0.41875 2.30857,-3.12385 2.32455,-3.59621 0.0408,-1.20569 3.89178,-19.23961 -0.56642,-26.48521 -1.71482,-2.01704 -3.88916,-3.51081 -6.26726,-4.66333 -3.67948,-1.69113 -7.50604,-3.01698 -11.361,-4.24964 -5.0282,-1.57165 -10.08855,-3.121 -15.33093,-3.80069 -4.01424,-0.48714 -8.09537,-0.79437 -12.06716,0.18953 -2.24143,0.67966 -4.281,1.68508 -6.29406,2.87245 z" />
    <path
       style="fill:#00ffff;fill-opacity:0.533333;stroke:#000000;stroke-width:1"
       id="path14"
       d="m 135.50384,343.55615 c 0.5913,3.36961 0.87152,6.78588 1.09569,10.19669 0.24077,4.94777 0.38437,9.89975 0.46893,14.85252 0.0925,4.70233 0.29403,9.40058 0.5048,14.09866 0.20328,3.80201 0.44398,7.60144 0.57004,11.40705 0.0766,2.71728 0.0779,5.43583 0.069,8.15392 -0.0522,8.20201 0.0281,18.7642 -0.013,-20.35816 0,-0.28901 -0.007,0.5781 -0.0214,0.86675 -0.006,0.12848 -0.10618,1.33477 -0.11847,1.48454 -0.13355,1.05485 -0.28411,2.10795 -0.58515,3.12929 -0.24603,0.44956 -0.12945,0.95176 -0.35892,1.39706 -0.0663,0.13281 -0.11638,0.27671 -0.22977,0.37462 -0.005,0.0302 -0.0933,-0.006 -0.0887,0.0243 1.24494,8.12652 2.50555,16.25067 3.78912,24.37117 0.0292,0.18489 -0.0159,-0.43047 -0.0185,-1.07743 -0.0343,-8.24743 -0.0612,-16.49489 -0.0918,-24.74233 -0.35361,-7.80454 -0.0439,-17.96085 -0.0691,19.72801 0,0.60678 -0.01,-1.21358 -0.004,-1.82033 0.0185,-1.93318 0.0446,-2.06173 0.14105,-4.01363 0.24699,-4.40574 0.9094,-8.76702 1.73606,-13.09642 0.70332,-3.59592 1.59039,-7.15062 2.67168,-10.6507 0.90059,-2.62586 1.77602,-5.25984 2.64145,-7.89756 0.75046,-2.27206 1.5499,-4.52772 2.48382,-6.73117 0.84993,-1.86471 2.00713,-3.5556 3.20009,-5.21247 1.25505,-1.76533 2.6153,-3.44284 4.10749,-5.01158 1.28847,-1.42094 2.7894,-2.59626 4.37689,-3.65943 1.49529,-0.94036 2.94918,-1.9439 4.41513,-2.9288 1.24412,-0.89535 2.59098,-1.60931 3.99436,-2.21605 1.0631,-0.45694 2.17048,-0.62859 3.3142,-0.50675 1.14633,0.12765 2.07129,0.81966 2.99717,1.44772 1.00158,0.71912 1.89341,1.56588 2.72891,2.46832 1.20883,1.53483 2.11032,3.27231 2.90354,5.04926 0.91252,2.32655 1.52249,4.7518 2.0647,7.18648 0.65434,3.09494 0.86911,6.26498 1.03455,9.41782 0.15515,3.77473 0.16269,7.55362 0.16211,11.33092 -0.014,7.98409 0,20.03631 -0.007,-17.08105 -1.3e-4,-0.60581 0,1.21162 -0.003,1.81742 -0.003,1.98771 -0.003,1.49624 -0.0138,3.42191 0.0341,3.03579 -0.23284,6.05853 -0.57481,9.07117 -0.30321,2.85778 -0.85161,5.67302 -1.54228,8.45953 -0.64593,2.71567 -1.62978,5.3225 -2.82946,7.83735 -1.20089,2.49232 -2.66001,4.84807 -4.09249,7.2113 -1.63341,2.71114 -3.57905,5.2079 -5.56455,7.66541 -2.05721,2.52613 -4.16549,5.00731 -6.43732,7.34334 -1.92638,1.97571 -3.99554,3.80094 -6.08555,5.59963 -1.78049,1.53205 -3.5761,3.04607 -5.35525,4.57965 -1.03171,0.93834 -2.13809,1.79188 -3.28059,2.59029 -0.64783,0.44268 -1.31247,0.86805 -1.89407,1.39772 -0.38151,0.3751 -0.8376,0.62307 -1.31895,0.84698 -0.38037,0.21062 -0.64656,0.54766 -0.9511,0.84652 -0.18725,0.24405 -0.39174,0.48178 -0.61431,0.69478 -0.22296,0.18628 -0.40483,0.40992 -0.63653,0.58588 -0.18103,0.12697 0.044,-0.03 -0.0902,0.0614 0,0 1.89488,24.86852 1.89488,24.86852 v 0 c 0.0584,-0.0717 0.0265,-0.033 0.096,-0.1161 0.19852,-0.22816 0.42813,-0.42006 0.62646,-0.64774 0.25897,-0.24681 0.53252,-0.47862 0.79539,-0.72157 0.22913,-0.28395 0.51155,-0.53274 0.64883,-0.87757 0.0714,-0.50466 0.93152,-0.61244 1.22915,-0.96049 0.65634,-0.49043 1.17015,-1.14536 1.81499,-1.65317 1.18744,-0.9982 2.36186,-2.01346 3.48508,-3.08426 1.68385,-1.72816 3.39546,-3.43315 5.22062,-5.01335 2.1472,-1.86345 4.35473,-3.67273 6.30137,-5.75133 2.27859,-2.43815 4.39701,-5.01425 6.57331,-7.5424 2.08206,-2.41368 4.17227,-4.83188 5.88761,-7.52853 1.5095,-2.30028 3.06444,-4.58473 4.37959,-7.00146 1.27207,-2.59996 2.46912,-5.24839 3.24789,-8.04489 0.81902,-2.82389 1.54263,-5.6699 1.84783,-8.60334 0.421,-3.08227 0.82827,-6.17548 0.83108,-9.29271 -0.0447,-11.19253 0.0346,-22.38536 -0.0193,-33.57788 -0.029,-3.82493 -0.0438,-7.65257 -0.27691,-11.4719 -0.23961,-3.31119 -0.53229,-6.62951 -1.36916,-9.85384 -0.64852,-2.6001 -1.31318,-5.22478 -2.54733,-7.62096 -1.03841,-1.92592 -2.09278,-3.87722 -3.59066,-5.49295 -1.00359,-1.0286 -2.08349,-1.98383 -3.34368,-2.69081 -1.28,-0.71349 -2.62202,-1.2922 -4.09527,-1.45332 -1.56654,-0.14616 -3.03908,0.062 -4.5058,0.65831 -1.56446,0.62953 -3.08872,1.35717 -4.4622,2.34765 -1.4783,0.9918 -2.91563,2.04272 -4.40489,3.01775 -1.72344,1.14972 -3.45638,2.31096 -4.87669,3.83794 -1.56731,1.60188 -3.09004,3.23737 -4.40066,5.06187 -1.31402,1.6861 -2.6679,3.36258 -3.67339,5.25842 -1.18068,2.26374 -1.92755,4.7022 -2.73064,7.11861 -0.90479,2.70589 -1.80191,5.41409 -2.66689,8.13297 -1.1222,3.71618 -2.05078,7.48554 -2.82665,11.28945 -0.85008,4.28584 -1.61967,8.59372 -2.02919,12.94735 -1.07784,10.78812 -0.49448,21.66371 -0.35865,32.49343 -0.0114,-7.73876 -0.0175,-15.47755 -0.0343,-23.21631 0,-0.12976 -0.0225,0.70656 -0.0214,0.71303 1.98318,13.15963 11.8193,26.58356 3.70136,24.78366 -0.0784,-0.15398 -0.05,-0.33473 -0.0494,-0.50514 0.008,-0.58524 0.47202,-1.07439 0.36529,-1.68753 0.21867,-1.1858 0.62907,-2.32942 0.76795,-3.53196 1.75159,-9.61952 0.36594,-19.53334 0.38957,-29.28993 -0.034,-2.57134 -0.0805,-5.14336 -0.2368,-7.71075 -0.219,-3.61329 -0.49549,-7.22311 -0.66193,-10.83958 -0.2366,-4.5421 -0.43262,-9.08617 -0.51181,-13.63418 -0.11251,-5.0152 -0.25893,-10.03116 -0.54761,-15.03967 -0.27993,-4.04083 -0.68189,-8.07369 -0.8659,-12.12055 z" />
    <path
       style="fill:#00ffff;fill-opacity:0.533333;stroke:#000000;stroke-width:1"
       id="path15"
       d="m 94.059425,274.70256 c 0.6246,-8.17885 0.0489,-0.83941 0.1166,22.32022 0,0.35282 -0.029,-0.70617 -0.009,-1.05844 0.0691,-1.22193 0.41849,-2.30291 0.83566,-3.44132 1.11519,-2.54929 3.19445,-4.26434 5.494425,-5.70376 2.58156,-1.50585 5.42073,-1.87995 8.34958,-1.64253 2.70775,0.32955 5.03667,1.48435 7.06052,3.26599 0.20656,0.28343 0.44526,0.54601 0.61965,0.85029 0.61471,1.07256 0.84557,2.40814 0.91244,3.62312 0.0317,0.57556 0.003,2.30571 -0.003,1.72929 -0.0432,-6.74243 -0.0781,-13.48491 -0.11708,-20.22736 -0.3714,6.3269 -2.86256,12.18842 -5.41105,17.89921 -3.0077,6.31651 -6.59386,12.33424 -10.23109,18.30272 -3.264065,5.29885 -6.556435,10.58032 -9.858725,15.85542 -2.65147,4.23089 -5.13551,8.56274 -7.37217,13.02665 -1.64666,3.32344 -2.99936,6.7789 -4.15567,10.29992 -0.88001,2.60081 -1.32652,5.30523 -1.60989,8.02705 -0.53295,9.39269 -0.13655,1.9736 -0.0608,25.82328 0.005,1.62172 0.26538,3.25618 0.56224,4.84469 0.50411,2.45724 0.89265,4.94261 1.58723,7.35537 0.52819,1.9327 1.42283,3.74093 2.4007,5.48097 0.92498,1.73573 1.94032,3.4167 3.09682,5.00757 0.89651,1.2724 2.07658,2.25337 3.38809,3.0679 1.20989,0.85584 2.5836,1.43764 4.00492,1.83286 1.79747,0.4619 3.65006,0.62536 5.49362,0.78219 2.248965,0.17224 4.505205,0.21661 6.759055,0.14704 2.12847,-0.0286 4.12165,-0.57504 6.02139,-1.50102 1.85359,-0.97268 3.42138,-2.37616 4.92021,-3.81713 1.84468,-1.69664 2.7459,-3.89808 3.42855,-6.25097 0.10408,-0.50187 0.22577,-1.00039 0.31229,-1.50558 0.16118,-0.94117 0.33094,-2.37962 0.33436,-3.32597 0.0358,-9.94209 0.74189,-18.77952 -0.37465,-28.19706 -0.5251,-3.80966 -1.64815,-7.5064 -2.83755,-11.15317 -1.2006,-3.66135 -2.92971,-7.11383 -4.571,-10.59019 -1.33612,-2.9358 -2.92037,-5.74071 -4.58914,-8.49683 -1.27337,-2.11505 -2.56075,-4.22121 -3.88647,-6.30414 -0.86503,-1.46961 -1.88111,-2.83761 -2.82776,-4.25322 -0.87037,-1.34849 -1.59626,-2.79425 -2.288595,-4.24205 -0.51017,-1.12515 -0.94422,-2.29959 -1.28829,-3.48691 -0.16274,-0.56911 -0.0344,-1.13329 0.0381,-1.7019 1.36787,-9.05645 -0.19024,32.42285 0.0721,23.61502 0.004,-0.13882 0.009,-0.27767 0.0198,-0.41613 -0.003,-0.0102 0.004,-0.0196 0.006,-0.0289 0,0 -3.90382,-24.68483 -3.90382,-24.68483 v 0 c 0.003,0.0184 0.007,0.0368 0.006,0.0557 0.007,0.17243 0.0109,0.34497 0.0124,0.51756 0.0135,8.47839 -2.06159,17.22253 0.0845,25.43264 0.16528,0.55474 0.44444,1.05659 0.72562,1.56019 0.52178,1.03577 0.99443,2.09685 1.59107,3.09485 0.80539,1.46415 1.60591,2.93336 2.58744,4.29026 0.931455,1.33269 1.885305,2.64952 2.815395,3.98309 1.33006,1.93475 2.61768,3.89699 3.84054,5.90169 1.58406,2.57952 3.10597,5.19749 4.40724,7.93383 1.62777,3.40567 3.17394,6.85535 4.26014,10.47931 1.08981,3.65261 2.06073,7.36097 2.34563,11.1769 0.52083,8.03508 0.11068,20.16029 0.20373,-17.36575 0,-0.52792 0.022,1.0559 0.0122,1.58373 -0.009,0.49344 -0.0285,0.98713 -0.0693,1.47897 -0.0381,0.45808 -0.11155,0.91254 -0.16729,1.36881 -0.37352,2.04582 -0.84321,4.06424 -2.24073,5.67801 -1.21497,1.41439 -2.54149,2.76006 -4.1274,3.7603 -1.55112,0.87216 -3.18574,1.51015 -4.98787,1.59358 -2.12527,0.14309 -4.25305,0.13721 -6.364655,-0.18602 -1.68233,-0.25564 -3.38124,-0.52356 -4.9889,-1.09901 -1.1778,-0.48706 -2.28703,-1.09355 -3.29674,-1.87786 -0.98753,-0.81338 -1.87124,-1.7252 -2.58019,-2.79798 -1.03685,-1.52803 -1.98374,-3.11547 -2.76143,-4.793 -0.76911,-1.73137 -1.49082,-3.48384 -1.91772,-5.33684 -0.55092,-2.35525 -1.03942,-4.72741 -1.34007,-7.12922 -0.11694,-1.21844 -0.21071,-2.43112 -0.25029,-3.65488 -0.0124,-0.38762 -0.0259,-1.55097 -0.027,-1.16315 -0.0581,19.54256 0.0217,29.59831 -0.045,20.75263 0.0297,-2.77303 0.39497,-5.52918 1.05987,-8.22324 0.9298,-3.76044 2.09671,-7.45632 3.70091,-10.99003 2.07904,-4.71697 4.40775,-9.30981 7.06379,-13.7317 3.2158,-5.50851 6.513935,-10.96819 9.798315,-16.43594 3.62717,-6.04477 7.21963,-12.11577 10.44098,-18.38973 2.65211,-5.32098 5.24458,-10.74144 6.42909,-16.61074 0.0438,-8.21747 0.17653,-16.43495 0.13147,-24.65242 -0.0153,-2.80152 -1.19626,-5.52201 -3.45146,-7.18967 -2.57271,-1.57909 -5.36821,-2.61481 -8.38976,-2.93409 -3.34348,-0.20483 -6.65186,0.12347 -9.713025,1.59328 -2.67373,1.37167 -5.14769,3.09978 -6.89952,5.59239 -0.56472,0.88156 -1.91947,3.16148 -1.92952,4.22668 -0.2217,23.50933 -1.3575,16.64786 0.19753,25.62147 z" />
    <path
       style="fill:#00ffff;fill-opacity:0.533333;stroke:#000000;stroke-width:1"
       id="path16"
       d="m 30.529795,288.34838 c 0.83881,2.6725 1.17755,5.47584 1.45047,8.25388 0.32396,4.00172 0.33682,8.01927 0.36375,12.03132 0.006,1.95978 0.008,2.17806 0.005,4.13608 -0.003,0.67288 -0.007,2.69153 -0.007,2.01865 -0.0342,-36.65751 0.0453,-25.14831 -0.0367,-17.2821 -0.019,2.91828 -0.30353,5.82108 -0.75952,8.70066 -0.2731,2.18914 -1.06021,4.20868 -2.03573,6.16716 -1.20547,2.30411 -2.88131,4.28577 -4.72599,6.09762 -2.062,1.83151 -4.28169,3.4693 -6.35701,5.28718 -2.19842,2.08263 -4.23079,4.34081 -6.10616,6.71706 -1.89103,2.40266 -3.15142,5.18329 -4.28791,7.99823 -1.15435,2.85502 -1.58234,5.89153 -1.82539,8.93848 -0.19103,10.75856 -1.329,21.54212 1.16559,32.02284 0.66813,2.81407 1.54038,5.56454 2.52072,8.28318 0.88886,2.40977 1.86997,4.80459 3.1133,7.05507 0.972,1.98261 2.41948,3.58708 4.10186,4.98566 1.52826,1.2132 3.01641,2.48991 4.67648,3.52089 1.58605,0.98815 3.30922,1.7234 5.04957,2.39095 1.75234,0.63656 3.51484,1.22979 5.33094,1.655 1.83914,0.40978 3.71242,0.63282 5.57593,0.89876 1.76676,0.28537 3.54433,0.33207 5.32133,0.14602 1.9246,-0.19572 3.71893,-0.93402 5.4792,-1.69039 1.86058,-0.82917 3.66699,-1.77779 5.41599,-2.82089 1.71233,-0.99361 3.20509,-2.28133 4.63011,-3.64254 1.52008,-1.50043 2.64866,-3.31146 3.66789,-5.17217 1.11471,-2.14031 1.71286,-4.47764 2.1232,-6.84053 1.2011,-10.16075 1.38795,-20.569 -0.25614,-30.67571 -0.32491,-2.48007 -1.19571,-4.82493 -2.07005,-7.15155 -1.06394,-2.51805 -2.24475,-4.98365 -3.43985,-7.44123 -1.20515,-2.32911 -2.584,-4.56331 -3.99531,-6.77173 -1.25026,-1.94466 -2.56614,-3.84472 -3.87832,-5.74811 -0.96086,-1.3845 -2.05647,-2.68255 -3.17897,-3.9403 -0.86095,-0.95238 -1.72489,-1.91246 -2.50899,-2.93029 -0.75454,-0.91088 -1.47444,-1.84638 -2.06594,-2.87236 -0.41167,-0.86069 -1.06524,-1.57956 -1.49424,-2.42632 -0.32739,-0.5253 -0.54771,-1.08598 -0.85868,-1.61884 -0.42137,-0.23406 -0.55424,-0.62547 -0.7916,-1.0092 -0.19709,-0.1533 -0.91898,-0.47813 -0.59193,-0.7614 0.15761,-0.20351 0.36576,-0.33738 0.46802,-0.59012 0.0387,-0.0936 0.0185,-0.0503 0.0588,-0.13043 0,0 -3.86564,24.64211 -3.86564,24.64211 v 0 c 0.0945,0.15562 -0.0483,-0.0914 0.0654,0.10767 0.17994,0.31546 0.46561,0.50922 0.77528,0.68911 0.27617,0.13775 0.76462,0.39076 0.6799,0.70703 0.20939,0.27984 0.64254,0.60858 0.6322,0.94516 0.29945,0.50854 0.62608,0.98848 0.98282,1.46186 0.57176,0.71189 1.01349,1.51764 1.56747,2.2436 0.74684,0.95402 1.52649,1.88141 2.30809,2.80688 0.86027,0.96607 1.69982,1.94977 2.60406,2.87583 1.03769,1.15714 2.072,2.31508 2.94878,3.60321 1.31199,1.7566 2.61083,3.5241 3.76603,5.3899 1.33659,2.17282 2.62456,4.37855 3.753,6.668 1.19753,2.45659 2.30839,4.95856 3.1532,7.56143 0.75417,2.29788 1.37015,4.63098 1.59383,7.0486 0.10363,0.99195 0.16975,1.47473 0.21203,2.46741 0.0175,0.40978 0.0214,1.64038 0.0228,1.23024 0.11739,-38.56527 0.2319,-27.87899 0,-19.79579 -0.18585,2.25055 -0.52105,4.483 -1.37454,6.59128 -0.75885,1.78537 -1.73646,3.47517 -2.93296,5.00574 -1.19668,1.36138 -2.56696,2.55665 -4.07297,3.56835 -1.58472,1.09115 -3.24514,2.08447 -5.02113,2.83436 -1.53567,0.65521 -3.0993,1.28291 -4.76538,1.51048 -1.58896,0.16963 -3.17122,0.1416 -4.7593,-0.0555 -1.78133,-0.20587 -3.55857,-0.48343 -5.30066,-0.91354 -1.6872,-0.44546 -3.36093,-0.9678 -4.9843,-1.60854 -1.57843,-0.6896 -3.14439,-1.42606 -4.57793,-2.38934 -1.49032,-1.05998 -2.95577,-2.16558 -4.30046,-3.40754 -1.35247,-1.40333 -2.44917,-2.97947 -3.2966,-4.74097 -1.07455,-2.21025 -2.05285,-4.46517 -2.80022,-6.80979 -0.88797,-2.62364 -1.70442,-5.27557 -2.25062,-7.99457 -1.60557,-8.94587 -0.5088,-26.11202 -0.77806,14.09428 0.0114,-2.97488 0.21902,-5.97576 1.10887,-8.83299 0.90863,-2.74455 1.97111,-5.47181 3.62413,-7.86435 1.68087,-2.39547 3.54454,-4.65905 5.6312,-6.71511 2.04227,-1.85321 4.31676,-3.40773 6.43287,-5.17341 1.99705,-1.81494 3.92657,-3.70342 5.42279,-5.96896 1.30048,-1.95811 2.446,-4.00958 2.86952,-6.35364 0.53244,-3.06008 0.90408,-6.14768 1.02407,-9.25356 0.2872,-11.35999 0.0324,-22.73083 0,-34.09487 -0.0487,-4.09442 -0.12563,-8.1962 -0.56023,-12.27128 -0.40164,-3.2732 -0.94435,-6.52454 -1.58454,-9.75969 z" />
    <path
       style="fill:#00ffff;fill-opacity:0.533333;stroke:#000000;stroke-width:1"
       id="path18"
       d="m -51.497205,351.42154 c 0.19521,-2.52307 1.58139,-4.47945 3.29108,-6.23446 2.20233,-2.08087 4.93887,-3.26081 7.80163,-4.11042 3.38429,-0.91585 6.85448,-0.76349 10.28848,-0.29247 3.48221,0.54686 6.70544,1.88005 9.78903,3.53384 2.74955,1.44581 4.66535,3.73879 6.29476,6.31567 1.66415,2.75913 2.12479,5.90485 2.42197,9.05248 0.0349,0.58965 0.0767,1.17893 0.10459,1.76895 0.029,0.6141 0.0565,1.22846 0.066,1.84318 0.01,0.63938 -0.006,2.55783 -0.008,1.91837 -0.0766,-36.50056 0.29522,-24.75642 -0.20942,-16.86101 -0.24548,3.40515 -0.92458,6.75615 -1.70037,10.07416 -0.63939,2.85224 -1.73217,5.55668 -2.94822,8.20354 -1.16488,2.53224 -2.80003,4.76609 -4.66836,6.81592 -1.73607,1.81746 -3.64236,3.46227 -5.6092,5.02312 -1.8026,1.41968 -3.72274,2.6784 -5.67399,3.88181 -1.54778,0.94659 -3.19719,1.71126 -4.86243,2.42485 -1.40388,0.58602 -2.87287,0.99095 -4.35819,1.30744 -1.18123,0.26986 -2.3745,0.48106 -3.56645,0.69755 -1.04627,0.21494 -2.09248,0.43028 -3.13878,0.64565 -0.80169,0.18437 -1.61097,0.33881 -2.43247,0.39395 -0.54129,0.0187 -1.0827,-0.004 -1.62391,-0.0142 -0.36893,-0.0128 -0.73922,-0.0323 -1.1068,-0.0671 -0.2445,-0.0116 -0.48969,-0.003 -0.73398,-0.0155 -0.10168,-0.006 -0.20074,-0.0272 -0.29877,-0.0529 -0.0145,-0.0113 -0.029,0.007 -0.0434,0.01 0,0 0,24.96193 0,24.96193 v 0 c 0.0103,0.002 0.0304,0.0216 0.044,0.01 0.0974,-0.0258 0.19582,-0.0469 0.29694,-0.0529 0.24136,-0.0121 0.48366,-0.003 0.72525,-0.0132 0.37296,-0.0326 0.74856,-0.0475 1.12268,-0.0596 0.62042,-0.0139 1.24053,-0.0498 1.85642,-0.12899 0.91922,-0.1121 1.82433,-0.28004 2.71206,-0.54985 1.03709,-0.23288 2.07563,-0.46012 3.11169,-0.69412 1.2201,-0.27559 2.442,-0.54481 3.65477,-0.85185 1.59369,-0.43286 3.16052,-0.95425 4.71916,-1.49928 1.82755,-0.72814 3.53478,-1.70732 5.23621,-2.6893 2.05113,-1.26433 4.00582,-2.67744 5.92029,-4.13937 2.07454,-1.59442 4.14565,-3.19806 5.96503,-5.08918 2.06303,-2.12984 3.91432,-4.44335 5.33665,-7.05807 1.43539,-2.6843 2.71621,-5.47247 3.44188,-8.44125 0.85606,-3.41171 1.61031,-6.8606 2.04131,-10.35417 0.95941,-11.34472 0.94091,-22.81033 -0.0616,-34.14719 -0.5487,-3.3712 -1.41299,-6.66062 -3.51161,-9.43519 -2.04663,-2.61306 -4.37626,-4.89935 -7.45847,-6.26814 -3.36918,-1.5164 -6.86181,-2.71813 -10.52793,-3.28354 -3.71917,-0.53266 -7.50128,-0.76475 -11.21211,-0.008 -3.20067,0.76912 -6.25819,1.97844 -8.90419,3.98284 -1.89211,1.49806 -3.67413,3.14121 -4.8343,5.29419 z" />
    <path
       style="fill:#00ffff;fill-opacity:0.533333;stroke:#000000;stroke-width:1"
       id="path19"
       d="m -42.444405,374.92058 c 2.45115,-0.38086 4.9598,-0.31794 7.43598,-0.32274 2.97768,0.0159 5.95554,-0.10501 8.92771,-0.27942 2.49504,-0.1144 4.987,-0.29704 7.48294,-0.39069 1.50977,-0.0668 3.01929,-0.0103 4.52795,0.0493 0.71985,0.0606 1.44695,0.0781 2.15921,0.20602 0.18471,0.0406 0.10049,0.0201 0.25307,0.0599 0,0 0.0159,-24.88321 0.0159,-24.88321 v 0 c -0.15695,0.0378 -0.0706,0.0183 -0.25948,0.057 -0.72959,0.12337 -1.47267,0.13997 -2.20763,0.21919 -1.56757,0.10933 -3.13073,0.27659 -4.69045,0.46665 -2.47216,0.32453 -4.94369,0.66898 -7.43236,0.84303 -2.91161,0.20633 -5.82996,0.34796 -8.74982,0.26626 -2.44645,-0.0613 -4.95165,-0.0691 -7.33068,-0.69431 z" />
    <path
       style="fill:#00ffff;fill-opacity:0.533333;stroke:#000000;stroke-width:1"
       id="path20"
       d="m -122.10622,339.75634 c 2.44893,1.32686 4.36243,3.4528 6.21451,5.49003 2.96804,3.45226 5.81389,7.00794 8.55536,10.64215 2.99754,3.98202 5.69154,8.17728 8.321625,12.40691 2.33992,3.85177 4.89691,7.56303 7.37542,11.32493 2.03827,3.07796 3.93853,6.24296 5.80297,9.428 1.47085,2.71205 3.02451,5.37401 4.61105,8.01918 1.30075,2.01648 2.60898,4.02418 3.85408,6.07568 0.94224,1.50209 1.89992,2.99231 2.83488,4.49901 0.50784,0.88593 1.06574,1.75123 1.84819,2.41698 0.30375,0.35747 0.84506,0.42929 1.15634,0.77396 0.36483,0.40395 -0.42894,-0.16551 0.25458,0.27553 0.0676,0.24885 0.40198,0.55583 0.64953,0.68793 -0.0289,0.17333 0.042,0.33661 0.0259,0.51051 2.65054,0.23573 -0.60132,-8.1e-4 0.77623,0.18663 0.47226,0.0903 -0.074,0.0168 -0.0645,0.12401 0.006,0.0713 0.14986,0.033 0.1961,0.0877 0.0436,0.0515 -0.0379,0.13349 -0.0286,0.20028 0.0274,0.12346 0.0799,0.24931 0.0109,0.35929 0,0 2.63279,-24.83723 2.63279,-24.83723 v 0 c -0.15354,-0.0645 -0.28332,-0.16557 -0.41476,-0.26786 -0.29054,-0.20028 -0.73181,-0.4703 -0.92377,-0.54943 0.99481,-0.10725 -2.1141,-0.1832 0.30443,-0.12876 -0.25598,-0.13084 -0.47138,-0.33034 -0.73771,-0.44402 -0.0663,-0.21812 -0.61077,-0.54103 -0.82299,-0.66234 -0.31655,-0.30624 -0.83576,-0.38902 -1.0324,-0.84855 -0.46596,-0.69002 -0.97491,-1.35156 -1.45778,-2.02975 -0.96816,-1.32106 -1.94159,-2.63844 -2.81929,-4.02276 -1.28736,-1.94022 -2.60586,-3.8596 -3.8635,-5.81951 -1.61637,-2.48029 -3.10608,-5.03673 -4.60526,-7.58895 -1.86012,-3.07308 -3.89654,-6.02677 -5.97802,-8.95365 -2.49751,-3.63264 -4.92834,-7.31047 -7.34732,-10.99576 -2.70939,-4.18523 -5.475785,-8.3314 -8.503925,-12.29591 -2.82869,-3.81397 -5.6499,-7.63624 -8.66602,-11.3058 -2.07727,-2.47127 -4.29027,-4.79792 -6.60448,-7.0469 z" />
    <path
       style="fill:#00ffff;fill-opacity:0.533333;stroke:#000000;stroke-width:1"
       id="path21"
       d="m -72.797375,313.11053 c -0.0349,2.89961 -1.05548,5.62446 -2.08635,8.2921 -1.94921,4.91153 -4.61036,9.48475 -7.38486,13.96541 -2.88359,4.56065 -6.04769,8.93679 -9.3993,13.16304 -2.53587,3.12814 -5.15297,6.18945 -7.73464,9.27978 -1.675775,2.00175 -3.292425,4.05181 -4.954755,6.06456 -1.06069,1.28917 -2.13788,2.5633 -3.1659,3.87864 -0.64905,0.84958 -1.27703,1.71428 -1.89029,2.58965 -0.34184,0.53131 -0.5231,1.14681 -0.87759,1.66406 -0.34534,0.61686 -0.48678,1.30306 -0.71631,1.9654 -0.3806,0.67688 -0.69702,1.3973 -1.12091,2.05014 -0.3108,0.53045 -0.5585,1.10084 -0.90537,1.60832 -0.32917,0.71886 -0.64202,1.44516 -0.97851,2.16094 -0.53523,0.89966 -0.90178,1.86911 -1.27312,2.8429 -0.26533,0.65354 -0.35762,1.37029 -0.63823,2.01324 -0.15399,0.39585 -0.27083,0.82266 -0.44127,1.21294 -0.0829,0.28445 -0.27784,0.52535 -0.48327,0.73407 -0.1411,0.15108 -0.52596,0.19714 -0.6442,0.36526 -0.0464,0.066 0.1034,0.12978 0.12446,0.20769 0.0269,0.0983 0.0969,0.0735 0.19166,0.0688 0.96986,-0.0311 -0.0606,-0.0838 -0.37375,0.18404 -0.23701,0.17968 -0.29863,0.0663 0.58285,0.0427 0,0 0.55745,24.95576 0.55745,24.95576 v 0 c 0.77035,-0.0346 0.59759,0.14975 0.80781,-0.13085 0.37449,-0.43516 -1.21362,0.0775 -0.071,-0.10629 0.17916,-0.0269 0.33254,-0.0938 0.47543,-0.20826 0.49811,-0.35114 0.56521,-0.10901 0.30409,-0.63221 0.28874,-0.28794 0.60783,-0.54507 0.91392,-0.81378 0.38328,-0.43105 0.69845,-0.8706 0.96174,-1.38467 0.28845,-0.74274 0.68648,-1.43959 0.83796,-2.23739 0.22437,-0.93931 0.45244,-1.90636 0.85886,-2.779 0.35431,-0.64828 0.72009,-1.29161 1.04614,-1.95443 0.17624,-0.60719 0.56232,-1.14699 0.8251,-1.71992 0.28078,-0.71647 0.74803,-1.36303 1.09691,-2.04588 0.41915,-0.58891 0.78968,-1.17757 0.93253,-1.89394 0.0876,-0.62465 0.59375,-1.16697 0.749,-1.78869 0.30213,-1.05264 0.90125,-1.95912 1.45971,-2.89136 0.93461,-1.47652 1.98668,-2.86728 3.02146,-4.27415 1.64355,-2.26207 3.256415,-4.54543 4.876015,-6.82492 2.48367,-3.40667 5.12781,-6.68906 7.6912,-10.03529 3.28485,-4.48318 6.47073,-9.03831 9.53667,-13.67435 2.74671,-4.20651 5.52055,-8.41041 7.83658,-12.87532 1.13091,-2.21367 2.28423,-4.42594 2.99715,-6.81712 z" />
    <path
       style="fill:#00ffff;fill-opacity:0.533333;stroke:#000000;stroke-width:1"
       id="path22"
       d="m -202.85987,318.6087 c -0.21701,4.30492 -0.68297,8.59027 -1.19749,12.86802 -0.70686,5.38006 -1.5453,10.74152 -2.30317,16.11449 -0.58494,4.28446 -1.114,8.57618 -1.56226,12.87706 -0.34308,3.46457 -0.56716,6.93925 -0.84857,10.40902 -0.19939,2.64213 -0.46823,5.27827 -0.68342,7.91904 -0.13157,1.70955 -0.20973,3.42257 -0.26302,5.13616 -0.22907,8.94679 0.0832,17.89951 -0.0389,26.84806 -0.006,0.38281 -0.01,0.76564 -0.0156,1.14844 -0.0164,0.7604 -0.12446,0.32075 1.40576,0.48284 0.7412,0.0651 1.42925,-0.0841 2.08345,-0.43472 1.12077,-0.82549 2.04039,-1.89183 2.95539,-2.93233 1.27852,-1.45902 2.6166,-2.86333 3.89755,-4.32023 1.79679,-2.12792 3.26701,-4.50687 4.82226,-6.81154 1.86239,-2.74929 3.56383,-5.60193 5.34894,-8.40088 1.61499,-2.51673 3.24866,-5.0216 4.84698,-7.54897 1.35186,-2.21752 2.74119,-4.41055 4.17832,-6.5737 1.12377,-1.70115 2.26695,-3.38979 3.36259,-5.10929 1.06802,-1.72439 1.99398,-3.53017 3.02274,-5.27743 0.80221,-1.40132 1.59318,-2.81016 2.30124,-4.26183 0.72554,-1.48033 1.39898,-2.98511 2.11018,-4.47241 0.52922,-1.12202 1.0586,-2.2439 1.59697,-3.36158 0.35784,-0.73284 0.69462,-1.47672 1.15034,-2.15506 0.37785,-0.5013 0.89914,-0.85797 1.22777,-1.40114 0.14021,-0.3346 0.56748,-0.74932 0.57313,-1.11695 0.15903,-0.30704 0.55543,-0.4621 0.82196,-0.687 0.0979,-0.0944 0.20913,-0.15218 0.33843,-0.18809 -1.25958,-8.07223 -2.51914,-16.14446 -3.77869,-24.2167 -1.40999,9.35055 -0.0661,18.7097 0.19678,28.05126 0.13799,2.77964 0.24281,5.55987 0.29049,8.34345 0.0502,3.49548 0.0571,6.99139 0.05,10.48716 0.003,-1.18256 -0.008,4.45406 -0.009,3.34054 -0.003,-7.11716 -0.1048,-28.46794 -0.003,-21.3515 0.13354,9.32821 -0.0983,18.41795 0.13489,27.64313 0.0387,2.57542 0.15923,5.15244 0.46167,7.71106 0.23016,1.99859 0.42005,4.00427 0.70731,5.9958 0.14206,1.51734 0.50895,3.00023 0.67953,4.51304 0.19497,1.0306 0.18492,2.09604 0.36923,3.12673 0.0708,1.23127 0.24958,2.44797 0.34332,3.67706 -0.008,1.06219 0.34719,2.06542 0.50223,3.10397 0.0643,0.66625 0.0349,1.33461 0.006,2.00154 -0.5675,9.62032 0.1288,-32.02937 -0.0422,-23.40842 -0.006,0.2217 -0.0106,0.44348 -0.0114,0.66526 -0.0338,8.44072 0.33695,16.88883 8e-5,25.32341 -0.003,0.0643 -0.006,0.12863 -0.01,0.19284 0,0 3.90785,-24.69078 3.90785,-24.69078 v 0 c -0.003,-0.0187 -0.0101,-0.0371 -0.01,-0.0561 -0.67929,-8.38181 0.0329,32.79276 0,23.80246 -1.6e-4,-0.24397 -0.005,-0.48793 -0.007,-0.7319 -0.0719,-8.51438 0.90744,-17.08163 -0.0589,-25.54323 -0.0898,-0.62463 -0.21547,-1.24301 -0.3752,-1.8537 -0.20693,-0.94388 -0.21876,-1.90467 -0.33203,-2.86238 -0.14914,-1.24328 -0.20854,-2.49358 -0.39153,-3.73352 -0.0694,-1.04984 -0.30808,-2.0804 -0.46336,-3.1188 -0.2867,-1.36048 -0.48893,-2.73479 -0.66765,-4.11342 -0.22701,-1.95688 -0.47392,-3.91146 -0.65294,-5.87362 -0.19201,-2.37454 -0.33478,-4.752 -0.37375,-7.13474 -0.0138,-0.50746 -0.0294,-1.01487 -0.0415,-1.52236 -0.0124,-0.51925 -0.0308,-2.07726 -0.0319,-1.55786 -0.0145,7.13124 0.018,28.52498 -0.009,21.39377 -0.0348,-9.24651 0.0297,-18.49358 -0.0148,-27.74023 -0.018,-3.50806 -0.0214,-7.01638 -0.0857,-10.52401 -0.0648,-3.04711 -0.15774,-6.09356 -0.19103,-9.14119 -0.0285,-0.9201 -0.076,-1.83907 -0.10789,-2.75893 -0.008,-0.22782 -0.0148,-0.91169 -0.0146,-0.68373 0.0127,23.62738 0.54663,31.62959 0.005,23.39115 -1.2392,-8.20623 -9.54037,-30.32775 -3.48461,-24.65274 0.14925,0.28749 0.38412,0.46892 0.0148,0.72455 -0.35509,0.2756 -0.65301,0.80114 -0.82346,1.20253 -0.27498,0.50561 -0.32589,1.11535 -0.82566,1.48415 -0.67469,0.72525 -1.28328,1.49937 -1.68195,2.41608 -0.58844,1.19265 -1.13507,2.40557 -1.63833,3.63671 -0.64177,1.50915 -1.36864,2.97888 -2.0333,4.47797 -0.72017,1.46425 -1.44348,2.92607 -2.17545,4.3837 -0.9289,1.8158 -1.94416,3.58847 -2.89714,5.39199 -1.0415,1.77793 -2.2611,3.43903 -3.32602,5.20255 -1.37822,2.31676 -2.755,4.63397 -4.15092,6.94015 -1.59274,2.6052 -3.27321,5.15555 -4.81325,7.79347 -1.7086,2.76974 -3.45418,5.51765 -5.28939,8.20566 -1.44811,2.14203 -2.94153,4.25819 -4.57218,6.26626 -1.23317,1.40512 -2.53439,2.74188 -3.86456,4.05532 -0.77428,0.80214 -1.51834,1.64241 -2.40493,2.32427 -0.19849,0.25561 0.32663,0.0994 0.49017,0.11571 1.48669,0.13324 1.36604,0.54767 1.34755,-0.10464 -0.007,-0.31581 -0.0122,-0.63163 -0.0201,-0.94742 -0.24532,-10.33117 0.10903,32.23319 -0.0377,21.4699 -0.0222,-1.90413 -0.0284,-3.809 0.0438,-5.7123 0.1211,-2.78798 0.38402,-5.56443 0.5977,-8.34629 0.21984,-3.59594 0.46178,-7.19109 0.74895,-10.78228 0.34237,-4.51839 0.81172,-9.02517 1.37277,-13.5217 0.67058,-5.45801 1.43938,-10.9027 2.26618,-16.33922 0.51425,-3.46602 1.0011,-6.93942 1.60962,-10.38974 z" />
    <path
       style="fill:#00ffff;fill-opacity:0.533333;stroke:#000000;stroke-width:1"
       id="path23"
       d="m -200.72167,431.64371 c 0.82065,2.00859 1.56458,4.04627 2.40913,6.04524 0.85685,2.12431 2.20412,3.97974 3.6833,5.70814 1.67815,1.80959 3.53108,3.45774 5.45915,4.99614 1.63322,1.32171 3.36905,2.49913 5.33575,3.252 2.26512,0.74522 4.21108,-0.21015 6.06827,-1.45854 2.28855,-1.76041 3.94168,-4.1445 5.51086,-6.5313 1.08523,-1.78076 2.19943,-3.5471 3.21006,-5.37185 0.69569,-1.15319 1.34464,-2.33172 1.93709,-3.54097 0.37397,-0.97034 0.92507,-1.86217 1.32533,-2.818 0.20532,-0.59161 0.50671,-1.1327 0.78208,-1.69448 0.10927,-0.21181 0.21275,-0.43037 0.34801,-0.62662 0.0119,-0.01 0.0238,-0.0198 0.0357,-0.0297 0,0 -3.88311,-24.65827 -3.88311,-24.65827 v 0 c 0.0117,0.0127 0.0233,0.0254 0.0351,0.0381 0.11989,0.22459 0.15957,0.50647 0.16426,0.75507 -0.0154,0.67309 -0.17558,1.2446 -0.42008,1.86971 -0.36576,1.01993 -0.67696,2.0546 -1.17864,3.02425 -0.51681,1.28577 -1.08246,2.55255 -1.72929,3.77873 -1.03013,1.9613 -1.93323,3.9908 -3.02866,5.92039 -1.25061,2.23637 -2.58617,4.49151 -4.56121,6.17176 -1.15085,0.85361 -2.26152,1.6095 -3.72678,1.08563 -1.67648,-0.65669 -3.19125,-1.64882 -4.60497,-2.75674 -1.81295,-1.52287 -3.52938,-3.16734 -4.9217,-5.09372 -1.21775,-1.72303 -2.31645,-3.51526 -3.04959,-5.50607 -0.87386,-2.21685 -1.62121,-4.47975 -2.19085,-6.79512 z" />
    <path
       style="fill:#00ffff;fill-opacity:0.533333;stroke:#000000;stroke-width:1"
       id="path24"
       d="m -273.20083,376.50787 c 1.98731,-0.59803 4.0848,-0.47521 6.13233,-0.42163 2.7356,0.12196 5.47142,0.25214 8.20999,0.26827 2.75481,0.0725 5.48676,-0.16417 8.19893,-0.6267 2.26746,-0.4041 4.40228,-1.26638 6.50603,-2.17276 1.67859,-0.73976 3.31737,-1.56085 4.90445,-2.48007 1.5273,-0.8724 2.7415,-2.10604 3.78971,-3.49909 0.92204,-1.38779 1.5671,-2.93813 2.03176,-4.53238 1.60568,-9.56131 1.76108,-19.53613 0.12409,-29.10569 -0.23351,-1.79556 -0.88391,-3.41521 -1.71029,-5.00432 -0.70329,-1.21494 -1.57519,-2.28804 -2.60578,-3.23678 -0.97695,-0.86643 -2.149,-1.42437 -3.30692,-1.99759 -1.58634,-0.69518 -3.24721,-1.18343 -4.89334,-1.71026 -1.88888,-0.5801 -3.76973,-1.1848 -5.64898,-1.79524 -1.6664,-0.56818 -3.39006,-0.89116 -5.13731,-1.06634 -1.48241,-0.10337 -2.97233,-0.15299 -4.45675,-0.0749 -1.64489,0.14867 -3.27626,0.40602 -4.91278,0.62208 -1.56665,0.17942 -3.11867,0.43062 -4.65507,0.7849 -1.56001,0.30959 -2.98118,0.96759 -4.33612,1.77792 -1.79136,1.05596 -3.15021,2.60922 -4.43354,4.21242 -1.24431,1.65968 -2.39432,3.38959 -3.47467,5.15981 -1.21468,2.04521 -2.08938,4.26207 -2.87827,6.49858 -0.77748,2.22109 -1.30971,4.50713 -1.70794,6.8226 -0.38968,2.4999 -0.60947,5.01761 -0.70919,7.54426 -0.0935,10.45404 -0.51686,21.00324 0.51901,31.44032 0.26157,2.544 0.77025,5.05031 1.38687,7.52927 0.55152,2.25562 1.26248,4.4752 2.155,6.61901 0.75004,1.65584 1.72667,3.19811 2.79297,4.66603 0.94525,1.44043 2.08185,2.71422 3.37389,3.84794 1.07825,0.99036 2.24454,1.8713 3.50353,2.61669 1.31212,0.74169 2.75489,1.16677 4.19957,1.56027 1.37652,0.34228 2.77807,0.59272 4.18613,0.7622 1.61616,0.17569 3.24618,0.24056 4.87106,0.20113 1.74173,-0.0188 3.46427,-0.3014 5.19615,-0.45228 1.65555,-0.13856 3.31544,-0.22971 4.97078,-0.36931 1.58361,-0.10394 3.16659,-0.19384 4.74613,-0.35136 1.48682,-0.1432 2.96653,-0.35145 4.44137,-0.58646 1.35498,-0.17997 2.69965,-0.42353 4.04902,-0.63928 1.22047,-0.1478 2.40972,-0.45449 3.58688,-0.79876 0.8949,-0.26571 1.81094,-0.44425 2.71849,-0.65808 0.59637,-0.13536 1.16284,-0.36687 1.7463,-0.54498 0.19093,-0.0531 0.10181,-0.0299 0.26705,-0.0709 0,0 -1.22756,-24.85041 -1.22756,-24.85041 v 0 c -0.10904,0.10689 -0.048,0.0504 -0.18503,0.16723 -0.41942,0.31761 -0.89212,0.54315 -1.37803,0.73966 -0.85487,0.39114 -1.78361,0.56777 -2.68044,0.83675 -1.08177,0.35937 -2.14595,0.76605 -3.2852,0.91656 -1.32683,0.27372 -2.67086,0.46809 -4.00351,0.70988 -1.43277,0.24039 -2.86819,0.46996 -4.31075,0.64342 -1.5548,0.18435 -3.11978,0.2538 -4.67744,0.41116 -1.66965,0.12669 -3.33976,0.23994 -5.00443,0.42488 -1.66421,0.16928 -3.33055,0.3337 -5.00357,0.38167 -1.49727,0.004 -2.99616,-0.0672 -4.47714,-0.30077 -1.30935,-0.23875 -2.62467,-0.45819 -3.91054,-0.80716 -1.22852,-0.32402 -2.40245,-0.80419 -3.44544,-1.54263 -1.06841,-0.76002 -2.11693,-1.55217 -3.05151,-2.47637 -1.07194,-1.13254 -2.03698,-2.35261 -2.85393,-3.68458 -0.87125,-1.44169 -1.73218,-2.89624 -2.29685,-4.4922 -0.73787,-2.02928 -1.4138,-4.0817 -1.84231,-6.20245 -0.49136,-2.4862 -0.88107,-4.99061 -1.07558,-7.51944 -0.69604,-9.0164 -0.44141,-25.09773 -0.33269,15.15709 -0.0614,-2.48054 0.0787,-4.96604 0.40762,-7.42612 0.25672,-2.28165 0.67653,-4.53156 1.31815,-6.73893 0.61733,-2.13992 1.30539,-4.26442 2.39706,-6.21843 0.9806,-1.79667 2.08143,-3.52556 3.16923,-5.25859 1.00652,-1.4157 2.09601,-2.79346 3.57546,-3.74533 1.12837,-0.71582 2.25432,-1.46046 3.58232,-1.748 1.45068,-0.37507 2.91809,-0.65845 4.40213,-0.86785 1.55194,-0.21701 3.1069,-0.43815 4.67307,-0.51967 1.38729,-0.0221 2.77604,-0.0174 4.16198,0.0542 1.57401,0.11256 3.13447,0.3418 4.63825,0.841 1.87907,0.53429 3.74031,1.12177 5.57271,1.80054 1.53617,0.55212 3.07353,1.12126 4.45696,2.00582 0.92498,0.56386 1.84547,1.16709 2.55241,2.00102 0.73392,0.92343 1.38321,1.92137 1.82835,3.01811 0.5792,1.48536 0.83148,3.07337 0.97604,4.65623 0.0146,0.3167 0.0385,0.6331 0.044,0.95009 0.006,0.3162 -0.0114,1.26493 -0.0109,0.94868 0.0746,-39.53141 0.24771,-28.69054 -0.003,-20.37585 -0.12878,1.55809 -0.50692,3.04942 -1.16023,4.47598 -0.62764,1.35958 -1.50786,2.53567 -2.72158,3.43474 -1.41817,1.05544 -3.02191,1.81837 -4.5574,2.68557 -1.89952,0.9673 -3.86654,1.82173 -5.92756,2.38306 -2.53042,0.58754 -5.11146,0.88729 -7.71337,0.82061 -2.71219,-0.0297 -5.41571,-0.21561 -8.11268,-0.50342 -2.13281,-0.15399 -4.27985,-0.11034 -6.39784,-0.39166 z" />
    <path
       style="fill:#00ffff;fill-opacity:0.533333;stroke:#000000;stroke-width:1"
       id="path25"
       d="m -365.40262,337.78074 c -1.74625,-40.83083 0.48932,-28.58299 -0.0321,-20.0593 -0.13073,2.1372 -0.40968,4.25718 -0.68291,6.37948 -0.70512,5.43295 -1.69199,10.82222 -2.66671,16.21147 -0.99076,5.44096 -1.91101,10.89425 -2.97437,16.32168 -0.8895,4.38828 -1.74932,8.78264 -2.48298,13.19988 -1.62473,10.39022 -1.66965,21.07729 -0.60733,31.52756 0.31102,1.91312 0.96335,3.73133 2.00319,5.36434 1.02076,1.2723 2.30897,2.12429 3.84249,2.63579 2.1313,0.49074 4.06296,-0.30321 5.92069,-1.27447 3.14965,-1.78515 5.35927,-4.68449 7.5329,-7.49839 2.88819,-3.715 5.32633,-7.74533 7.51551,-11.90257 2.08212,-4.0608 3.74256,-8.31222 5.17573,-12.63896 1.19922,-3.92677 2.18059,-7.91456 3.29658,-11.865 0.81243,-2.76289 1.49741,-5.56007 2.19659,-8.35294 0.40947,-1.41865 0.68694,-2.8695 1.03757,-4.30211 0.15144,-0.88827 0.45315,-1.73856 0.62283,-2.62338 0.14181,-0.87394 0.1483,-1.76156 0.15711,-2.64459 0.40611,-8.88756 -0.0687,-17.77488 0.007,-26.66207 0.005,-0.50152 0.004,-1.00308 0.0138,-1.50455 0.0349,-1.47057 0.18849,-0.73791 -3.77256,0.10213 -0.14386,0.0305 0.0246,0.29375 0.0201,0.44076 -0.0143,0.46667 -0.10748,0.91213 -0.18302,1.37243 -0.52318,3.21684 -0.884,6.45828 -1.24089,9.69704 -0.49094,4.61286 -0.77857,9.24335 -1.05072,13.87315 -0.27133,4.47713 -0.49696,8.95612 -0.6428,13.43908 -0.14817,4.02499 -0.24966,8.05116 -0.32375,12.07813 -0.16031,10.82884 -0.32464,21.66676 -0.003,32.4927 0.0787,2.17822 0.32062,4.33722 0.6409,6.49016 0.11472,0.98234 0.61325,1.8163 0.96623,2.70893 0.37092,0.58756 0.93694,0.79282 1.529,1.09922 0.60823,0.31311 1.23846,0.45244 1.91312,0.53908 1.09834,0.16169 2.06137,-0.12498 3.03208,-0.62156 1.85361,-1.21478 3.24871,-2.97292 4.66902,-4.64424 2.11468,-2.49237 3.82463,-5.29174 5.49865,-8.08923 2.23163,-3.76602 3.80029,-7.86053 5.16133,-12.0056 1.31411,-4.35199 2.3971,-8.76996 3.41715,-13.19876 0.75163,-3.40632 1.37879,-6.8383 2.03192,-10.26442 0.47987,-2.32504 0.8704,-4.66639 1.30109,-7.00052 0.34546,-1.48394 0.54618,-2.99594 0.85209,-4.48713 0.25283,-1.12062 0.43434,-2.24628 0.60521,-3.38075 0.15089,-1.104 0.29892,-2.20989 0.46601,-3.31114 0.16237,-0.84098 0.21706,-1.68974 0.38245,-2.53047 0.1057,-0.46823 0.17664,-0.94223 0.23855,-1.41779 1.40311,-8.31909 -3.8763,-33.04033 -3.82543,-23.33626 -0.13308,9.57506 -0.0561,19.14603 0.0604,28.71837 0.0183,2.78155 0.0233,5.56316 0.0385,8.34472 0.006,8.00304 0.0896,19.53892 -0.003,-17.86896 -0.003,-0.53679 -0.0209,1.07342 -0.0401,1.60987 -0.046,1.28181 -0.10268,2.0664 -0.18184,3.35441 -0.2353,3.50682 -0.5106,7.01073 -0.75415,10.51698 -0.1906,3.13118 -0.48117,6.25502 -0.6931,9.38455 -0.16378,2.65311 -0.17579,5.31212 -0.21238,7.96911 -0.12234,9.74163 0.0246,19.48464 -0.0476,29.2267 -0.0873,1.26691 0.0672,2.51452 0.16452,3.77326 0.0552,0.80066 0.0483,1.60343 0.0339,2.40528 -0.28538,8.40379 -0.0381,17.73361 -0.0233,-23.2652 -0.2453,1.43443 3.71115,0.1057 3.88194,0.10379 0,-0.005 0.003,-0.01 0.003,-0.0146 -1.29638,8.25832 -2.59902,16.51566 -3.88914,24.77496 -1.23531,7.90844 -0.009,-16.00864 -0.008,-24.01298 0.003,0.0665 -0.005,0.008 -0.007,0.0125 0,0 3.90508,24.67665 3.90508,24.67665 v 0 c -0.0135,-0.21062 0.0198,0.33621 -0.007,-0.11678 -1.23899,-25.16215 2.54436,-41.12284 -3.8953,-0.64648 3.45965,0.0456 3.96506,1.31754 3.88414,-0.33459 0.003,-8.26308 0.51985,-17.06939 -0.0396,-25.56703 -0.0554,-0.72633 -0.12033,-1.4517 -0.18753,-2.17703 -0.0764,-1.16149 0.003,-2.3241 -0.0348,-3.48759 -0.13788,-12.98773 0.0415,31.15013 -0.0478,17.9656 -0.0138,-2.70103 -0.004,-5.40262 0.0774,-8.10267 0.121,-3.27316 0.35121,-6.54 0.59386,-9.80611 0.22357,-3.47833 0.48514,-6.9546 0.76785,-10.42857 0.79004,-10.93313 0.3906,-21.8955 0.39066,-32.85421 0.0151,-2.94245 0.0206,-5.88493 0.0375,-8.82736 0.0114,-1.1105 0.0259,-2.22092 0.0398,-3.3314 0.003,-0.2554 0.008,-1.02164 0.008,-0.76621 0.0146,22.47317 -0.05,31.27524 0.0101,22.92432 0.069,-8.2683 -4.69582,-34.43053 -3.8222,-25.33426 0.0306,0.52882 0.065,1.05888 0.0439,1.58873 -0.0581,0.90805 -0.27855,1.7866 -0.30811,2.69668 -0.16216,1.13236 -0.27037,2.2701 -0.49328,3.39364 -0.12634,1.14031 -0.22241,2.28975 -0.47618,3.41068 -0.27135,1.65779 -0.5603,3.31151 -0.77411,4.97898 -0.46937,2.47577 -0.79653,4.97362 -1.2587,7.45073 -0.61272,3.67 -1.13472,7.35556 -1.841,11.0095 -0.92133,4.49275 -1.97119,8.96298 -3.18134,13.38684 -1.19654,3.91196 -2.65629,7.74051 -4.70538,11.29593 -1.57652,2.59363 -3.19831,5.17365 -5.13707,7.51651 -1.21039,1.33256 -2.41877,2.71567 -3.89927,3.75642 -0.4635,0.29501 -0.79206,0.47958 -1.34623,0.29532 -0.30535,-0.0935 -0.62259,-0.32497 -0.83174,-0.55554 -0.20378,-0.22474 -0.0712,-0.60431 -0.15322,-0.89151 -0.28755,-0.67832 -0.31454,-1.45029 -0.45001,-2.16868 -0.28718,-1.8713 -0.40587,-3.76586 -0.47086,-5.65663 -0.21254,-8.56973 -0.0287,-1.63455 -0.0489,20.1127 0,0.53358 -0.003,-1.06713 -0.004,-1.60069 -0.003,-1.14801 -0.005,-2.29604 -0.005,-3.44406 -8e-5,-0.63265 0,-1.26531 0.003,-1.89796 0.0297,-4.09636 0.10946,-8.19191 0.2628,-12.28568 0.0819,-4.56512 0.26944,-9.12528 0.52875,-13.68376 0.26273,-4.47341 0.51125,-8.94942 0.98718,-13.40662 0.34785,-2.76567 0.69575,-5.53521 1.2464,-8.26946 0.12928,-0.50502 0.1292,-0.5809 0.30964,-1.03238 0.0453,-0.11326 0.27221,-0.31539 0.15151,-0.33309 -3.93719,-0.57736 -3.76386,-1.40274 -3.71468,-0.0197 0.0122,0.44598 0.008,0.89218 0.0161,1.33824 0.11256,8.49394 -0.37316,18.80972 0.0148,-21.88037 0.007,0.85883 0.0177,1.71764 0.0453,2.57611 0.0185,0.93263 -0.0164,1.86237 -0.32665,2.75442 -0.27379,1.66975 -0.61577,3.32907 -0.87149,5.00274 -0.65233,3.01201 -1.23436,6.04071 -2.01641,9.02321 -1.08837,4.10065 -2.01364,8.2424 -3.14688,12.3313 -1.30294,4.33101 -2.86298,8.58181 -4.81438,12.66694 -1.95424,4.10559 -4.2099,8.06098 -7.07599,11.60967 -1.9362,2.3607 -3.9165,4.8046 -6.61308,6.33253 -1.19208,0.58107 -2.53172,1.26548 -3.86141,0.72729 -0.98179,-0.53446 -1.74289,-1.33286 -2.16895,-2.37909 -0.61875,-1.53183 -1.03039,-3.13018 -1.05693,-4.79262 -0.15557,-8.4463 -0.0148,-1.21716 -0.0684,20.95042 0,0.46535 -0.007,-0.93072 -0.003,-1.39605 0.0185,-1.68464 0.14869,-3.36018 0.35782,-5.0322 0.59774,-4.69798 1.34824,-9.36948 2.26126,-14.01752 1.05209,-5.47465 2.01128,-10.96527 2.98291,-16.45471 0.94496,-5.19656 1.94318,-10.38346 2.8225,-15.59171 1.94011,-11.15168 2.78894,-20.22429 1.35263,-32.74476 z" />
    <path
       style="fill:#00ffff;fill-opacity:0.533333;stroke:#000000;stroke-width:1"
       id="path26"
       d="m -448.88265,313.5741 c -0.0233,4.32388 -0.37082,8.64059 -0.6648,12.95268 -0.39503,5.78249 -0.89139,11.55721 -1.34686,17.33504 -0.93144,12.47798 -0.50959,25.03005 -0.48626,37.5207 0.12227,4.46446 0.5733,8.91498 1.53601,13.27692 0.69502,3.34609 2.02483,6.48147 3.55318,9.51879 0.97475,2.01323 2.32862,3.73776 4.09811,5.09514 1.60023,1.137 3.52568,1.44049 5.43943,1.5548 2.276,0.0841 4.49633,-0.36249 6.66015,-1.02283 2.63999,-0.88488 5.01618,-2.33939 7.26548,-3.9519 2.8253,-2.12788 4.87355,-5.00048 6.73603,-7.96102 2.25766,-3.79991 3.90306,-7.91206 5.39912,-12.0579 1.30153,-3.84332 2.4548,-7.73702 3.3901,-11.68555 0.6944,-3.14406 1.22431,-6.32157 1.74869,-9.49752 0.4142,-2.81657 0.63714,-5.65701 0.88463,-8.49191 0.15039,-1.87088 0.28779,-3.74455 0.30313,-5.62203 0.0649,-1.31164 0.16992,-2.62044 0.2303,-3.93244 0.0459,-1.08382 0.0574,-2.16875 0.0656,-3.2534 -0.27,-8.79762 -0.0445,-17.59134 0.0193,-26.38672 0.003,-0.3693 0.007,-0.73865 0.0151,-1.10788 0.24754,-8.89501 -4.03908,17.13384 -3.85982,25.37069 0.206,-54.90501 -0.22225,-3.69005 0.16547,5.09615 0.1906,3.07771 0.40142,6.15336 0.67347,9.22511 0.41487,3.73114 0.69765,7.47365 0.90961,11.22134 0.13097,3.96852 0.32303,7.93418 0.50125,11.90073 0.26091,4.43307 0.47826,8.86733 0.59889,13.3065 0.1611,4.87774 0.37338,9.75344 0.56491,14.63004 0.13451,4.29431 0.18256,8.58981 0.29998,12.88453 0.075,3.6384 0.10195,7.27589 0.21649,10.91324 0.0798,2.91567 0.0894,5.83046 0.21317,8.74453 0.048,1.6675 0.0837,3.3278 0.22701,4.98872 0.18497,1.03639 0.33584,2.06722 0.53044,3.09737 0.10343,0.67322 0.0746,1.35848 0.0445,2.03651 -0.45482,8.41617 -0.0575,17.61466 -0.0437,-23.30549 -0.006,0.23671 -0.009,0.47344 -0.0132,0.71019 -0.16131,8.35699 0.005,16.89121 0.009,25.08734 -0.008,0.28569 -0.009,0.57146 -0.0116,0.85723 0.0265,8.8795 0.0319,-32.61201 0.01,-23.53109 -0.006,0.36696 -0.003,0.73399 0,1.10096 0.0265,0.49319 0.18831,0.79149 0.0511,1.29678 0.12449,0.50785 -0.23352,1.01646 -0.36502,1.50596 0.11054,0.69616 -0.0429,1.34318 -0.30387,1.98649 -0.26467,0.61384 -0.41003,1.2628 -0.50218,1.92184 -0.16859,0.44177 0.2068,0.72527 0.057,1.15412 -0.0817,0.26148 -0.16497,0.20431 0.22894,0.23838 0,0 2.69475,24.75397 2.69475,24.75397 v 0 c 0.43964,-0.14993 0.38169,-0.0534 0.41439,-0.39774 0.0541,-0.50387 0.55399,-0.80789 0.36833,-1.35243 -0.0355,-0.64149 -0.0811,-1.28667 -0.0442,-1.92844 0.0835,-0.71386 0.45569,-1.3145 0.71681,-1.97166 -0.059,-0.50954 -0.1651,-0.99261 0.21714,-1.41187 0.0228,-0.51972 0.37661,-0.81958 0.34261,-1.324 0,-0.37104 0.005,-0.74211 0,-1.11314 -0.0201,-8.50328 -0.0167,-17.00692 0.01,-25.51002 -0.003,-0.23713 -0.003,-0.47426 -0.0116,-0.71129 0.0217,40.67403 0.14031,32.13758 0.01,23.9266 -0.003,-0.27247 -0.005,-0.54499 -0.009,-0.81747 0.003,-6.40246 0.87701,-17.15593 -0.0741,-25.5664 -0.0924,-0.65374 -0.2362,-1.29636 -0.38746,-1.93872 -0.15825,-0.92607 -0.25953,-1.87468 -0.31467,-2.81318 -0.0908,-1.48119 -0.1184,-2.96695 -0.2413,-4.44699 -0.13613,-2.71911 -0.15788,-5.44283 -0.26765,-8.16308 -0.10755,-3.50394 -0.14997,-7.00964 -0.27104,-10.51328 -0.11792,-4.16087 -0.18307,-8.32347 -0.39489,-12.48126 -0.21918,-4.87707 -0.41524,-9.75507 -0.53623,-14.63574 -0.1469,-4.54297 -0.37018,-9.08264 -0.5814,-13.62298 -0.16965,-4.01115 -0.29128,-8.02476 -0.52197,-12.03299 -0.25294,-3.81573 -0.58846,-7.62294 -0.91133,-11.43309 -0.20817,-3.23486 -0.41796,-6.47194 -0.48326,-9.71339 -0.10332,-8.76978 -0.0333,-3.2612 0,20.95659 0,0.29345 0.009,-0.58683 0.013,-0.88025 0.006,-0.46492 0.0193,-0.92978 0.0198,-1.39474 0.006,-8.22988 0.006,-16.45977 0.009,-24.68965 0.16489,-9.66876 -4.07718,14.83606 -3.85987,23.37293 0.01,0.30678 0.013,0.61382 0.0161,0.92072 0.0818,8.38847 0.40182,18.28627 0.022,-22.14748 0.006,1.12542 0.0153,2.25084 0.0137,3.37629 -0.007,1.36974 -0.0308,2.74021 -0.14925,4.10569 -0.17142,2.06115 0,4.1398 -0.1611,6.20411 -0.15306,2.88786 -0.40868,5.76872 -0.68509,8.64712 -0.41547,3.30402 -0.97848,6.58981 -1.53768,9.87199 -0.7934,4.08799 -1.79398,8.13067 -3.05326,12.10201 -1.33752,3.98496 -2.83395,7.94527 -4.94845,11.59237 -1.65378,2.70199 -3.43871,5.3414 -5.91037,7.37399 -1.96379,1.51637 -4.10392,2.80384 -6.46507,3.60477 -1.86325,0.55322 -3.78184,0.92746 -5.73624,0.78389 -1.46778,-0.20908 -2.85996,-0.59603 -3.98285,-1.62084 -1.32409,-1.26191 -2.36676,-2.75899 -3.19736,-4.38848 -1.40732,-2.80681 -2.42295,-5.77499 -3.01615,-8.86343 -0.76684,-4.15434 -1.1812,-8.36136 -1.21615,-12.5887 -0.0647,39.05241 -0.28356,15.06114 0.30189,6.04291 0.38512,-5.72797 0.88871,-11.44743 1.36091,-17.16874 0.31551,-3.55957 0.59438,-7.12791 1.09423,-10.6672 z" />
    <path
       style="fill:#00ffff;fill-opacity:0.533333;stroke:#000000;stroke-width:1"
       id="path27"
       d="m -528.59538,335.99113 c 0.1607,3.46908 0.1692,6.94413 0.1972,10.41633 0.47329,-38.75979 -0.087,-11.34228 -0.58651,-2.40614 -0.3922,6.2484 -0.7776,12.49744 -1.2326,18.74165 -0.3409,4.64077 -0.6892,9.2811 -0.9894,13.92472 -0.6401,10.56182 -0.6604,21.16171 -0.2772,31.73601 0.038,1.38256 0.4246,2.71024 0.5921,4.07482 -0.05,0.57878 0.2645,0.94227 0.5115,1.42764 0.4857,0.9778 2.1979,0.29659 3.04026,0.12315 0.80901,-1.49808 0.96414,-3.35807 1.2932,-5.01575 0.67813,-3.46111 1.48905,-6.89298 2.41742,-10.29497 0.72977,-2.55687 1.48582,-5.10555 2.27838,-7.64362 0.44498,-1.43896 0.91175,-2.87016 1.45695,-4.2744 0.28546,-0.8217 0.67972,-1.57266 1.18229,-2.27929 0.68382,-0.91663 1.68998,-1.47528 2.67873,-2.00395 1.54736,-0.76022 3.21836,-1.2032 4.87912,-1.63581 1.54755,-0.40096 3.07986,-0.86645 4.64905,-1.17663 0.84254,-0.16281 1.69968,-0.32528 2.56156,-0.3069 1.22944,0.0929 -0.96369,0.0946 -1.33048,0.18507 -0.0332,-8.03331 -0.0804,-16.06657 -0.0995,-24.09992 0,-0.20666 0.0454,0.41179 0.0436,0.61844 -0.003,0.28992 -0.0307,0.57918 -0.0563,0.86798 -0.11091,1.24854 -0.2948,2.48728 -0.48501,3.72551 -0.55906,3.5573 -1.06712,7.1234 -1.47383,10.70141 -0.664,11.10271 -1.32506,22.35412 0.21193,33.39422 0.40579,2.68685 1.3467,5.21369 2.54167,7.63698 0.97366,1.79994 2.21715,3.37316 3.98592,4.42115 2.19104,1.00897 4.41415,0.34515 6.54761,-0.45672 3.43784,-1.50113 6.11796,-4.13111 8.72599,-6.74785 2.97103,-3.11928 5.76027,-6.40476 8.37448,-9.82708 2.74537,-3.58225 4.7176,-7.6295 6.41853,-11.78575 1.67405,-4.42048 3.01551,-8.95665 4.09506,-13.55604 2.32929,-10.90496 1.21672,-22.02276 1.22471,-33.15265 -0.11272,-2.7781 -0.78941,-5.45654 -1.6441,-8.08581 -0.69429,-2.15502 -1.75516,-4.14672 -2.93621,-6.06712 -0.94552,-1.62877 -2.22652,-3.03333 -3.47469,-4.43343 -1.11959,-1.26725 -2.27555,-2.50979 -3.4557,-3.72124 -0.78936,-0.84093 -1.66111,-1.60054 -2.73251,-2.04495 -0.865,-0.44275 -1.84677,-0.50961 -2.7999,-0.56526 -1.08686,-0.0962 -2.14786,0.054 -3.19686,0.328 -1.18499,0.32488 -2.25229,0.9359 -3.2989,1.56164 -1.04645,0.64292 -1.98295,1.43454 -2.91902,2.22344 -0.82968,0.68783 -1.65552,1.37983 -2.482,2.07167 -1.05354,0.78484 -1.8406,1.81341 -2.57955,2.88375 -0.95917,1.3586 -1.69188,2.86157 -2.42629,4.34936 -0.71686,1.42942 -1.47775,2.83614 -2.11158,4.30509 -0.61405,1.43563 -1.00299,2.95701 -1.30747,4.48492 -0.23077,1.08375 -0.42677,2.17148 -0.71863,3.24099 -0.29771,0.98254 -0.38397,2.00007 -0.42572,3.01994 -0.1465,9.22608 -0.005,18.4545 -0.0243,27.68174 -0.003,0.87621 -0.013,1.75237 -0.0212,2.62855 -0.13261,8.43822 -0.019,17.9254 -0.01,-23.24742 -0.006,0.20314 -0.006,0.40631 -0.0119,0.60944 0,0 3.89938,24.62023 3.89938,24.62023 v 0 c -0.006,-0.2528 -0.006,-0.50565 -0.0116,-0.75846 0.003,-8.51089 0.15811,-17.05258 -0.0106,-25.57577 -0.009,-0.77882 -0.0212,-1.5576 -0.0272,-2.33647 -0.0576,-10.80194 0.0281,32.27447 -0.0114,20.46441 -0.007,-0.96397 -0.0524,-1.92983 0.0143,-2.89253 0.13925,-1.17587 0.53158,-2.29984 0.67366,-3.47677 0.30228,-1.51148 0.47985,-3.0477 0.89043,-4.53741 0.49331,-1.48907 1.13802,-2.90056 1.86788,-4.28855 0.71413,-1.38914 1.35059,-2.8159 2.10065,-4.18658 0.63413,-0.90405 1.20084,-1.85918 1.98446,-2.64232 0.80915,-0.71719 1.66087,-1.37949 2.45181,-2.11667 0.87667,-0.73714 1.70286,-1.52972 2.60753,-2.23266 0.8125,-0.56994 1.66192,-1.08391 2.60556,-1.40824 0.75475,-0.25729 1.50286,-0.37348 2.30113,-0.25314 0.65606,0.0719 1.26363,0.21673 1.83497,0.563 0.70204,0.51556 1.36162,1.08239 1.99609,1.67926 1.14327,1.10609 2.29783,2.20116 3.28885,3.45157 1.13758,1.38617 2.21761,2.80735 3.06306,4.39679 1.00756,1.76603 1.86986,3.61008 2.39162,5.58378 0.66204,2.55884 1.07005,5.16766 1.03526,7.81969 0.0172,-7.1998 0.0319,-14.3996 0.0513,-21.59939 0.003,-0.53635 0.0154,1.07284 0.003,1.60904 -0.06,2.55764 -0.32665,5.11151 -0.723,7.63727 -0.87556,4.68556 -1.98194,9.33412 -3.6685,13.8024 -1.5676,3.99343 -3.42855,7.85914 -5.89566,11.38635 -2.41329,3.44834 -5.08235,6.69393 -8.03275,9.70089 -2.29528,2.27958 -4.64121,4.65897 -7.72901,5.82395 -1.44343,0.44635 -2.97553,0.91683 -4.3031,-0.0649 -1.21989,-1.04815 -2.09886,-2.39121 -2.74434,-3.86021 -0.95779,-2.26554 -1.61189,-4.64174 -1.87994,-7.09223 -0.81111,-7.8451 -0.14052,-18.863 -0.2689,17.88655 -0.003,0.61725 -0.0379,-1.23413 -0.0392,-1.85139 -0.003,-1.2524 0.0534,-2.45967 0.0989,-3.71062 0.28842,-3.39103 0.74218,-6.76387 1.37803,-10.10826 2.37903,-11.51056 2.18747,-4.17947 0.90863,-28.91578 -0.74015,-0.54079 -1.69124,-0.61303 -2.55209,-0.34346 -0.95202,0.23071 -1.90122,0.46503 -2.83395,0.7685 -1.58023,0.44601 -3.13328,0.98432 -4.72409,1.39411 -1.7355,0.51259 -3.49771,0.9302 -5.21858,1.49212 -1.27553,0.44813 -2.53056,0.95429 -3.63141,1.75615 -0.86905,0.69712 -1.6338,1.5026 -2.09505,2.53213 -0.68911,1.57149 -1.22595,3.19912 -1.64857,4.86257 -0.75842,2.76967 -1.51151,5.5405 -2.22673,8.3216 -0.91096,3.28408 -1.71854,6.59429 -2.57084,9.89381 -0.3101,1.15759 -0.7522,2.3803 -0.8916,3.55075 0.2722,-0.004 0.5445,-0.0172 0.8167,-0.0106 0.4439,0.0108 1.95547,0.66497 1.89334,-0.0575 -0.0661,-0.37865 0.10047,-0.67444 -0.0872,-1.04802 -0.25254,-1.09717 -0.34456,-2.21459 -0.35803,-3.34026 -0.18206,-8.31942 -0.0198,-1.25228 -0.0592,21.18489 0,0.48661 0,-0.97325 0.003,-1.45986 0.0108,-1.81362 0.0456,-3.62711 0.10908,-5.43966 0.20053,-4.96406 0.52073,-9.92217 0.80476,-14.88195 0.4227,-6.38034 0.74528,-12.76665 1.19565,-19.14522 0.81391,-13.42541 1.26881,-26.85737 0.79822,-40.31975 0.0315,-4.30264 0.0602,-8.60622 0.19725,-12.90706 z" />
  </g>
</svg>
